<svg width="10" height="16" viewBox="0 0 10 16" fill="none" xmlns="http://www.w3.org/2000/svg">
<path d="M9.65137 7.8457C9.65137 7.53809 9.53711 7.27441 9.29102 7.0459L2.45313 0.348633C2.25977 0.155273 2.01367 0.0498047 1.72363 0.0498047C1.14355 0.0498047 0.677734 0.506836 0.677734 1.0957C0.677734 1.38574 0.800781 1.64062 0.994141 1.84277L7.15527 7.8457L0.994141 13.8486C0.800781 14.0508 0.677734 14.3145 0.677734 14.5957C0.677734 15.1846 1.14355 15.6416 1.72363 15.6416C2.01367 15.6416 2.25977 15.5361 2.45312 15.3428L9.29102 8.6543C9.53711 8.41699 9.65137 8.15332 9.65137 7.8457Z" fill="#B8552C"/>
</svg>
