<svg width="30" height="30" viewBox="0 0 30 30" fill="none" xmlns="http://www.w3.org/2000/svg">
<path d="M14.6 28.2C22.111 28.2 28.2 22.1111 28.2 14.6C28.2 7.08893 22.111 1 14.6 1C7.0889 1 1 7.08893 1 14.6C1 22.1111 7.0889 28.2 14.6 28.2Z" stroke="#8E8E93" stroke-width="2" stroke-linecap="round" stroke-linejoin="round"/>
<path class="cir" d="M19.3 22.7C20.4046 22.7 21.3 21.8045 21.3 20.7C21.3 19.5954 20.4046 18.7 19.3 18.7C18.1954 18.7 17.3 19.5954 17.3 20.7C17.3 21.8045 18.1954 22.7 19.3 22.7Z" fill="#8E8E93"/>
<path class="cir" d="M7.70001 18.7C8.80458 18.7 9.70001 17.8045 9.70001 16.7C9.70001 15.5954 8.80458 14.7 7.70001 14.7C6.59544 14.7 5.70001 15.5954 5.70001 16.7C5.70001 17.8045 6.59544 18.7 7.70001 18.7Z" fill="#8E8E93"/>
<path class="cir" d="M16.7 9C17.8046 9 18.7 8.10457 18.7 7C18.7 5.89543 17.8046 5 16.7 5C15.5954 5 14.7 5.89543 14.7 7C14.7 8.10457 15.5954 9 16.7 9Z" fill="#8E8E93"/>
<path class="cir" d="M16.7 15.8C17.3628 15.8 17.9 15.2628 17.9 14.6C17.9 13.9373 17.3628 13.4 16.7 13.4C16.0373 13.4 15.5 13.9373 15.5 14.6C15.5 15.2628 16.0373 15.8 16.7 15.8Z" fill="#8E8E93"/>
<path class="cir" d="M22.1 13.7C22.7627 13.7 23.3 13.1628 23.3 12.5C23.3 11.8373 22.7627 11.3 22.1 11.3C21.4372 11.3 20.9 11.8373 20.9 12.5C20.9 13.1628 21.4372 13.7 22.1 13.7Z" fill="#8E8E93"/>
<path class="cir" d="M12 22.7C12.6627 22.7 13.2 22.1628 13.2 21.5C13.2 20.8373 12.6627 20.3 12 20.3C11.3373 20.3 10.8 20.8373 10.8 21.5C10.8 22.1628 11.3373 22.7 12 22.7Z" fill="#8E8E93"/>
<path class="cir" d="M9.5 11.4C10.1627 11.4 10.7 10.8628 10.7 10.2C10.7 9.53727 10.1627 9 9.5 9C8.83726 9 8.29999 9.53727 8.29999 10.2C8.29999 10.8628 8.83726 11.4 9.5 11.4Z" fill="#8E8E93"/>
</svg>
