<svg width="26" height="17" viewBox="0 0 26 17" fill="none" xmlns="http://www.w3.org/2000/svg">
<path d="M20.6018 16.1363C20.8929 16.4036 21.3387 16.4208 21.6298 16.1363C21.93 15.8431 21.9118 15.4292 21.6298 15.1619L6.20039 0.546979C5.91837 0.279684 5.4453 0.271062 5.16328 0.546979C4.89035 0.805651 4.89035 1.25402 5.16328 1.51269L20.6018 16.1363ZM13.4329 1.03846C11.8409 1.03846 10.4035 1.29713 9.06611 1.71962L10.5399 3.11645C11.4588 2.87503 12.4049 2.72845 13.4329 2.72845C19.219 2.72845 23.8132 7.49663 23.8132 8.50545C23.8132 9.18662 22.3576 10.937 20.0377 12.3166L21.4024 13.6185C24.259 11.8423 25.9238 9.52289 25.9238 8.50545C25.9238 6.73786 20.902 1.03846 13.4329 1.03846ZM13.4329 15.9811C15.1069 15.9811 16.6444 15.7052 18.0363 15.2482L16.5625 13.8513C15.5799 14.1273 14.5428 14.2911 13.4329 14.2911C7.6287 14.2911 3.03445 9.71259 3.03445 8.50545C3.03445 7.92775 4.57194 6.07394 7.03737 4.62537L5.64544 3.30615C2.67965 5.0996 0.923828 7.47939 0.923828 8.50545C0.923828 10.273 6.05483 15.9811 13.4329 15.9811ZM17.9544 10.1523C18.1909 9.65223 18.3183 9.08315 18.3183 8.50545C18.3183 5.92735 16.144 3.88385 13.4329 3.88385C12.8052 3.88385 12.223 4.00456 11.6862 4.2115L17.9544 10.1523ZM13.4329 13.1357C14.1243 13.1357 14.7794 12.9805 15.3707 12.7132L8.97514 6.65164C8.68402 7.21209 8.52936 7.84153 8.52936 8.51407C8.53846 11.0232 10.7037 13.1357 13.4329 13.1357Z" fill="#B6532B"/>
</svg>
