<svg width="382" height="138" viewBox="0 0 382 138" fill="none" xmlns="http://www.w3.org/2000/svg">
<path fill-rule="evenodd" clip-rule="evenodd" d="M59.84 63.6569C69.7387 65.1929 77.4187 67.9236 82.88 71.8489C88.4267 75.7743 91.2 80.8516 91.2 87.0809C91.2 95.5289 86.3787 102.057 76.736 106.665C67.0933 111.188 54.2933 113.449 38.336 113.449C13.3333 113.449 0.576 111.828 0.064 108.585C-0.130075 107.55 0.117237 106.539 0.805934 105.553C2.79008 106.522 5.01958 107.065 7.376 107.065C15.6603 107.065 22.376 100.349 22.376 92.0649C22.376 85.7242 18.4418 80.3024 12.8813 78.1074C16.7752 75.7391 19.376 71.4557 19.376 66.5649C19.376 59.8764 14.5119 54.3239 8.128 53.2519V48.9369C8.128 46.2063 7.36 43.9023 5.824 42.0249C4.37333 40.0623 2.96533 38.4836 1.6 37.2889C0.32 36.0089 -0.192 34.6863 0.064 33.3209C0.234667 32.2116 1.89867 31.3156 5.056 30.6329C8.29867 29.8649 12.352 29.3529 17.216 29.0969C22.08 28.7556 26.0053 28.5423 28.992 28.4569C32.064 28.3716 34.88 28.3289 37.44 28.3289C50.8373 28.3289 61.76 30.1209 70.208 33.7049C78.7413 37.2036 83.008 41.8116 83.008 47.5289C83.008 51.3689 80.96 54.6543 76.864 57.3849C72.768 60.1156 67.0933 62.2063 59.84 63.6569ZM56.128 48.4249V48.2969C56.128 44.1156 55.1893 41.1289 53.312 39.3369C51.52 37.5449 48.7467 36.5636 44.992 36.3929C42.432 36.4783 40.64 37.3743 39.616 39.0809C38.6773 40.7876 38.208 44.0729 38.208 48.9369V54.5689C38.2933 55.7636 38.5493 56.7876 38.976 57.6409C39.4027 58.4089 39.7867 59.0063 40.128 59.4329C40.5547 59.7743 41.0667 60.0729 41.664 60.3289C42.2613 60.4996 42.6453 60.5849 42.816 60.5849H43.328C47.5947 60.5849 50.7947 59.6889 52.928 57.8969C55.0613 56.1049 56.128 52.9476 56.128 48.4249ZM59.968 87.2089C59.968 74.8356 55.0613 68.6489 45.248 68.6489C40.5547 68.6489 38.208 70.5689 38.208 74.4089V92.8409C38.208 97.7903 38.6773 101.118 39.616 102.825C40.64 104.532 42.5173 105.385 45.248 105.385C55.0613 105.385 59.968 99.3263 59.968 87.2089ZM128.07 45.0969C124.742 47.7423 120.689 49.0649 115.91 49.0649C111.131 49.0649 107.035 47.7423 103.622 45.0969C100.294 42.3663 98.63 39.0809 98.63 35.2409C98.63 31.4863 100.294 28.2863 103.622 25.6409C107.035 22.9103 111.131 21.5449 115.91 21.5449C120.603 21.5449 124.614 22.9103 127.942 25.6409C131.355 28.2863 133.062 31.4863 133.062 35.2409C133.062 39.0809 131.398 42.3663 128.07 45.0969ZM131.526 92.9689C131.526 95.1876 131.91 97.1503 132.678 98.8569C133.531 100.564 134.47 101.844 135.494 102.697C136.518 103.465 137.371 104.404 138.054 105.513C138.822 106.537 139.163 107.604 139.078 108.713C138.822 111.956 131.654 113.577 117.574 113.577C116.123 113.577 114.459 113.534 112.582 113.449C110.79 113.364 108.529 113.193 105.798 112.937C103.067 112.596 100.763 112.084 98.886 111.401C97.0087 110.633 95.9847 109.737 95.814 108.713C95.6433 107.348 96.198 106.068 97.478 104.873C98.758 103.593 100.123 102.014 101.574 100.137C103.025 98.1743 103.75 95.8276 103.75 93.0969V80.0409C103.75 72.5316 102.342 68.4783 99.526 67.8809C97.99 67.6249 96.8807 67.0276 96.198 66.0889C95.6007 65.0649 95.5153 64.0409 95.942 63.0169C96.454 61.9076 97.5207 61.0969 99.142 60.5849C105.883 58.3663 114.203 55.8916 124.102 53.1609C125.126 52.9049 125.979 52.7769 126.662 52.7769C128.027 52.7769 129.094 53.2463 129.862 54.1849C130.63 55.0383 131.099 56.1903 131.27 57.6409C131.526 59.0063 131.654 60.6276 131.654 62.5049C131.739 64.2969 131.697 66.1316 131.526 68.0089V92.9689ZM179.818 55.4649H190.314C190.997 55.4649 191.594 55.7209 192.106 56.2329C192.618 56.7449 192.874 57.3423 192.874 58.0249V60.9689C192.874 61.6516 192.618 62.2489 192.106 62.7609C191.594 63.2729 190.997 63.5289 190.314 63.5289H179.818V84.3929C179.818 84.9903 179.775 86.2276 179.69 88.1049V91.9449C179.775 92.7129 179.861 93.8223 179.946 95.2729C180.031 96.7236 180.202 97.8329 180.458 98.6009C180.799 99.2836 181.183 100.094 181.61 101.033C182.037 101.886 182.634 102.526 183.402 102.953C184.17 103.294 185.066 103.508 186.09 103.593C186.943 103.593 187.541 103.508 187.882 103.337C189.333 102.91 190.485 103.337 191.338 104.617C192.277 105.812 192.277 106.964 191.338 108.073C187.925 111.913 183.018 114.132 176.618 114.729C168.255 115.497 161.685 114.089 156.906 110.505C152.127 106.921 149.695 101.545 149.61 94.3769V87.0809V73.2569V63.5289H143.466C142.783 63.5289 142.186 63.2729 141.674 62.7609C141.162 62.2489 140.906 61.6516 140.906 60.9689V58.0249C140.906 57.3423 141.162 56.7449 141.674 56.2329C142.186 55.7209 142.783 55.4649 143.466 55.4649C152.767 54.8676 162.794 47.0169 173.546 31.9129C174.229 30.9743 175.167 30.5049 176.362 30.5049C177.301 30.5049 178.111 30.8036 178.794 31.4009C179.477 31.9983 179.818 32.7663 179.818 33.7049V55.4649ZM328.39 75.3049C330.945 76.5392 333.168 77.8505 335.058 79.2386C330.681 80.0868 327.376 83.9399 327.376 88.5649C327.376 92.7529 330.086 96.308 333.848 97.5722C332.32 99.109 331.376 101.227 331.376 103.565C331.376 105.471 332.003 107.23 333.063 108.648C332.873 108.756 332.681 108.863 332.486 108.969C325.659 112.638 316.827 114.601 305.99 114.857C296.518 115.113 288.582 113.918 282.182 111.273C275.782 108.542 272.198 105.129 271.43 101.033C270.833 98.3876 271.259 96.0409 272.71 93.9929C274.161 91.8596 276.422 90.4943 279.494 89.8969C285.211 88.7876 289.649 91.7316 292.806 98.7289C293.745 100.777 294.598 102.441 295.366 103.721C296.134 104.916 297.414 106.153 299.206 107.433C301.083 108.713 303.217 109.481 305.606 109.737C309.19 110.249 312.091 109.908 314.31 108.713C316.529 107.433 317.638 105.812 317.638 103.849C317.638 102.996 317.339 102.185 316.742 101.417C316.23 100.564 315.59 99.8383 314.822 99.2409C314.139 98.6436 313.158 98.0036 311.878 97.3209C310.683 96.5529 309.702 95.9983 308.934 95.6569C308.251 95.3156 307.27 94.8889 305.99 94.3769C304.71 93.8649 303.985 93.5663 303.814 93.4809C303.729 93.3956 301.979 92.5849 298.566 91.0489C295.238 89.4276 292.806 88.2756 291.27 87.5929C289.563 86.8249 287.857 85.9289 286.15 84.9049C284.443 83.8809 282.523 82.5156 280.39 80.8089C278.342 79.0169 276.763 76.8409 275.654 74.2809C274.63 71.6356 274.374 68.8196 274.886 65.8329C275.825 60.0303 279.665 55.7209 286.406 52.9049C293.147 50.0889 301.425 48.8516 311.238 49.1929C319.601 49.4489 326.086 50.8996 330.694 53.5449C335.302 56.1049 337.734 58.9209 337.99 61.9929C338.161 64.1263 337.435 65.9183 335.814 67.3689C334.278 68.8196 332.059 69.4169 329.158 69.1609C327.451 68.9903 325.958 68.4783 324.678 67.6249C323.398 66.7716 322.459 66.0036 321.862 65.3209C321.35 64.5529 320.667 63.3583 319.814 61.7369C319.046 60.1156 318.577 59.1769 318.406 58.9209C316.358 55.2516 313.158 53.4596 308.806 53.5449C306.161 53.7156 304.283 54.3129 303.174 55.3369C302.15 56.3609 301.638 57.4703 301.638 58.6649C301.638 61.3103 303.601 63.5289 307.526 65.3209C307.782 65.4916 310.726 66.8996 316.358 69.5449C322.075 72.1903 326.086 74.1103 328.39 75.3049ZM260.969 87.0809C261.566 86.0569 262.462 85.5449 263.657 85.5449C264.766 85.5449 265.705 85.9716 266.473 86.8249C267.241 87.6783 267.454 88.7023 267.113 89.8969C265.15 97.1503 260.841 103.038 254.185 107.561C247.614 111.998 240.062 114.217 231.529 114.217C221.374 114.217 212.713 111.188 205.545 105.129C198.462 99.0703 194.921 91.3476 194.921 81.9609C194.921 72.8303 198.206 65.2783 204.777 59.3049C211.433 53.3316 219.625 50.1316 229.353 49.7049C240.361 49.1929 248.681 50.7289 254.313 54.3129C259.945 57.8116 263.145 62.0356 263.913 66.9849C264.425 70.4836 263.87 73.6409 262.249 76.4569C260.713 79.2729 258.452 81.4916 255.465 83.1129C252.564 84.6489 249.449 85.8436 246.121 86.6969C242.793 87.4649 239.465 87.8489 236.137 87.8489C232.297 87.8489 229.31 87.3369 227.177 86.3129C229.31 89.7263 231.956 92.3716 235.113 94.2489C238.356 96.0409 241.726 96.8089 245.225 96.5529C248.297 96.3823 251.241 95.4436 254.057 93.7369C256.873 92.0303 259.177 89.8116 260.969 87.0809ZM230.377 53.8009C227.646 54.0569 225.513 56.0623 223.977 59.8169C222.526 63.5716 221.929 67.2836 222.185 70.9529C222.441 74.7929 223.294 78.4196 224.745 81.8329C226.11 82.0036 227.134 82.0889 227.817 82.0889C231.06 82.0889 233.748 80.7663 235.881 78.1209C238.014 75.3903 239.038 71.6356 238.953 66.8569C238.868 63.4436 238.014 60.3716 236.393 57.6409C234.857 54.8249 232.852 53.5449 230.377 53.8009Z" fill="#874A1D"/>
<path d="M346.145 96.5082C348.217 95.4882 350.617 97.0937 350.464 99.398L349.984 106.643C349.831 108.948 347.242 110.223 345.322 108.938L339.288 104.9C337.368 103.616 337.559 100.735 339.631 99.7153L346.145 96.5082Z" fill="#874A1D"/>
<path d="M350.698 83.7397C352.079 83.0597 353.679 84.1299 353.577 85.6662L353.281 90.1417C353.179 91.6779 351.452 92.5279 350.173 91.6717L346.445 89.1772C345.166 88.321 345.293 86.4007 346.674 85.7207L350.698 83.7397Z" fill="#874A1D"/>
<path d="M359.832 94.6008C359.79 92.2918 362.264 90.8032 364.284 91.9214L372.415 96.4208C374.436 97.539 374.489 100.425 372.51 101.616L364.548 106.408C362.569 107.599 360.043 106.201 360.001 103.892L359.832 94.6008Z" fill="#874A1D"/>
<path d="M260.968 87.016C261.566 85.992 262.462 85.48 263.656 85.48C264.766 85.48 265.704 85.9067 266.472 86.76C267.24 87.6133 267.454 88.6373 267.112 89.832C265.15 97.0853 260.84 102.973 254.184 107.496C247.614 111.933 240.062 114.152 231.528 114.152C221.374 114.152 212.712 111.123 205.544 105.064C198.462 99.0053 194.92 91.2827 194.92 81.896C194.92 72.7653 198.206 65.2133 204.776 59.24C211.432 53.2667 219.624 50.0667 229.352 49.64C240.36 49.128 248.68 50.664 254.312 54.248C259.944 57.7467 263.144 61.9707 263.912 66.92C264.424 70.4187 263.87 73.576 262.248 76.392C260.712 79.208 258.451 81.4267 255.464 83.048C252.563 84.584 249.448 85.7787 246.12 86.632C242.792 87.4 239.464 87.784 236.136 87.784C232.296 87.784 229.31 87.272 227.176 86.248C229.31 89.6613 231.955 92.3067 235.112 94.184C238.355 95.976 241.726 96.744 245.224 96.488C248.296 96.3173 251.24 95.3787 254.056 93.672C256.872 91.9653 259.176 89.7467 260.968 87.016ZM230.376 53.736C227.646 53.992 225.512 55.9973 223.976 59.752C222.526 63.5067 221.928 67.2187 222.184 70.888C222.44 74.728 223.294 78.3547 224.744 81.768C226.11 81.9387 227.134 82.024 227.816 82.024C231.059 82.024 233.747 80.7013 235.88 78.056C238.014 75.3253 239.038 71.5707 238.952 66.792C238.867 63.3787 238.014 60.3067 236.392 57.576C234.856 54.76 232.851 53.48 230.376 53.736Z" fill="#E264BE"/>
</svg>
