<svg width="380" height="380" viewBox="0 0 380 380" fill="none" xmlns="http://www.w3.org/2000/svg">
<path d="M254.829 190.266C254.43 192.47 254.354 192.546 254.487 192.774C255.589 194.769 255.133 197.087 255.836 199.158C256.026 199.728 256.425 200.336 256.349 200.868C255.969 203.072 257.546 204.478 258.363 206.207C258.442 206.376 258.559 206.526 258.703 206.644C258.848 206.762 259.017 206.847 259.199 206.891C261.954 207.841 260.054 210.862 262.429 210.444C266.039 209.836 266.59 210.615 266.932 208.544C267.065 207.784 266.932 206.815 268.091 206.644C269.25 206.473 268.433 207.043 274.912 211.85C282.873 217.778 283.652 219.773 296.116 225.017C296.473 225.097 296.81 225.25 297.104 225.468C297.398 225.687 297.642 225.964 297.822 226.284C298.001 226.603 298.111 226.956 298.144 227.321C298.178 227.685 298.134 228.053 298.016 228.399C297.522 230.546 296.99 250.743 297.294 260.699C297.248 269.07 298.478 277.399 300.942 285.399C301.778 287.812 301.189 288.23 298.719 288.116C290.834 287.793 292.544 288.116 281.619 288.363C275.216 288.477 268.813 288.477 262.429 288.743C258.915 289.076 255.378 289.076 251.865 288.743C249.965 288.496 249.319 287.717 248.635 287.983C246.963 288.61 247.001 288.534 247.172 286.843C247.704 281.618 248.73 276.469 248.977 271.206C249.357 262.732 250.706 260.585 250.174 242.269C250.003 237.006 249.129 231.8 248.806 226.575C248.255 217.93 245.291 209.95 242.726 201.875C242.078 200.178 242.03 198.311 242.59 196.583C243.15 194.855 244.284 193.37 245.804 192.375C247.578 190.83 249.486 189.444 251.504 188.233C252.34 187.777 253.062 187.112 254.05 187.587C255.038 188.062 254.772 188.993 254.829 190.266Z" fill="#FADF8F"/>
<path d="M273.752 193.458C269.477 194.256 267.216 190.836 264.252 188.879C263.946 188.567 263.735 188.175 263.644 187.747C263.553 187.32 263.586 186.876 263.739 186.466C264.1 185.383 264.537 185.972 269.439 185.003C272.821 184.338 278.122 186.181 278.939 183.274C281.808 173.375 279.965 171.741 283.233 171.874C286.501 172.007 287.85 173.052 287.964 175.237C288.439 184.11 287.679 180.405 290.092 191.121C290.282 191.976 290.567 192.85 289.864 193.572C289.161 194.294 288.173 194.009 287.28 193.762C284.019 192.724 280.55 192.521 277.191 193.173C276.055 193.365 274.904 193.46 273.752 193.458Z" fill="#FADF8F"/>
<path d="M333.811 93.1002C338.314 90.0222 341.734 93.8792 339.644 97.4512C339.397 97.8692 339.036 98.1352 339.644 98.6102C343.444 101.403 341.81 106.21 338.979 108.566C336.86 110.485 334.378 111.959 331.679 112.903C328.98 113.846 326.119 114.238 323.266 114.057C321.304 114.02 319.391 113.442 317.737 112.385C316.967 111.915 316.33 111.255 315.888 110.468C315.446 109.682 315.214 108.794 315.214 107.892C315.214 106.989 315.446 106.102 315.888 105.315C316.33 104.528 316.967 103.868 317.737 103.398C318.63 102.79 318.516 102.353 318.269 101.498C317.357 98.7432 315.058 94.3922 317.547 92.1882C319.372 90.5138 321.526 89.2396 323.872 88.4478C326.219 87.6559 328.704 87.3638 331.17 87.5902C333.412 87.7802 335.35 89.6422 333.868 92.1882C333.83 92.4732 333.868 92.7202 333.811 93.1002ZM329.555 106.533C326.249 107.863 323.399 107.274 320.055 104.633C319.808 104.424 319.618 104.196 319.219 104.329C318.354 104.868 317.731 105.721 317.48 106.709C317.228 107.696 317.368 108.743 317.87 109.63C320.017 112.1 323 112.195 325.717 112.1C329.252 111.865 332.667 110.727 335.635 108.794C336.678 108.255 337.598 107.505 338.337 106.593C339.076 105.68 339.618 104.625 339.929 103.493C340.103 102.756 340.025 101.981 339.709 101.293C339.392 100.604 338.854 100.041 338.181 99.6932C336.794 99.8726 335.481 100.424 334.381 101.289C334.202 102.555 333.646 103.738 332.786 104.684C331.925 105.629 330.799 106.294 329.555 106.59V106.533ZM332.158 95.3992C332.158 94.6392 331.759 94.3162 330.961 94.7342C327.576 96.6236 323.626 97.2371 319.827 96.4632C317.927 96.0452 319.428 98.0212 320.283 100.757C321.423 104.348 324.482 106.096 328.833 104.557C333.184 103.018 332.614 100.111 332.158 95.4562V95.3992ZM318.478 94.2212C320.647 94.9052 322.949 95.0515 325.186 94.6477C327.424 94.2439 329.53 93.302 331.322 91.9032C331.74 91.5232 332.367 91.1242 332.101 90.4212C331.961 90.1501 331.743 89.9263 331.476 89.7776C331.21 89.629 330.905 89.5621 330.6 89.5852C328.363 89.466 326.126 89.8226 324.036 90.6316C321.946 91.4405 320.052 92.6834 318.478 94.2782V94.2212ZM334.115 96.0072C334.21 96.9002 334.115 97.7932 334.856 98.1162C335.597 98.4392 337.706 96.2162 337.725 95.5132C337.744 94.8102 337.155 94.3732 336.433 94.4682C335.369 94.6772 334.229 94.7532 334.115 96.0642V96.0072Z" fill="#FADF8F"/>
<path d="M362.445 75.2592C360.803 74.8204 359.197 74.2616 357.638 73.5872C356.631 73.2642 356.137 73.3022 355.738 74.4232C354.889 76.331 353.824 78.1351 352.565 79.8002C352.427 80.1416 352.175 80.4242 351.851 80.5992C351.528 80.7741 351.153 80.8304 350.792 80.7582C350.431 80.6861 350.107 80.49 349.876 80.204C349.644 79.9181 349.52 79.5601 349.525 79.1922C349.297 77.7672 349.031 76.3232 348.879 74.8602C348.784 73.9672 348.404 73.5112 347.53 73.7582C345.63 74.3092 343.73 73.3592 342.001 72.9032C340.975 72.6562 340.766 71.4022 341.583 70.4712C346.257 65.2082 346.998 65.2082 347.283 64.1062C348.917 57.1712 348.081 55.0242 349.867 54.6062C350.931 54.3022 351.368 55.2142 351.862 55.9362C352.66 57.1142 353.515 58.2352 354.256 59.4322C355.453 61.3322 356.403 59.8122 361.381 59.4322C361.835 59.3357 362.308 59.3891 362.73 59.5844C363.151 59.7796 363.498 60.1063 363.718 60.5152C364.193 61.4462 363.433 62.0732 362.958 62.6622C362.198 63.5894 361.352 64.4419 360.431 65.2082C358.17 67.1082 362.331 69.4832 363.946 73.2832C364.459 74.4232 364.003 75.2402 362.445 75.2592ZM359.633 71.6492C359.633 71.8202 359.633 71.7632 359.766 71.7822L359.633 71.6492C359.633 70.8322 358.873 70.3762 358.531 69.7492C356.441 65.7022 355.795 65.9492 359.405 62.7002V62.2442C356.251 62.2442 353.952 64.5812 352.774 62.0922C352.208 61.0503 351.573 60.0474 350.874 59.0902C350.507 61.6182 349.682 64.0583 348.442 66.2912C347.207 68.3622 344.319 70.2052 344.642 71.0222C344.813 71.4782 345.269 71.3642 345.63 71.3642C346.604 71.4857 347.594 71.375 348.518 71.0412C350.798 69.8632 350.798 72.5422 351.634 76.7412C352.704 75.2115 353.501 73.508 353.99 71.7062C354.674 69.0082 356.935 71.4972 359.633 71.6492Z" fill="#FADF8F"/>
<path d="M328.169 51.4334C328.91 53.0864 327.314 53.6564 325.984 54.3404C320.074 57.5871 314.005 60.5358 307.801 63.1754C307.66 63.2573 307.503 63.3072 307.341 63.3214C307.179 63.3356 307.016 63.3137 306.864 63.2574C306.711 63.2011 306.573 63.1117 306.459 62.9957C306.345 62.8797 306.258 62.7399 306.205 62.5864C305.885 62.1083 305.715 61.5463 305.715 60.9714C305.715 60.3964 305.885 59.8344 306.205 59.3564C307.63 57.4564 310.005 54.7964 310.651 53.6564C311.297 52.5164 311.772 51.3194 313.71 52.6114C316.066 54.1504 320.075 51.4524 320.132 48.6214C320.132 46.9874 317.871 46.0184 319.486 44.4034C321.652 42.2374 323.172 42.2184 325.186 44.4034C326.142 45.305 326.901 46.3954 327.415 47.6054C327.928 48.8155 328.185 50.119 328.169 51.4334Z" fill="#FADF8F"/>
<path d="M280.212 37.4872C280.212 36.3282 280.345 35.8532 281.865 35.9292C286.146 36.2617 290.447 36.2617 294.728 35.9292C295.982 35.7962 296.305 36.2332 296.286 37.3162C296.086 38.9348 295.671 40.5194 295.051 42.0282C288.553 64.2582 290.301 66.6142 288.439 66.7282C287.546 66.7282 287.489 65.7972 287.242 65.1702C284.338 56.0942 281.99 46.8493 280.212 37.4872ZM294.975 37.2022C293.949 37.2022 293.626 37.8292 293.265 38.2852C292.372 39.4062 290.643 40.2992 291.935 42.1992C291.935 42.3132 291.935 42.5792 291.802 42.7692C291.669 42.9592 291.308 42.7692 291.232 42.5982C290.434 41.1922 289.94 42.2752 289.332 42.7882C287.204 44.8022 289.066 45.4862 289.826 46.3982C290.586 47.3102 291.175 46.2082 291.536 45.7522C293.531 43.2632 293.74 40.0902 294.975 37.2022ZM287.565 50.2552C288.154 50.2552 289.921 47.7662 289.579 47.2912C287.052 43.7572 287.033 46.1892 286.292 46.9112C285.551 47.6332 286.539 50.1602 287.565 50.2552ZM287.565 43.7572C288.135 43.1492 288.591 42.6172 289.104 42.1422C289.921 41.3442 290.149 40.7552 289.104 39.7482C288.059 38.7412 287.641 38.8552 286.729 39.7482C285.817 40.6412 285.247 41.6482 286.729 42.5982C287.037 42.929 287.299 43.2997 287.508 43.7002L287.565 43.7572ZM284.582 42.4652C284.031 43.0352 283.328 43.6052 283.404 44.3652C283.416 44.9061 283.548 45.4376 283.791 45.9209C284.034 46.4041 284.382 46.8269 284.81 47.1582C285.133 47.3672 285.304 47.1582 285.456 46.9112C285.901 46.3001 286.313 45.6659 286.691 45.0112C287.09 44.2892 285.209 41.8002 284.525 42.4652H284.582ZM289.75 53.8652C289.142 53.2002 288.591 52.4972 287.945 51.9652C287.755 51.7752 285.855 53.9602 286.045 54.3592C286.349 55.2522 287.09 56.2592 287.945 56.2592C288.8 56.2592 289.028 54.7962 289.693 53.8842L289.75 53.8652ZM282.416 37.3542C282.777 38.7412 283.898 39.3682 284.563 40.2992C285.228 41.2302 285.608 40.1852 285.798 39.8052C286.197 39.0452 287.337 38.6462 286.995 37.5252C286.9 37.3162 285.95 37.3732 282.359 37.3732L282.416 37.3542ZM289.883 55.8222C288.458 56.1262 289.085 57.5322 288.23 57.9122C287.052 58.4442 287.014 59.2802 287.413 60.3252C287.812 61.3702 287.983 62.0162 288.268 62.8712C288.8 60.5342 289.199 58.2542 289.826 55.8412L289.883 55.8222ZM291.384 50.0082C291.447 49.7718 291.431 49.5213 291.339 49.2949C291.246 49.0685 291.082 48.8786 290.871 48.7542C290.32 48.3932 290.13 49.0012 289.845 49.2292C289.581 49.4241 289.367 49.6778 289.218 49.9702C289.047 50.4642 288.135 50.8062 288.781 51.4902C289.427 52.1742 289.655 52.8392 290.339 52.7822C291.023 52.7252 290.719 51.7562 290.985 51.2432C291.129 50.8468 291.243 50.4404 291.327 50.0272L291.384 50.0082ZM292.828 37.3542H289.446C288.838 37.3542 288.724 37.7152 288.971 38.2282C289.75 39.8432 290.871 40.0142 291.954 38.6082C292.182 38.2852 292.695 38.0002 292.771 37.3732L292.828 37.3542ZM285.684 52.8392C287.584 51.0912 287.451 50.3502 284.943 49.0392C284.804 50.3513 285.041 51.6758 285.627 52.8582L285.684 52.8392ZM283.1 42.8452C284.658 41.3822 284.544 40.9452 282.34 39.2732C282.412 40.4953 282.668 41.6995 283.1 42.8452Z" fill="#FADF8F"/>
<path d="M267.445 62.4345C266.343 66.8425 263.113 67.6785 265.317 70.2055C266.434 71.6012 267.432 73.0884 268.3 74.6515C268.756 75.3545 269.155 76.1145 268.528 76.8935C267.274 78.4515 263.854 75.2785 261.84 75.8675C260.643 76.2095 260.7 78.5275 259.94 79.8765C259.681 80.3497 259.483 80.8541 259.351 81.3775C259.104 82.7265 257.451 83.2775 256.786 81.5295C256.121 79.7815 255.418 78.2045 254.886 76.5135C254.031 73.9865 252.986 76.5135 248.73 73.8345C246.963 72.7135 248.293 71.5165 250.155 70.6045C254.316 68.5525 252.055 65.1135 252.264 59.7745C252.249 59.4595 252.338 59.1482 252.516 58.8882C252.695 58.6283 252.953 58.4339 253.253 58.3348C253.552 58.2358 253.876 58.2374 254.174 58.3396C254.473 58.4417 254.729 58.6387 254.905 58.9005C259.978 65.5505 257.223 63.8975 265.431 61.0475C266.704 60.5915 267.597 61.3325 267.445 62.4345ZM264.291 64.0495C260.225 65.1325 258.857 68.0015 256.919 65.3985C256.5 64.6596 255.881 64.0538 255.133 63.6505V66.8805C255.228 70.9655 250.896 71.0795 251.485 72.5805C251.732 73.2835 253.195 73.2835 254.164 73.1695C254.417 73.1054 254.68 73.0938 254.937 73.1356C255.194 73.1774 255.439 73.2716 255.659 73.4123C255.878 73.5531 256.066 73.7374 256.211 73.9539C256.356 74.1703 256.454 74.4142 256.501 74.6705C256.938 75.8105 257.47 76.8935 258.04 78.1665C258.735 77.3162 259.182 76.2906 259.332 75.2025C260.035 71.2125 262.41 74.1765 265.241 74.0625C264.062 72.6186 263.043 71.0515 262.201 69.3885C261.346 67.3745 263.512 66.0635 264.291 64.0495Z" fill="#FADF8F"/>
<path d="M307.04 66.2911C307.04 64.9421 308.237 64.6951 326.04 55.8601C326.572 55.5941 327.161 55.4611 327.465 54.8721C327.558 54.6202 327.748 54.4156 327.992 54.3033C328.236 54.1911 328.515 54.1804 328.767 54.2736C329.019 54.3669 329.223 54.5564 329.335 54.8004C329.448 55.0445 329.458 55.3232 329.365 55.5751C329.406 56.3008 329.238 57.023 328.881 57.6561C328.524 58.2892 327.993 58.8067 327.351 59.1471C321.516 62.5036 315.46 65.4617 309.225 68.0011C307.8 68.5141 307.021 68.0961 307.04 66.2911Z" fill="#FADF8F"/>
<path d="M309.301 229.691C309.89 234.897 304.646 232.313 300.523 233.795C299.25 234.251 298.205 232.636 298.718 231.192C298.984 230.432 299.383 229.824 298.718 228.95C297.35 227.05 304.703 226.385 307.021 226.29C308.655 226.214 309.244 227.297 309.301 229.691Z" fill="#FADF8F"/>
<path d="M333.716 106.191C333.471 106.823 333.095 107.397 332.614 107.875C332.133 108.353 331.557 108.724 330.923 108.965C326.211 111.454 323.323 108.965 324.235 107.939C324.558 107.597 324.786 107.939 325.071 108.072C326.435 108.628 327.953 108.674 329.348 108.203C330.744 107.732 331.923 106.775 332.671 105.507C333.146 104.5 334.058 105.032 333.716 106.191Z" fill="#FADF8F"/>
<path d="M40.5463 87.7802C40.1853 80.7882 42.8263 74.4802 44.0993 67.7922C44.3083 66.7472 56.0693 13.1862 56.6773 12.3502C57.2853 11.5142 58.1023 11.6282 58.2733 12.3502C58.6723 13.9652 59.6033 13.3382 60.6103 13.3002C63.4983 13.1862 66.3103 13.1862 69.2553 13.3002C74.0053 13.4142 78.6033 12.1412 83.3343 12.0462C85.0443 12.0462 86.2793 11.6282 86.5263 12.7492C86.6088 13.0464 86.5715 13.3642 86.4223 13.6342C86.2731 13.9042 86.0239 14.1049 85.7283 14.1932C84.4743 14.6112 84.4173 15.5232 84.2843 16.6252C83.7333 21.4512 81.7383 51.1102 80.9973 57.9312C80.1613 65.5312 80.5033 73.0172 80.3703 80.5602C80.4394 83.1069 80.6806 85.646 81.0923 88.1602C82.9923 103.474 75.6393 113.259 67.3743 116.223C58.0833 119.472 41.8003 111.036 40.5463 87.7802Z" fill="#F4B77D"/>
<path d="M123.5 88.8633C123.804 82.8023 126.559 17.8033 126.825 14.3453C126.825 13.6993 126.825 13.1863 128.174 13.1103C134.52 12.6923 140.866 13.7183 147.174 12.3693C150.528 11.5577 154.054 11.8304 157.244 13.1483C158.574 13.7563 158.631 14.4783 157.662 15.2953C157.441 15.491 157.279 15.7432 157.192 16.0245C157.105 16.3058 157.097 16.6055 157.168 16.8913C162.089 75.2783 165.699 91.3903 161.082 100.7C158.67 106.152 154.575 110.687 149.397 113.639C144.571 116.242 140.144 115.026 135.945 112.556C131.645 110.08 128.472 106.035 127.091 101.27C124.488 92.4923 123.652 93.5373 123.5 88.8633Z" fill="#F4B77D"/>
<path d="M211.337 113.772C209.877 113.636 208.522 112.958 207.537 111.872C197.163 101.46 199.937 97.1473 191.748 14.5543C191.52 12.3883 191.748 12.2553 193.876 12.2933C195.377 12.2933 196.897 12.1603 198.417 12.0653C203.813 11.7043 209.228 12.0653 214.605 11.5143C215.612 11.4003 216.638 10.2413 217.664 11.5143C217.987 11.9133 218.443 12.2743 218.367 12.7493C217.797 15.9223 219.146 18.8293 219.64 21.8503C221.255 31.5023 230.489 82.1183 231.04 86.2983C231.212 89.4408 230.879 92.5907 230.052 95.6273C229.399 98.264 228.216 100.74 226.575 102.904C221.578 110.827 217.284 112.841 211.337 113.772Z" fill="#F4B77D"/>
<path d="M314.488 262.504C314.203 275.652 318.611 288.952 316.844 303.867C316.692 305.121 316.445 306.204 314.716 305.767C314.564 305.729 314.405 305.73 314.253 305.77C314.101 305.81 313.962 305.887 313.848 305.995C313.735 306.103 313.65 306.238 313.602 306.388C313.555 306.537 313.546 306.696 313.576 306.85C313.671 307.971 313.044 308.047 312.17 308.028C294.937 307.762 292.866 311.353 292.657 308.636C292.543 307.154 289.807 307.876 290.092 308.94C290.548 310.631 289.256 310.403 288.401 310.65C282.364 312.22 275.998 311.969 270.104 309.928C264.653 308.427 258.963 307.989 253.346 308.636C248.273 309.054 249.261 308.959 249.28 305.045C249.312 300.117 249.629 295.194 250.23 290.301C250.363 289.218 250.534 288.61 252.13 288.724C258.02 289.142 263.891 290.225 269.819 289.731C286.444 288.344 277.875 287.831 294.519 287.831H299.592C302.632 287.983 300.903 285.456 299.288 264.898C298.528 255.018 299.098 245.1 298.946 235.22C298.946 233.415 299.706 232.826 301.549 233.32C307.249 234.631 310.441 230.964 310.935 234.403C312.132 243.2 314.811 247.342 314.488 262.504ZM311.6 271.225C313.12 271.225 313.31 267.957 311.22 268.109C310.999 268.105 310.78 268.148 310.578 268.236C310.375 268.324 310.194 268.454 310.046 268.618C309.898 268.782 309.787 268.976 309.721 269.186C309.655 269.397 309.635 269.619 309.662 269.838C309.7 270.826 310.384 271.187 311.6 271.225ZM275.006 309.396C275.006 311.011 277.951 311.03 277.989 308.921C278.015 308.732 277.999 308.539 277.941 308.357C277.882 308.176 277.784 308.009 277.652 307.87C277.521 307.732 277.36 307.624 277.182 307.556C277.003 307.488 276.811 307.461 276.621 307.477C275.5 307.458 275.082 308.028 275.006 309.396ZM260.946 296.343C260.745 296.322 260.541 296.346 260.35 296.414C260.159 296.483 259.986 296.593 259.844 296.737C259.701 296.881 259.593 297.056 259.527 297.247C259.462 297.439 259.44 297.643 259.464 297.844C259.447 298.034 259.471 298.225 259.536 298.405C259.6 298.584 259.703 298.747 259.837 298.883C259.97 299.019 260.132 299.123 260.311 299.19C260.489 299.257 260.68 299.284 260.87 299.269C261.073 299.283 261.277 299.251 261.466 299.175C261.655 299.1 261.825 298.983 261.963 298.834C262.101 298.685 262.205 298.507 262.265 298.312C262.326 298.118 262.343 297.913 262.314 297.711C262.333 296.78 261.896 296.4 260.946 296.4V296.343ZM308.693 304.304C308.693 303.506 308.522 302.898 307.591 302.879C307.389 302.853 307.184 302.873 306.991 302.936C306.798 302.999 306.621 303.104 306.473 303.245C306.326 303.385 306.212 303.556 306.139 303.746C306.066 303.936 306.036 304.14 306.052 304.342C306.02 304.53 306.031 304.723 306.084 304.906C306.137 305.089 306.232 305.257 306.36 305.398C306.488 305.539 306.647 305.649 306.824 305.72C307.001 305.79 307.192 305.82 307.382 305.805C308.294 305.786 308.674 305.159 308.693 304.304ZM253.137 303.164C253.099 303.351 253.101 303.544 253.145 303.729C253.189 303.915 253.272 304.088 253.39 304.238C253.507 304.388 253.656 304.511 253.826 304.597C253.996 304.684 254.182 304.732 254.373 304.739C254.563 304.746 254.753 304.712 254.929 304.638C255.104 304.564 255.262 304.453 255.39 304.312C255.519 304.171 255.615 304.004 255.672 303.822C255.729 303.64 255.746 303.448 255.721 303.259C255.76 303.073 255.757 302.88 255.713 302.695C255.67 302.509 255.586 302.335 255.468 302.185C255.351 302.035 255.202 301.913 255.032 301.827C254.862 301.74 254.676 301.692 254.485 301.685C254.295 301.678 254.105 301.712 253.929 301.786C253.754 301.86 253.596 301.971 253.468 302.112C253.34 302.253 253.244 302.42 253.186 302.602C253.129 302.783 253.112 302.975 253.137 303.164ZM303.43 251.332C303.43 250.287 302.936 249.945 302.081 249.964C301.226 249.983 300.58 250.382 300.58 251.294C300.571 251.473 300.6 251.652 300.667 251.818C300.733 251.984 300.835 252.134 300.965 252.257C301.096 252.379 301.251 252.473 301.42 252.53C301.59 252.586 301.77 252.606 301.948 252.586C302.128 252.605 302.31 252.586 302.483 252.533C302.657 252.479 302.817 252.391 302.955 252.274C303.094 252.157 303.207 252.013 303.289 251.852C303.37 251.69 303.418 251.513 303.43 251.332ZM312.664 281.732C311.733 281.732 311.277 282.302 311.296 283.195C311.28 283.374 311.302 283.555 311.361 283.724C311.42 283.894 311.515 284.049 311.639 284.179C311.764 284.308 311.914 284.41 312.081 284.476C312.248 284.543 312.428 284.572 312.607 284.563C312.794 284.567 312.98 284.534 313.155 284.466C313.329 284.398 313.488 284.296 313.623 284.166C313.758 284.036 313.866 283.882 313.941 283.71C314.016 283.539 314.057 283.354 314.061 283.167C314.064 282.98 314.031 282.794 313.963 282.619C313.895 282.445 313.793 282.286 313.663 282.151C313.534 282.016 313.379 281.908 313.207 281.833C313.036 281.758 312.851 281.717 312.664 281.713V281.732ZM303.069 263.226C303.023 262.913 302.865 262.626 302.624 262.42C302.383 262.214 302.075 262.102 301.758 262.105C301.577 262.083 301.392 262.1 301.218 262.154C301.043 262.209 300.882 262.299 300.745 262.421C300.608 262.542 300.499 262.691 300.424 262.857C300.348 263.024 300.31 263.205 300.31 263.388C300.31 263.571 300.348 263.752 300.424 263.918C300.499 264.085 300.608 264.234 300.745 264.355C300.882 264.476 301.043 264.567 301.218 264.622C301.392 264.676 301.577 264.693 301.758 264.67C302.575 264.632 302.841 264.1 303.069 263.207V263.226ZM304.399 274.626C304.399 273.695 303.848 273.429 303.031 273.448C302.214 273.467 301.815 273.828 301.834 274.626C301.809 274.807 301.823 274.992 301.875 275.167C301.927 275.342 302.016 275.505 302.135 275.643C302.254 275.782 302.401 275.893 302.567 275.971C302.732 276.048 302.912 276.09 303.095 276.092C303.278 276.095 303.459 276.059 303.627 275.987C303.795 275.914 303.945 275.807 304.068 275.672C304.192 275.537 304.285 275.377 304.342 275.204C304.399 275.03 304.418 274.846 304.399 274.664V274.626ZM312.227 248.976C312.23 248.799 312.196 248.624 312.129 248.46C312.062 248.296 311.963 248.148 311.837 248.023C311.711 247.899 311.561 247.802 311.396 247.737C311.231 247.672 311.055 247.641 310.878 247.646C310.7 247.624 310.52 247.641 310.349 247.695C310.179 247.75 310.022 247.841 309.89 247.962C309.758 248.083 309.654 248.231 309.585 248.397C309.516 248.562 309.484 248.74 309.491 248.919C309.396 250.515 311.923 250.8 312.227 249.014V248.976ZM302.1 236.341C301.777 236.346 301.469 236.475 301.239 236.702C301.009 236.928 300.875 237.235 300.865 237.557C300.828 237.735 300.832 237.918 300.875 238.094C300.918 238.27 301 238.434 301.115 238.574C301.229 238.715 301.374 238.827 301.538 238.905C301.702 238.982 301.881 239.021 302.062 239.02C303.715 239.21 304 236.797 302.1 236.341ZM289.788 292.239C289.066 292.372 288.458 292.657 288.458 293.55C288.431 293.712 288.438 293.878 288.478 294.037C288.517 294.196 288.589 294.345 288.689 294.475C288.789 294.605 288.914 294.713 289.058 294.792C289.201 294.872 289.359 294.921 289.522 294.937C289.88 294.968 290.235 294.854 290.509 294.623C290.784 294.391 290.955 294.06 290.985 293.702C291.015 293.345 290.902 292.989 290.671 292.715C290.439 292.441 290.108 292.27 289.75 292.239H289.788ZM302.005 296.324C302.575 296.115 303.145 295.773 303.107 295.013C303.108 294.835 303.072 294.659 302.999 294.496C302.927 294.333 302.821 294.187 302.688 294.068C302.555 293.95 302.398 293.861 302.228 293.807C302.058 293.754 301.878 293.738 301.701 293.759C301.539 293.742 301.374 293.762 301.221 293.82C301.068 293.877 300.93 293.969 300.82 294.089C300.709 294.21 300.628 294.354 300.583 294.511C300.538 294.668 300.53 294.834 300.561 294.994C300.561 295.849 301.055 296.248 301.967 296.4L302.005 296.324ZM310.65 257.925C310.65 257.089 310.099 256.823 309.358 256.823C308.617 256.823 308.028 257.241 308.085 258.115C308.165 258.403 308.343 258.654 308.587 258.826C308.832 258.998 309.129 259.079 309.427 259.057C309.724 259.034 310.005 258.909 310.222 258.703C310.438 258.497 310.576 258.222 310.612 257.925H310.65ZM315.229 296.4C315.229 295.393 314.773 295.07 313.994 295.089C313.832 295.076 313.669 295.097 313.516 295.148C313.362 295.2 313.22 295.283 313.099 295.392C312.978 295.5 312.881 295.632 312.813 295.779C312.744 295.926 312.707 296.086 312.702 296.248C312.672 296.424 312.68 296.605 312.725 296.778C312.77 296.951 312.85 297.112 312.961 297.252C313.072 297.392 313.212 297.507 313.37 297.589C313.529 297.671 313.703 297.719 313.881 297.73C314.059 297.741 314.238 297.714 314.405 297.651C314.572 297.588 314.724 297.491 314.851 297.366C314.979 297.24 315.078 297.09 315.143 296.923C315.208 296.757 315.237 296.579 315.229 296.4ZM308.693 242.516C308.693 241.794 308.522 241.243 307.667 241.205C306.812 241.167 306.394 241.623 306.375 242.478C306.356 243.333 306.603 243.751 307.439 243.808C308.275 243.865 308.674 243.314 308.693 242.478V242.516ZM267.995 302.252C267.083 302.252 266.836 302.822 266.855 303.639C266.874 304.456 267.178 304.893 267.995 304.836C268.173 304.843 268.349 304.809 268.512 304.737C268.674 304.665 268.818 304.558 268.933 304.423C269.049 304.288 269.132 304.128 269.176 303.956C269.221 303.784 269.227 303.605 269.192 303.43C269.154 302.613 268.812 302.195 267.995 302.214V302.252ZM306.793 288.249C306.09 288.249 305.767 288.686 305.767 289.389C305.751 289.539 305.769 289.69 305.821 289.831C305.872 289.973 305.955 290.1 306.063 290.205C306.171 290.309 306.302 290.388 306.445 290.434C306.588 290.48 306.739 290.493 306.888 290.472C307.705 290.472 308.047 290.016 307.99 289.237C307.933 288.458 307.496 288.173 306.793 288.211V288.249ZM255.626 294.671C255.436 294.044 255.227 293.417 254.372 293.474C254.222 293.482 254.076 293.519 253.94 293.583C253.805 293.647 253.683 293.737 253.583 293.849C253.482 293.96 253.404 294.09 253.354 294.231C253.304 294.372 253.282 294.522 253.289 294.671C253.297 294.821 253.333 294.968 253.398 295.103C253.462 295.239 253.552 295.36 253.663 295.461C253.774 295.561 253.904 295.639 254.045 295.689C254.187 295.74 254.336 295.762 254.486 295.754C254.638 295.769 254.791 295.75 254.934 295.699C255.078 295.648 255.208 295.566 255.317 295.459C255.425 295.352 255.509 295.223 255.563 295.08C255.616 294.938 255.638 294.785 255.626 294.633V294.671ZM295.963 301.492C295.986 301.331 295.97 301.166 295.918 301.011C295.866 300.857 295.778 300.716 295.661 300.602C295.545 300.487 295.403 300.402 295.248 300.352C295.092 300.302 294.927 300.289 294.766 300.314C294.617 300.303 294.467 300.324 294.326 300.376C294.186 300.429 294.059 300.511 293.954 300.618C293.849 300.725 293.768 300.853 293.718 300.995C293.668 301.136 293.65 301.286 293.664 301.435C293.641 301.597 293.657 301.762 293.709 301.916C293.762 302.071 293.849 302.211 293.966 302.326C294.082 302.44 294.224 302.526 294.379 302.576C294.535 302.626 294.7 302.639 294.861 302.613C295.015 302.63 295.17 302.611 295.316 302.557C295.461 302.504 295.592 302.418 295.698 302.306C295.805 302.194 295.884 302.059 295.93 301.911C295.976 301.763 295.987 301.607 295.963 301.454V301.492ZM279.053 291.821C278.293 291.821 277.97 292.258 277.97 292.98C277.97 293.702 278.331 294.139 279.091 294.044C279.395 294.025 279.68 293.89 279.889 293.668C280.097 293.446 280.213 293.152 280.212 292.847C280.231 292.049 279.737 291.764 279.053 291.783V291.821ZM284.487 302.005C283.708 302.005 283.518 302.575 283.518 303.24C283.518 303.905 283.841 304.418 284.544 304.399C285.247 304.38 285.532 303.867 285.494 303.164C285.456 302.461 285.209 301.986 284.487 301.967V302.005ZM265.354 292.79C265.219 292.774 265.083 292.786 264.953 292.828C264.824 292.87 264.706 292.939 264.606 293.032C264.506 293.124 264.428 293.237 264.377 293.363C264.326 293.488 264.302 293.624 264.309 293.759C264.304 293.91 264.329 294.06 264.383 294.2C264.437 294.34 264.519 294.469 264.624 294.577C264.728 294.685 264.854 294.771 264.992 294.83C265.131 294.888 265.28 294.918 265.43 294.918C265.717 294.908 265.989 294.785 266.185 294.574C266.381 294.364 266.485 294.085 266.475 293.797C266.465 293.51 266.341 293.239 266.131 293.043C265.921 292.847 265.641 292.742 265.354 292.752V292.79ZM275.329 297.388C275.329 297.106 275.217 296.836 275.017 296.636C274.818 296.436 274.547 296.324 274.265 296.324C273.983 296.324 273.712 296.436 273.513 296.636C273.313 296.836 273.201 297.106 273.201 297.388C273.087 298.072 273.562 298.338 274.189 298.357C274.332 298.376 274.477 298.365 274.615 298.323C274.753 298.281 274.881 298.209 274.989 298.114C275.097 298.018 275.183 297.901 275.242 297.769C275.301 297.637 275.33 297.495 275.329 297.35V297.388Z" fill="#F4B77D"/>
<path d="M281.788 36.8222C279.375 36.3282 278.349 34.6182 279.546 32.4712C280.649 30.8137 281.596 29.0583 282.377 27.2272C282.617 26.6763 283.005 26.2027 283.498 25.8592C290.281 20.6722 286.728 18.6772 287.621 17.6702C288.02 17.1952 288.628 17.4042 289.141 17.5182C295.772 18.9812 295.392 23.7502 297.52 26.9042C297.637 27.1202 297.698 27.3618 297.698 27.6072C297.698 27.8526 297.637 28.0941 297.52 28.3102C296.418 29.6402 297.026 30.7802 297.653 32.1102C297.876 32.7264 297.97 33.382 297.927 34.036C297.885 34.69 297.707 35.3281 297.406 35.9102C297.253 36.3277 296.957 36.6781 296.572 36.9003C296.187 37.1225 295.736 37.2025 295.297 37.1262C291.706 36.9932 283.555 37.1642 281.788 36.8222Z" fill="#F4B77D"/>
<path d="M336.09 134.558C336.052 135.041 335.883 135.505 335.602 135.9C335.321 136.295 334.938 136.606 334.494 136.8C328.585 139.517 322.885 142.728 316.862 145.236C315.969 145.597 314.962 145.844 314.126 146.186C312.511 146.794 312.112 145.103 311.39 144.286C311.253 144.13 311.155 143.943 311.103 143.742C311.051 143.54 311.047 143.33 311.091 143.126C311.135 142.923 311.227 142.733 311.358 142.572C311.489 142.41 311.656 142.282 311.846 142.196C317.356 138.795 322.106 134.349 327.616 130.967C329.003 130.112 330.371 129.219 331.72 128.307C334.532 126.407 334.893 131.1 336.09 134.558Z" fill="#F4B77D"/>
<path d="M274.854 121.182C273.395 119.013 271.441 117.222 269.154 115.957C269.971 115.596 270.37 115.064 270.047 114.285C269.978 114.105 269.844 113.958 269.671 113.874C269.498 113.789 269.3 113.773 269.116 113.829C268.242 114.076 268.413 114.779 268.451 115.425C267.299 114.828 266.188 114.156 265.126 113.411C264.271 112.708 263.549 112.67 262.846 113.411C262.479 113.778 262.005 114.019 261.492 114.098C260.98 114.176 260.455 114.089 259.996 113.848C258.837 113.43 255.892 111.948 253.992 112.594C253.737 112.691 253.464 112.731 253.192 112.712C252.92 112.694 252.655 112.617 252.416 112.488C252.176 112.358 251.967 112.178 251.803 111.96C251.639 111.743 251.523 111.492 251.465 111.226C251.294 110.713 251.218 110.143 250.382 110.39C249.546 110.637 248.9 110.941 248.71 109.478C248.558 108.414 247.76 109.63 246.981 109.706C246.81 106.514 249.641 109.098 253.251 107.179C254.296 106.628 255.265 107.331 255.683 108.433C256.101 109.535 256.139 109.611 257.241 109.174C258.489 108.812 259.758 108.527 261.041 108.319C261.259 108.233 261.492 108.191 261.727 108.195C261.962 108.198 262.193 108.249 262.408 108.342C262.624 108.436 262.818 108.571 262.982 108.74C263.145 108.908 263.273 109.108 263.359 109.326C263.872 110.523 267.349 109.668 274.607 114.437C275.139 114.779 275.728 115.064 274.911 115.729C274.788 115.796 274.685 115.895 274.614 116.015C274.542 116.136 274.505 116.273 274.505 116.413C274.505 116.553 274.542 116.691 274.614 116.811C274.685 116.931 274.788 117.03 274.911 117.097C275.633 117.743 276.108 117.097 276.602 116.242C277.177 116.582 277.648 117.074 277.963 117.664C278.278 118.254 278.425 118.919 278.388 119.586C278.388 120.346 278.977 120.707 279.281 121.258C279.876 122.224 280.409 123.227 280.877 124.26C281.105 124.83 282.131 125.875 280.364 125.97C280.003 125.97 279.965 126.445 280.06 126.787C280.08 126.882 280.123 126.971 280.186 127.045C280.249 127.119 280.329 127.176 280.419 127.212C280.509 127.248 280.607 127.261 280.703 127.249C280.8 127.238 280.892 127.204 280.972 127.148C282.074 126.274 282.302 127.281 282.701 127.889C283.206 128.732 283.506 129.683 283.575 130.663C283.575 131.157 283.841 131.841 283.119 132.05C281.219 132.639 281.333 129.485 277.685 124.45C277.21 123.785 275.595 122.55 277.077 122.645C277.609 122.645 278.046 122.531 278.046 121.885C278.063 121.693 278.009 121.501 277.893 121.346C277.777 121.192 277.608 121.086 277.419 121.049C276.83 120.935 276.507 121.277 276.431 121.828C276.184 122.968 274.987 121.41 274.854 121.182ZM261.231 109.915C261.126 109.891 261.017 109.89 260.911 109.911C260.806 109.933 260.706 109.976 260.619 110.039C260.532 110.102 260.459 110.183 260.405 110.276C260.351 110.369 260.317 110.473 260.306 110.58C260.296 110.687 260.308 110.795 260.342 110.897C260.376 110.999 260.431 111.093 260.504 111.172C260.577 111.251 260.666 111.314 260.765 111.356C260.864 111.398 260.971 111.418 261.079 111.416C261.264 111.412 261.442 111.341 261.578 111.215C261.714 111.089 261.8 110.917 261.819 110.733C261.837 110.548 261.788 110.363 261.68 110.213C261.571 110.062 261.412 109.956 261.231 109.915Z" fill="#F4B77D"/>
<path d="M312.948 44.4982C313.027 44.1872 313.184 43.9013 313.404 43.6674C313.624 43.4334 313.899 43.259 314.205 43.1603C314.51 43.0617 314.836 43.042 315.151 43.1032C315.466 43.1644 315.76 43.3044 316.007 43.5102C318.056 44.652 319.667 46.4435 320.586 48.6022C321.707 50.8252 317.09 52.5542 314.639 53.0102C312.188 53.4662 310.098 50.1222 312.948 44.4982Z" fill="#F4B77D"/>
<path d="M308.863 64.7902C308.255 64.7902 307.457 65.0562 307.191 64.2012C306.925 63.3462 307.78 63.1182 308.274 62.8142C310.345 61.6172 325.013 54.2642 325.203 54.1692C325.963 53.7702 327.103 52.7252 327.749 53.9222C328.395 55.1192 327.122 55.6132 326.4 56.1832C322.714 59.1472 309.547 64.8662 308.863 64.7902Z" fill="#F4B77D"/>
<path d="M269.799 141.208C270.173 141.166 270.552 141.2 270.913 141.307C271.274 141.415 271.609 141.595 271.898 141.835C272.188 142.076 272.426 142.372 272.598 142.707C272.77 143.042 272.872 143.408 272.899 143.784C272.926 144.159 272.877 144.536 272.754 144.892C272.632 145.248 272.439 145.576 272.186 145.855C271.934 146.135 271.628 146.36 271.286 146.518C270.945 146.676 270.575 146.764 270.198 146.775C266.55 146.718 265.999 141.17 269.799 141.208Z" fill="#F4B77D"/>
<path d="M242.326 143.488C243.087 143.536 243.805 143.856 244.349 144.39C244.894 144.924 245.228 145.636 245.29 146.395C245.204 147.011 244.94 147.588 244.532 148.057C244.124 148.526 243.589 148.866 242.991 149.036C238.507 149.131 239.02 143.393 242.326 143.488Z" fill="#F4B77D"/>
<path d="M310.554 147.459C310.55 148.12 310.291 148.754 309.83 149.228C309.37 149.703 308.745 149.981 308.084 150.005C307.755 149.997 307.431 149.921 307.132 149.784C306.833 149.646 306.565 149.449 306.345 149.205C306.124 148.961 305.955 148.674 305.848 148.363C305.741 148.052 305.699 147.722 305.724 147.394C305.748 147.065 305.839 146.745 305.991 146.453C306.142 146.161 306.352 145.903 306.606 145.694C306.861 145.485 307.155 145.33 307.471 145.239C307.787 145.147 308.119 145.12 308.445 145.16C309.017 145.221 309.546 145.487 309.935 145.911C310.323 146.334 310.544 146.885 310.554 147.459Z" fill="#F4B77D"/>
<path d="M178.6 145.426C177.023 145.426 176.244 145.616 176.206 144.704C176.168 143.792 177.099 144.02 177.612 143.944C178.641 143.846 179.676 143.814 180.709 143.849C181.678 143.849 181.754 144.989 180.823 145.122L178.6 145.426Z" fill="#F4B77D"/>
<path d="M246.639 360.639C245.309 360.639 243.732 357.2 245.556 357.162C246.278 357.2 248.9 360.506 246.639 360.639Z" fill="#F4B77D"/>
<path d="M244.663 360.753C244.663 361.57 244.53 362.064 243.789 361.988C242.554 361.893 242.25 360.943 242.079 359.955C242.079 359.271 242.326 358.701 243.067 358.777C244.302 358.929 244.435 359.993 244.663 360.753Z" fill="#F4B77D"/>
<path d="M177.117 161.5C177.22 161.484 177.325 161.49 177.426 161.516C177.526 161.542 177.621 161.589 177.703 161.653C177.785 161.717 177.852 161.797 177.902 161.889C177.952 161.98 177.982 162.081 177.991 162.184C177.991 162.83 177.535 162.963 177.041 163.039C175.388 163.286 173.849 163.723 173.792 162.526C173.754 161.747 174.305 161.861 177.117 161.5Z" fill="#F4B77D"/>
<path d="M189.05 161.747C188.865 161.771 188.678 161.727 188.524 161.622C188.37 161.517 188.259 161.358 188.214 161.177C188.062 160.569 188.575 160.417 188.974 160.341C190.171 160.113 192.774 159.201 192.774 160.512C192.679 161.177 192.299 161.082 189.05 161.747Z" fill="#F4B77D"/>
<path d="M181.602 162.659C180.538 162.659 180.386 161.424 181.298 161.253C182.21 161.082 183.312 160.93 184.319 160.835C184.513 160.808 184.71 160.859 184.866 160.976C185.023 161.094 185.127 161.268 185.155 161.462C185.269 162.127 184.946 162.051 181.602 162.659Z" fill="#F4B77D"/>
<path d="M283.936 363.28C283.478 363.143 283.071 362.873 282.766 362.504C282.462 362.136 282.274 361.685 282.226 361.209C282.226 360.601 282.492 360.335 283.1 360.392C283.604 360.392 284.087 360.592 284.443 360.949C284.8 361.305 285 361.788 285 362.292C285 362.9 284.582 363.185 283.936 363.28Z" fill="#F4B77D"/>
<path d="M168.833 163.742C167.845 163.742 166.667 163.913 166.686 163.001C166.686 162.488 167.123 162.488 167.503 162.45C169.232 162.241 170.467 161.766 170.657 162.659C170.847 163.552 170.201 163.571 169.65 163.685C169.381 163.734 169.107 163.753 168.833 163.742Z" fill="#F4B77D"/>
<path d="M163.399 160.987C163.41 160.577 163.467 160.169 163.57 159.771C164.045 158.517 165.47 159.999 164.957 162.564C164.917 162.725 164.82 162.866 164.683 162.96C164.547 163.055 164.381 163.096 164.216 163.077C163.266 163.039 163.399 161.937 163.399 160.987Z" fill="#F4B77D"/>
<path d="M192.679 147.06C192.945 146.338 192.28 145.027 193.344 145.008C194.408 144.989 194.028 146.3 194.009 147.003C193.99 147.706 194.541 149.169 193.401 149.169C192.261 149.169 192.983 147.782 192.679 147.06Z" fill="#F4B77D"/>
<path d="M185.801 144.4C184.87 144.4 184.015 144.552 183.901 143.849C183.787 143.146 185.06 143.127 185.421 143.07C186.238 142.937 187.473 142.329 187.606 143.45C187.853 144.951 186.314 144.115 185.801 144.4Z" fill="#F4B77D"/>
<path d="M163.039 152.608C163.932 153.159 163.761 154.147 164.084 154.869C164.654 156.142 163.229 156.56 162.906 156.047C162.624 155.589 162.443 155.075 162.374 154.542C162.305 154.008 162.351 153.465 162.507 152.95C162.564 152.817 162.83 152.741 163.039 152.608Z" fill="#F4B77D"/>
<path d="M162.031 146.813C162.658 146.965 162.791 147.611 162.924 148.143C163.057 148.675 163.684 149.435 162.924 150.043C162.871 150.104 162.805 150.152 162.731 150.186C162.658 150.219 162.578 150.236 162.497 150.236C162.416 150.236 162.336 150.219 162.262 150.186C162.189 150.152 162.123 150.104 162.069 150.043C161.744 149.615 161.513 149.123 161.391 148.599C161.27 148.075 161.262 147.531 161.366 147.003C161.499 146.889 161.689 146.775 162.031 146.813Z" fill="#F4B77D"/>
<path d="M171 145.844C170.449 145.521 169.366 146.338 169.328 145.255C169.328 144.59 170.335 144.514 170.905 144.552C171.475 144.59 173.204 143.906 173.261 145.008C173.318 146.11 171.855 145.54 171 145.844Z" fill="#F4B77D"/>
<path d="M286.14 360.354C285.323 360.354 283.974 358.036 285.76 358.074C286.672 358.074 287.356 358.435 287.451 359.442C287.508 360.012 287.261 360.411 286.14 360.354Z" fill="#F4B77D"/>
<path d="M193.077 152.95C193.077 151.981 192.906 151.05 193.571 151.05C193.709 151.031 193.848 151.064 193.964 151.141C194.079 151.218 194.162 151.334 194.198 151.468C194.314 151.882 194.365 152.311 194.35 152.741C194.35 153.425 194.749 154.641 193.761 154.641C192.773 154.641 193.267 153.425 193.077 152.95Z" fill="#F4B77D"/>
<path d="M191.9 144.191C191.406 143.887 190.304 144.685 190.304 143.564C190.304 142.443 191.368 142.823 192.014 142.88C192.66 142.937 193.914 142.405 193.914 143.336C193.914 144.267 192.641 144.058 191.9 144.191Z" fill="#F4B77D"/>
<path d="M165.3 146.148C164.692 145.958 163.59 146.433 163.609 145.692C163.628 144.951 164.711 144.97 165.509 145.046C166.307 145.122 167.238 144.552 167.219 145.521C167.2 146.49 165.813 145.92 165.3 146.148Z" fill="#F4B77D"/>
<path d="M194.408 158.327C194.237 158.897 194.693 159.809 193.743 159.771C192.793 159.733 193.135 158.783 193.116 158.213C193.097 157.643 192.926 156.731 193.667 156.731C194.731 156.731 194.18 157.795 194.408 158.327Z" fill="#F4B77D"/>
<path d="M121.601 85.5012C121.411 89.5101 123.786 96.0272 118.01 106.401C116.892 108.147 115.366 109.594 113.564 110.619C111.008 112.503 107.961 113.606 104.791 113.794C101.622 113.983 98.4656 113.25 95.704 111.683C92.094 109.783 85.634 102.772 82.404 92.5501C81.9538 90.6692 81.5987 88.7668 81.34 86.8502C81.017 85.3111 82.043 84.0761 82.157 82.6132C82.404 79.8011 82.404 76.9131 82.613 74.1581C83.316 65.0191 83.62 54.3411 86.603 13.7381C86.7617 13.0615 87.1448 12.4585 87.6899 12.0272C88.2349 11.596 88.9099 11.3619 89.605 11.3631C96.255 11.0211 118.314 13.5101 123.406 13.2631C125.401 13.0731 124.869 11.6291 121.601 85.5012Z" fill="#FADF8F"/>
<path d="M197.981 82.9741C197.981 84.5321 198.266 85.6911 196.936 86.3181C195.469 92.6993 193.401 98.9274 190.761 104.919C190.08 106.496 189.037 107.891 187.716 108.99C186.396 110.089 184.836 110.862 183.161 111.246C177.613 112.367 173.357 112.082 170.716 106.192C167.429 98.9151 164.37 91.4671 164.142 83.1831C163.971 77.1791 163.154 71.1941 162.641 65.2091C158.328 14.0801 159.069 15.9231 158.157 13.9091C157.72 12.9781 158.48 12.4461 159.354 12.1611C163.914 10.6601 174.421 10.7171 179.247 10.9261C179.437 10.9261 189.83 11.6671 190.077 14.0421C190.685 19.0011 197.696 80.2571 197.981 82.9741Z" fill="#FADF8F"/>
<path d="M289.219 159.867C288.478 161.33 287.851 162.527 287.319 163.667C285.875 166.707 281.163 165.757 275.102 165.985C274.72 165.979 274.349 165.857 274.038 165.637C273.726 165.417 273.488 165.108 273.354 164.75C271.036 160.171 273.734 156.561 277.002 152.476C279.415 149.474 284.716 149.284 285.248 146.776C285.539 145.677 285.711 144.549 285.761 143.413C285.83 142.738 285.629 142.063 285.202 141.536C284.774 141.009 284.156 140.673 283.481 140.601C277.268 139.917 276.983 141.551 271.568 137.143C269.421 135.395 268.091 132.127 267.084 132.089C264.405 132.089 263.132 130.189 261.859 128.175C257.888 122.057 258.154 117.611 255.912 120.195C254.187 122.218 252.678 124.414 251.409 126.75C250.548 128.604 249.018 130.065 247.127 130.84C245.235 131.615 243.12 131.647 241.206 130.93C240.898 130.855 240.577 130.846 240.266 130.904C239.954 130.961 239.657 131.083 239.396 131.262C239.134 131.441 238.913 131.673 238.747 131.944C238.581 132.214 238.474 132.516 238.432 132.83C237.653 137.124 238.432 150.557 238.432 154.167C238.406 154.463 238.457 154.76 238.58 155.03C238.703 155.299 238.894 155.533 239.135 155.706C240.902 156.941 242.327 158.594 244.189 159.715C244.949 160.19 245.823 159.924 246.659 160.133C249.186 160.798 251.333 162.432 253.936 162.85C255.836 163.154 256.52 162.85 256.634 163.762C256.678 164.064 256.6 164.371 256.419 164.617C256.238 164.862 255.967 165.026 255.665 165.073C253.768 165.38 251.828 165.296 249.965 164.826C247.25 164.494 244.693 163.37 242.612 161.596C241.966 161.064 241.377 160.551 240.427 161.444C239.477 162.337 238.527 161.444 238.204 160.646C236.986 158.456 236.272 156.022 236.114 153.521C236.114 148.049 235.734 142.577 235.886 137.124C236.052 136.158 235.947 135.165 235.581 134.256C235.215 133.346 234.604 132.557 233.815 131.975C230.319 129.163 230.205 124.831 230.718 120.708C231.042 117.74 232.219 114.929 234.108 112.615C235.996 110.302 238.514 108.586 241.358 107.674C247.153 105.413 244.284 102.905 260.092 99.0481C263.452 98.1003 267 98.0414 270.39 98.8771C274.456 100.074 278.997 100.777 281.79 104.843C284.279 108.491 291.499 113.906 293.589 132.602C295.394 148.79 296.287 155.193 292.981 162.622C292.626 163.408 292.044 164.07 291.309 164.522C290.872 164.769 290.454 165.111 289.96 164.807C288.801 164.161 290.511 163.401 289.219 159.867ZM282.721 133.97C283.05 131.409 282.777 128.807 281.923 126.37C280.278 120.093 276.213 114.723 270.618 111.436C269.139 110.406 267.43 109.753 265.64 109.536C265.34 109.564 265.037 109.512 264.764 109.385C264.49 109.258 264.255 109.061 264.082 108.814C263.17 106.914 261.593 107.047 260.092 107.693C259.283 108.146 258.343 108.31 257.428 108.158C256.513 108.006 255.677 107.547 255.057 106.857C254.297 106.135 252.91 105.375 252.017 106.42C251.184 107.373 250.039 108 248.787 108.187C248.063 108.403 247.358 108.676 246.678 109.004C246.127 109.232 245.348 109.897 245.557 110.581C245.766 111.265 246.488 110.581 246.982 110.581C248.597 110.581 250.402 110.087 251.485 111.702C251.828 112.26 252.374 112.663 253.009 112.826C253.643 112.989 254.316 112.9 254.886 112.576C256.596 111.93 259.788 115.255 262.942 113.678C263.342 113.498 263.786 113.436 264.22 113.5C264.655 113.564 265.062 113.751 265.393 114.039C272.233 118.175 277.664 124.281 280.973 131.557C281.398 132.464 281.991 133.283 282.721 133.97Z" fill="#FADF8F"/>
<path d="M283.1 208.412L290.073 201.876C290.871 201.135 290.358 200.888 288.306 195.929C288.059 195.321 287.356 194.523 288.306 194.029C289.256 193.535 289.484 194.561 289.826 195.131C292.315 199.368 292.011 200.223 293.246 198.931C294.481 197.639 295.963 196.879 296.476 195.549C296.989 194.219 295.222 192.87 294.576 191.426C294.386 190.932 294.044 190.495 293.816 190.001C293.265 188.88 292.714 188.101 291.365 189.222C291.272 189.325 291.156 189.405 291.027 189.456C290.897 189.506 290.758 189.526 290.62 189.513C290.481 189.5 290.348 189.455 290.23 189.381C290.112 189.308 290.013 189.208 289.94 189.089C289.218 187.854 292.961 187.626 290.928 184.947C290.134 183.74 289.441 182.469 288.857 181.147C288.777 181.053 288.717 180.945 288.681 180.827C288.644 180.709 288.631 180.586 288.644 180.463C288.656 180.341 288.693 180.222 288.753 180.114C288.813 180.006 288.893 179.912 288.99 179.836C289.541 179.418 289.959 179.836 290.225 180.197C291.175 181.451 292.125 182.724 292.961 183.997C293.455 184.776 293.835 184.776 294.443 184.168C298.015 180.615 298.756 180.786 297.977 179.494C296.077 176.416 295.507 175.694 296.248 175.067C296.989 174.44 297.179 175.238 297.464 175.599C299.725 178.468 299.763 179.665 300.789 178.487C301.052 178.214 301.361 177.989 301.701 177.822C302.157 177.537 302.632 177.442 303.012 177.917C303.138 178.1 303.197 178.321 303.18 178.542C303.163 178.763 303.07 178.972 302.917 179.133C302.328 179.912 301.264 180.254 301.378 180.919C302.363 182.924 303.533 184.833 304.874 186.619C305.349 187.36 305.748 187.379 306.375 186.752C307.002 186.125 308.142 185.137 309.035 184.339C309.548 183.883 310.175 183.446 310.764 183.997C311.353 184.548 310.764 185.251 310.403 185.688C307.496 188.747 306.318 188.766 307.154 190.153C308.56 192.547 309.909 194.96 311.258 197.392C311.752 198.304 312.208 198.779 313.158 197.848C313.746 197.402 314.384 197.026 315.058 196.727C315.362 196.575 315.685 196.442 315.951 196.727C316.217 197.012 315.951 197.468 315.704 197.715C315.113 198.255 314.477 198.744 313.804 199.178C312.968 199.672 312.816 200.09 313.405 200.945C314.488 202.56 315.457 204.289 316.445 205.98C316.711 206.436 317.11 207.044 316.559 207.443C316.008 207.842 315.533 207.234 315.229 206.816C314.127 205.277 313.025 203.719 312.018 202.123C311.467 201.249 310.973 201.192 310.118 201.819C306.318 204.916 305.14 204.973 306.033 206.341C309.928 212.288 309.396 212.554 310.631 211.68C312.17 210.578 313.709 209.457 315.286 208.393C315.761 208.07 316.35 207.595 316.844 208.393C317.338 209.191 316.673 209.362 316.236 209.685C314.697 210.901 313.177 212.117 311.6 213.295C310.346 214.226 311.011 214.15 315.001 221.028C315.286 221.503 315.799 222.168 315.001 222.586C314.203 223.004 313.804 222.586 313.405 221.921C312.151 220.021 310.821 218.292 309.605 216.411C308.389 214.53 308.332 216.164 303.335 219.299C300.789 220.914 304.475 222.263 302.917 223.232C302.1 223.726 301.587 223.023 301.264 222.377C300.162 220.192 299.041 222.928 298.186 221.617C298.125 221.525 298.084 221.421 298.068 221.311C298.052 221.202 298.061 221.09 298.094 220.984C298.127 220.879 298.183 220.782 298.258 220.7C298.333 220.619 298.425 220.556 298.528 220.515C299.744 219.869 299.288 219.09 298.832 218.235C296.267 213.447 296.457 212.25 295.032 213.409C294.139 214.093 290.13 216.962 289.142 217.494C288.591 217.798 287.983 218.045 287.546 217.494C287.109 216.943 287.679 216.392 288.192 216.088C290.282 214.891 292.106 213.333 294.12 212.041C295.165 211.376 295.374 210.768 294.747 209.685C291.517 204.118 291.707 202.655 290.377 203.985C288.477 205.885 286.577 207.633 284.525 209.419C284.403 209.505 284.3 209.616 284.223 209.744C284.146 209.871 284.096 210.014 284.076 210.162C284.056 210.31 284.067 210.461 284.109 210.604C284.15 210.748 284.221 210.881 284.316 210.996C285.124 212.59 285.829 214.233 286.425 215.917C286.634 216.354 286.729 216.734 286.292 217.057C285.019 218.007 283.651 214.511 283.005 213.048C281.998 210.768 280.972 212.649 280.193 213.048C279.414 213.447 279.015 213.96 278.483 213.238C277.951 212.516 278.977 212.44 279.262 212.117C281.637 209.457 281.523 210.73 280.269 207.291C279.509 205.258 278.578 203.301 277.78 201.268C277.4 200.337 276.982 200.128 276.127 200.812C275.272 201.496 273.828 202.465 272.669 203.263C272.118 203.624 271.434 204.061 270.921 203.415C270.408 202.769 271.016 202.199 271.529 201.819C272.764 200.85 273.999 199.919 275.329 198.988C275.526 198.902 275.702 198.773 275.844 198.612C275.987 198.451 276.092 198.261 276.154 198.055C276.215 197.849 276.231 197.632 276.2 197.419C276.17 197.206 276.093 197.002 275.975 196.822C275.655 196.016 275.382 195.191 275.158 194.352C275.116 194.266 275.093 194.171 275.092 194.075C275.09 193.979 275.11 193.884 275.15 193.797C275.19 193.709 275.249 193.632 275.323 193.57C275.397 193.509 275.483 193.464 275.576 193.44C275.956 193.326 276.184 193.611 276.336 193.915C278.464 198.019 277.305 197.43 281.656 194.504C282.157 194.181 282.685 193.901 283.233 193.668C283.784 193.44 284.392 193.44 284.658 193.991C284.924 194.542 284.563 194.789 279.756 198.209C278.008 199.615 279.585 199.311 283.1 208.412ZM310.403 199.957C310.042 199.007 311.011 200.869 305.501 191.464C305.178 190.932 304.912 190.97 304.494 191.35C303.145 192.604 301.777 193.82 300.39 195.15C299.554 195.929 299.82 195.397 304.418 203.586C304.779 204.251 305.064 204.27 305.634 203.833C307.326 202.703 308.898 201.405 310.327 199.957H310.403ZM302.803 205.657C296.78 195.682 299.098 196.898 294.006 200.812C293.857 200.913 293.73 201.043 293.632 201.193C293.534 201.344 293.467 201.513 293.435 201.69C293.403 201.867 293.407 202.049 293.447 202.224C293.486 202.4 293.56 202.566 293.664 202.712C297.35 209.571 296.932 210.122 298.053 209.305C303.183 205.619 302.1 206.493 302.822 205.638L302.803 205.657ZM307.895 213.656C307.648 213.181 304.342 208.108 304.209 207.956C303.544 206.93 303.183 207.804 298.699 211.053C298.589 211.107 298.491 211.183 298.411 211.276C298.33 211.37 298.27 211.478 298.233 211.595C298.195 211.712 298.182 211.836 298.194 211.958C298.205 212.08 298.242 212.199 298.3 212.307L300.979 218.007C301.207 218.482 301.454 218.691 301.967 218.311C307.8 213.941 307.99 214.188 307.914 213.637L307.895 213.656ZM303.791 188.956C301.796 185.973 301.055 184.928 300.295 183.617C299.174 181.717 298.547 183.617 295.146 186.448C294.633 186.885 294.709 187.208 294.975 187.664C296.02 189.374 297.046 191.103 298.091 192.794C298.452 193.402 298.851 193.668 299.497 193.06C304.399 188.538 303.24 190.001 303.81 188.975L303.791 188.956Z" fill="#FADF8F"/>
<path d="M213.865 193.174C210.065 193.174 211.015 192.984 211.262 200.641C211.262 202.541 212.478 201.762 219.584 199.957C220.667 199.691 219.812 198.342 220.534 196.157C220.571 195.94 220.691 195.746 220.868 195.615C221.045 195.484 221.265 195.426 221.484 195.454C222.073 195.454 222.13 195.967 222.111 196.423C222.13 196.638 222.13 196.854 222.111 197.069C221.845 198.722 222.282 199.691 224.201 199.349C224.528 199.302 224.862 199.341 225.17 199.463C225.455 199.558 225.873 199.577 225.93 199.957C225.987 200.337 225.645 200.508 225.398 200.698C224.766 201.141 224.002 201.355 223.232 201.306C222.529 201.306 222.035 201.534 222.187 202.351C222.928 206.322 221.484 209.78 224.087 208.716C229.787 206.398 231.288 207.063 230.68 205.144C230.444 204.142 230.266 203.127 230.148 202.104C229.996 201.287 229.768 200.204 230.794 200.052C232.124 199.748 231.953 201.04 232.162 201.781C232.998 204.821 232.409 205.904 234.062 205.429C239.439 203.89 240.123 204.346 239.762 202.484C239.366 200.509 239.207 198.493 239.287 196.48C239.287 195.929 239.287 195.245 239.99 195.188C240.693 195.131 240.693 195.929 240.769 196.385C241.814 202.978 241.187 203.396 242.669 203.624C243.771 203.814 243.847 204.631 242.973 205.201C241.776 205.98 242.156 206.493 242.707 211.319C242.707 211.813 243.163 212.478 242.365 212.668C242.217 212.707 242.062 212.714 241.911 212.688C241.76 212.662 241.617 212.604 241.491 212.517C241.364 212.43 241.258 212.318 241.18 212.186C241.101 212.055 241.052 211.908 241.035 211.756C240.826 210.746 240.674 209.724 240.579 208.697C240.161 205.03 240.256 206.208 234.442 207.519C234.252 207.533 234.068 207.591 233.905 207.689C233.742 207.787 233.604 207.921 233.502 208.082C233.401 208.243 233.338 208.425 233.32 208.615C233.302 208.804 233.328 208.995 233.397 209.172C234.575 215.556 234.195 216.772 236.114 216.126C236.969 215.86 238.489 215.499 238.698 216.582C238.907 217.665 237.406 217.418 236.589 217.684C235.772 217.95 235.069 217.855 234.803 218.805C234.803 219.109 234.328 219.223 233.967 219.147C230.547 218.406 227.469 220.059 224.239 220.515C222.852 220.705 224.353 222.833 223.023 223.137C222.875 223.179 222.719 223.185 222.568 223.155C222.416 223.126 222.274 223.062 222.153 222.967C222.031 222.873 221.933 222.752 221.866 222.613C221.799 222.474 221.766 222.322 221.769 222.168C221.56 220.268 219.147 222.016 219.109 220.724C219.109 220.173 219.622 220.192 219.945 220.154C221.427 220.002 221.37 219.147 221.161 217.969C219.888 210.844 223.061 211.338 213.124 214.492C212.098 214.796 211.661 214.492 210.958 213.447C208.507 209.647 210.806 203.947 207.709 204.593C205.068 205.22 203.187 206.151 202.883 204.973C202.712 204.346 203.225 203.985 203.757 203.776C205.035 203.171 206.401 202.773 207.804 202.598C208.716 202.598 209.039 202.104 209.001 201.23C209.001 199.007 209.001 196.784 208.716 194.561C208.488 192.927 208.146 193.497 202.484 193.763C201.819 193.763 201.762 194.219 201.667 194.732C201.135 197.867 201.458 198.532 201.116 200.432C200.888 201.667 199.463 201.534 199.463 200.242C199.356 198.775 199.439 197.299 199.71 195.853C200.565 192.243 195.796 195.549 195.758 193.155C195.758 191.844 197.297 192.186 198.152 192.262C199.71 192.395 200.223 191.711 200.394 190.362C200.651 188.957 200.987 187.568 201.401 186.201C201.401 185.802 201.705 185.289 202.275 185.46C202.845 185.631 202.864 186.277 202.275 190.571C202.142 191.502 202.389 192.015 203.472 191.901C204.973 191.768 206.493 191.692 208.013 191.616C209.134 191.616 208.849 191.046 209.134 186.98C209.134 186.467 208.963 185.745 209.799 185.745C210.635 185.745 210.407 186.391 210.445 186.866C210.559 187.987 210.711 189.127 210.749 190.267C210.749 192.813 212.421 190.267 215.898 191.54C216.43 191.73 217.019 191.863 216.905 192.585C216.791 193.307 215.784 193.174 213.865 193.174ZM232.656 216.411C232.295 214.264 231.896 212.136 231.611 209.989C231.326 207.842 230.338 209.039 223.783 211.034C222.244 211.509 222.909 212.117 223.422 218.121C223.422 218.881 223.84 219.033 224.505 218.881C232.808 217.057 232.846 217.285 232.656 216.411ZM220.401 206.55C220.409 205.368 220.333 204.187 220.173 203.016C220.173 202.009 219.755 202.047 218.957 202.237C216.829 202.857 214.665 203.346 212.478 203.7C210.578 203.89 211.49 205.049 211.908 211.718C211.908 212.763 212.383 212.896 213.257 212.554C220.686 209.609 220.401 210.901 220.401 206.55Z" fill="#FADF8F"/>
<path d="M266.001 42.8269C265.87 43.5831 265.513 44.2819 264.977 44.8313C264.441 45.3807 263.751 45.755 262.999 45.9049C261.555 46.2279 261.365 44.9549 260.985 44.0049C253.48 26.1449 250.307 26.2019 254.012 24.2829C255.239 23.7206 256.432 23.0862 257.584 22.3829C258.496 21.7559 259.37 22.0219 259.636 23.0669C261.365 29.7739 264.88 37.2789 266.001 42.8269Z" fill="#FADF8F"/>
<path d="M243.752 190.267C243.825 191.049 243.654 191.834 243.263 192.514C242.872 193.195 242.28 193.737 241.567 194.067C240.579 194.599 239.8 194.371 239.667 193.117C239.401 184.966 235.601 178.772 231.801 171.381C231.269 170.336 232.124 169.69 232.656 169.177C233.188 168.664 233.967 168.968 234.442 169.671C239.116 176.568 242.536 182.401 243.752 190.267Z" fill="#FADF8F"/>
<path d="M279.567 181.014C278.807 180.521 278.16 179.874 277.667 179.114C277.116 178.392 276.812 177.214 276.033 177.062C275.254 176.91 274.608 178.639 271.226 180.862C268.908 182.344 273.373 184.016 271.093 185.289C269.915 185.973 269.459 184.681 269.079 183.807C268.699 182.933 268.034 182.914 267.293 183.427C265.83 184.453 263.683 186.277 262.999 184.814C262.657 184.092 263.475 184.016 264.026 183.617C265.071 182.857 266.553 182.325 267.085 181.28C267.617 180.235 266.172 179.133 265.906 177.936C265.811 177.556 265.051 176.34 266.096 176.036C266.59 175.865 266.894 176.207 267.122 176.625C267.654 177.575 268.186 178.525 268.68 179.475C268.984 180.045 269.269 180.121 269.82 179.741C271.454 178.665 272.986 177.444 274.399 176.093C275.197 175.276 274.665 174.991 273.962 173.718C273.677 173.167 273.335 172.54 273.962 172.122C275.615 171.058 275.596 175.713 277.762 172.977C277.904 172.807 278.071 172.66 278.256 172.54C279.035 171.97 280.156 171.02 280.802 171.894C281.448 172.768 280.099 173.224 279.51 173.794C277.477 175.694 277.477 175.599 279.054 177.974C279.529 178.677 280.213 179.304 280.156 180.273C280.251 180.596 280.194 181.014 279.567 181.014Z" fill="#FADF8F"/>
<path d="M265.278 177.005C265.107 178.069 265.107 179.665 263.378 179.893C262.994 179.93 262.607 179.836 262.283 179.625C261.959 179.415 261.715 179.101 261.592 178.734C258.837 173.034 258.02 170.165 255.398 167.182C254.961 166.669 254.999 165.814 255.512 165.909C256.842 166.137 257.697 164.807 258.932 165.092C260.167 165.377 260.832 166.555 261.345 167.562C262.715 169.994 263.878 172.536 264.822 175.162C265.097 175.739 265.252 176.366 265.278 177.005Z" fill="#FADF8F"/>
<path d="M264.899 49.0399C264.899 45.2399 270.371 46.1709 270.352 49.2869C270.361 49.6622 270.293 50.0354 270.152 50.3833C270.01 50.7312 269.799 51.0463 269.531 51.309C269.263 51.5717 268.944 51.7764 268.593 51.9104C268.242 52.0444 267.868 52.1048 267.493 52.0878C267.118 52.0708 266.75 51.9768 266.413 51.8117C266.076 51.6465 265.776 51.4138 265.533 51.1279C265.289 50.842 265.108 50.5091 264.998 50.1499C264.889 49.7906 264.855 49.4128 264.899 49.0399Z" fill="#FADF8F"/>
<path d="M329.575 50.389C328.587 49.857 327.675 51.586 328.587 52.137C339.037 58.236 328.207 75.431 315.61 75.089C314.201 75.2326 312.777 75.0228 311.469 74.4785C310.16 73.9341 309.008 73.0725 308.116 71.9712C307.224 70.87 306.621 69.564 306.36 68.171C306.1 66.7781 306.19 65.3422 306.623 63.993C306.87 63.024 305.16 62.397 304.723 63.385C304.168 65.3388 304.161 67.4079 304.704 69.3652C305.247 71.3226 306.319 73.0926 307.801 74.481C309.311 75.6689 311.066 76.5053 312.94 76.9293C314.813 77.3533 316.758 77.3542 318.631 76.932C333.508 74.348 340.291 56.203 329.575 50.389Z" fill="#FADF8F"/>
<path d="M317.871 69.2177C320.626 69.2177 324.882 66.5007 324.483 63.3087C324.369 62.3777 323.818 62.2067 323.495 62.1877C322.849 62.1877 322.659 62.8147 322.583 63.1377C322.452 63.9061 322.137 64.6313 321.665 65.2514C321.193 65.8715 320.578 66.368 319.872 66.6985C319.166 67.029 318.391 67.1836 317.612 67.1492C316.833 67.1148 316.075 66.8923 315.401 66.5007C313.976 65.5507 312.494 69.0847 317.871 69.2177Z" fill="#FADF8F"/>
<path d="M53.3148 184.301C48.2038 180.501 43.4918 181.223 39.9008 187.056C32.3008 199.216 34.0868 210.407 38.1718 223.992C36.2265 222.656 34.0581 221.678 31.7688 221.104C30.6046 220.807 29.3898 220.768 28.2087 220.988C27.0276 221.207 25.9084 221.681 24.9288 222.377C20.6538 225.626 19.2288 230.262 19.4568 235.373C19.7335 239.114 20.6192 242.785 22.0788 246.241C26.6198 258.591 32.4338 259.541 33.2318 261.441C33.305 261.686 33.4269 261.913 33.59 262.11C33.7531 262.306 33.9542 262.468 34.1813 262.585C34.4083 262.702 34.6566 262.772 34.9113 262.791C35.166 262.81 35.422 262.777 35.6638 262.695C40.4991 261.997 45.2798 260.962 49.9708 259.598C53.3718 258.553 52.0418 258.173 52.0038 253.309C52.0038 245.709 52.4218 251.789 52.2698 213.656C52.1368 187.512 55.1008 185.612 53.3148 184.301ZM42.7888 256.121C42.732 256.467 42.5572 256.783 42.294 257.015C42.0308 257.247 41.6954 257.381 41.3448 257.394C40.5848 257.394 40.1478 256.805 39.7678 256.216C33.5168 246.241 32.0728 244.417 26.9238 232.067C26.6769 231.693 26.5701 231.244 26.6223 230.799C26.6744 230.354 26.8822 229.942 27.2088 229.635C29.4508 227.222 31.9968 239.781 41.9718 254.449C42.1618 254.696 42.8838 255.266 42.7888 256.102V256.121ZM51.5098 226.956C51.3936 227.093 51.2409 227.194 51.0693 227.248C50.8978 227.302 50.7145 227.306 50.5408 227.26C49.3628 226.937 50.0658 227.051 44.2898 191.635C44.0808 190.457 44.5558 189.906 45.3538 189.735C45.5818 189.735 46.7218 189.602 47.0258 191.122C49.5528 204.194 50.8258 215.632 51.2818 218.976C52.0418 224.733 52.7828 225.417 51.5098 226.937V226.956Z" fill="#FADF8F"/>
<path d="M263.948 113.145C262.2 114.76 260.472 115.349 258.439 113.62C257.505 113.144 256.496 112.835 255.455 112.708C253.555 113.81 252.245 113.354 250.687 111.207C250.231 110.561 248.787 110.523 247.894 110.333C247.408 110.339 246.925 110.39 246.45 110.485C244.208 110.485 245.69 109.193 246.032 109.003C246.811 108.585 250.991 107.103 251.257 106.742C251.549 106.319 251.948 105.981 252.412 105.761C252.877 105.541 253.392 105.448 253.904 105.49C254.417 105.533 254.909 105.709 255.331 106.003C255.754 106.296 256.092 106.695 256.31 107.16C256.5 107.407 256.652 107.711 256.937 108.148L259.882 107.236C264.043 105.887 264.157 109.307 265.335 109.44C274.664 110.428 281.885 119.985 283.348 128.839C283.563 131.005 283.608 133.184 283.48 135.356C283.48 135.565 283.214 135.755 282.891 136.249C278.597 124.982 274.55 119.7 263.948 113.145ZM264.594 112.385C272.28 116.333 278.435 122.722 282.094 130.549C282.094 122.208 273.183 110.447 264.994 110.599L264.594 112.385ZM259.141 108.851C259.141 110.276 258.876 112.461 259.807 112.955C260.257 113.209 260.783 113.295 261.291 113.198C261.799 113.1 262.256 112.826 262.58 112.423C263.049 112.058 263.372 111.538 263.49 110.956C263.608 110.374 263.515 109.769 263.226 109.25C262.713 108.11 261.764 108.091 260.776 108.262C260.212 108.402 259.664 108.599 259.141 108.851ZM255.664 111.416C256.101 108.908 255.664 107.616 254.201 107.046C252.738 106.476 250.915 108.3 252.15 110.846C252.948 112.442 254.334 111.663 255.664 111.416ZM247.228 109.136L247.38 109.478L250.459 109.706V107.977L247.228 109.136Z" fill="#3C270B"/>
<path d="M256.843 157.073C254.993 156.24 253.399 154.928 252.226 153.273C251.732 151.981 252.568 150.803 254.335 150.784C256.694 150.505 258.982 149.79 261.08 148.675C261.878 148.371 263.265 148.067 263.569 148.428C263.835 148.811 264.012 149.249 264.084 149.71C264.156 150.171 264.123 150.642 263.987 151.088C263.116 152.991 262.073 154.81 260.871 156.522C260.651 156.834 260.37 157.098 260.044 157.297C259.718 157.495 259.355 157.624 258.977 157.676C258.599 157.728 258.214 157.701 257.847 157.597C257.48 157.493 257.138 157.315 256.843 157.073ZM253.309 152.703C254.598 154.399 256.395 155.637 258.439 156.237C260.206 156.731 263.037 151.487 262.733 149.511L253.309 152.703Z" fill="#3C270B"/>
<path d="M280.384 149.321C281.621 148.855 282.649 147.959 283.28 146.797C283.911 145.636 284.104 144.286 283.823 142.994C283.696 142.623 283.488 142.284 283.216 142.002C282.943 141.72 282.612 141.5 282.246 141.36C281.904 141.265 281.41 141.816 279.453 143.754C279.281 143.195 279.217 142.608 279.263 142.025C279.49 141.298 279.954 140.668 280.58 140.234C281.207 139.8 281.96 139.588 282.721 139.631C283.617 139.899 284.4 140.457 284.946 141.216C285.493 141.976 285.773 142.895 285.742 143.83C285.725 145.014 285.465 146.181 284.978 147.26C284.491 148.338 283.787 149.305 282.911 150.1C282.179 150.646 281.296 150.952 280.384 150.974C280.194 150.936 277.629 150.309 280.384 149.321Z" fill="#3C270B"/>
<path d="M263.075 119.91C266.4 126.826 269.839 133.077 275.026 138.169L274.874 138.606C274.369 138.532 273.884 138.358 273.449 138.093C268.74 133.367 265.195 127.61 263.094 121.278C263.032 120.824 263.026 120.365 263.075 119.91Z" fill="#3C270B"/>
<path d="M279.491 139.916C276.052 136.401 278.237 139.916 270.599 127.034C270.599 127.034 270.599 126.749 270.941 126.426L279.833 139.517L279.491 139.916Z" fill="#3C270B"/>
<path d="M246.241 131.1C246.429 130.786 246.666 130.503 246.944 130.264C250.744 128.098 252.473 124.45 254.05 120.764C254.333 120.11 254.819 119.563 255.437 119.206C253.917 124.241 251.713 128.915 246.241 131.1Z" fill="#3C270B"/>
<path d="M263.968 135.755C263.74 134.52 264.652 133.855 265.697 133.855C266.742 133.855 266.989 134.919 267.122 135.755C267.654 139.232 263.93 140.6 263.968 135.755Z" fill="#3C270B"/>
<path d="M264.689 130.302C262.162 129.504 258.609 122.208 259.236 119.282C261.003 122.873 262.865 126.597 264.689 130.302Z" fill="#3C270B"/>
<path d="M250.629 122.493C250.42 125.951 244.663 130.929 241.129 131.081C241.281 130.853 241.338 130.606 241.49 130.53C245.202 128.719 248.359 125.943 250.629 122.493Z" fill="#3C270B"/>
<path d="M253.784 142.824C253.871 142.816 253.958 142.835 254.033 142.879C254.108 142.923 254.168 142.99 254.203 143.069C254.239 143.149 254.249 143.237 254.231 143.323C254.214 143.408 254.171 143.486 254.107 143.546C253.461 144.192 252.701 144.667 252.055 145.237C249.357 147.631 251.903 147.403 252.549 147.46C252.758 147.46 253.062 147.46 253.138 147.802C253.151 147.89 253.139 147.98 253.102 148.061C253.065 148.142 253.004 148.21 252.929 148.258C252.487 148.534 251.977 148.681 251.456 148.681C250.936 148.681 250.425 148.534 249.984 148.258C249.621 147.782 249.451 147.188 249.507 146.592C249.564 145.997 249.842 145.445 250.288 145.046C251.133 143.893 252.381 143.1 253.784 142.824Z" fill="#3C270B"/>
<path d="M244.968 138.947C244.284 139.061 243.904 138.225 243.79 137.142C243.676 136.059 243.6 134.767 244.455 134.653C245.31 134.539 245.804 136.135 245.956 136.553C246.241 137.788 246.032 138.7 244.968 138.947Z" fill="#3C270B"/>
<path d="M193.611 139.555C196.936 139.555 196.955 139.555 196.955 143.108V161.386C196.955 162.906 196.423 163.552 195.055 163.704C185.859 164.578 164.655 166.649 163.287 166.839C161.292 167.124 160.95 166.972 160.608 164.939C156.808 142.994 157.967 148.238 157.473 143.64C157.359 142.633 157.853 142.367 158.689 142.405C159.525 142.443 160.285 141.873 160.836 140.999C164.522 135.033 168.265 129.124 172.008 123.196C172.304 122.676 172.676 122.202 173.11 121.79C173.323 121.624 173.572 121.509 173.837 121.457C174.102 121.404 174.376 121.414 174.636 121.486C174.897 121.558 175.137 121.69 175.337 121.871C175.537 122.053 175.692 122.279 175.789 122.531C176.815 124.849 175.789 123.481 191.882 137.351C192.509 138.045 193.087 138.781 193.611 139.555ZM195.036 141.113L158.936 143.906L162.394 165.3L195.036 161.842V141.113ZM190.837 139.84C189.374 138.282 185.802 135.28 174.915 125.4C174.022 124.583 173.585 124.887 173.015 125.723C161.235 143.735 162.603 141.284 162.451 142.177L190.837 139.84Z" fill="#3C270B"/>
<path d="M259.198 228C259.599 228.488 259.967 229.003 260.3 229.539C268.128 244.245 266.836 241.623 266.703 243.276C266.342 243.124 265.772 243.067 265.639 242.801C263.435 238.279 261.269 233.738 259.103 229.197C259.008 229.064 259.141 228.76 259.198 228Z" fill="#3C270B"/>
<path d="M267.255 250.8C267.458 251.055 267.612 251.345 267.711 251.655C267.701 252.047 267.643 252.436 267.54 252.814C267.179 252.643 266.685 252.567 266.514 252.282C263.987 248.311 263.987 248.254 259.351 238.469C259.212 238.1 259.11 237.718 259.047 237.329C259.712 237.044 259.047 236.075 267.255 250.8Z" fill="#3C270B"/>
<path d="M130.417 195.7C130.417 196.688 129.866 197.372 128.631 197.41C127.396 197.448 126.845 196.593 126.731 195.51C126.617 194.427 127.13 193.401 128.384 193.382C129.638 193.363 130.379 194.028 130.417 195.7Z" fill="#3C270B"/>
<path d="M137.998 193.515C138.247 193.477 138.501 193.495 138.741 193.569C138.981 193.644 139.201 193.772 139.384 193.944C139.568 194.116 139.709 194.328 139.798 194.563C139.887 194.798 139.921 195.051 139.898 195.301C139.898 196.365 139.613 197.657 138.359 197.543C135.623 197.334 135.699 193.515 137.998 193.515Z" fill="#3C270B"/>
<path d="M316.408 265.886C313.159 240.255 312.608 237.766 311.164 235.182C309.956 232.49 309.465 229.532 309.739 226.594C310.328 226.442 310.746 226.309 311.164 226.233C313.031 225.931 314.73 224.973 315.956 223.531C317.181 222.09 317.853 220.259 317.852 218.367C317.966 213.921 317.852 209.456 317.852 205.067C317.757 199.671 317.662 194.427 315.04 189.259C311.582 182.457 306.889 177.422 299.593 175.275C276.147 168.359 274.893 170.069 274.475 167.124H284.127C284.779 167.173 285.431 167.036 286.009 166.73C286.587 166.424 287.068 165.962 287.395 165.395C287.756 164.806 288.193 164.274 288.82 163.4C288.82 166.003 288.535 167.561 290.549 166.383C291.865 165.667 293.037 164.714 294.007 163.571C296.007 160.822 297 157.467 296.819 154.071C296.672 145.096 295.828 136.145 294.292 127.3C292.937 117.823 288.361 109.101 281.334 102.6C278.13 99.2642 273.757 97.3023 269.136 97.1282C264.679 97.1778 260.233 97.5652 255.836 98.2872C251.867 98.8572 248.202 100.736 245.424 103.626C245.253 103.816 244.265 105.013 244.911 105.526C245.291 105.356 245.648 105.139 245.975 104.88C249.092 102.046 252.98 100.201 257.147 99.5792C264.139 98.2492 270.599 97.4323 276.47 100.947C293.836 111.397 293.874 134.235 294.919 155.097C294.951 157.958 293.983 160.74 292.183 162.963C291.622 163.603 290.983 164.171 290.283 164.654L289.884 164.369V159.296C289.366 159.628 288.957 160.103 288.706 160.664C288.098 161.785 286.616 165.509 284.564 165.623C281.087 165.794 277.61 165.623 274.171 165.623C273.24 161.823 275.292 158.422 278.503 151.772L278.085 151.487C276.84 152.87 275.832 154.45 275.102 156.161C272.689 160.645 271.549 165.224 274.38 169.879C272.864 171.467 270.854 172.492 268.68 172.786C265.887 173.356 265.545 173.147 264.481 170.468C263.094 166.934 262.581 164.768 258.914 163.666C257.384 162.72 255.798 161.87 254.164 161.12C245.424 157.852 239.173 157.7 239.325 149.91C239.439 143.564 238.584 133.627 238.812 131.784C239.287 128.193 237.634 131.005 237.539 131.518C236.684 136.401 237.653 140.619 237.71 149.872C237.71 159.98 245.196 159.372 255.988 163.723C253.374 164.582 250.564 164.648 247.913 163.913C246.521 163.587 245.213 162.972 244.073 162.108C242.934 161.244 241.99 160.15 241.301 158.897C240.997 160.246 240.845 160.949 240.674 161.671C239.512 161.142 238.538 160.271 237.883 159.174C237.228 158.078 236.922 156.809 237.007 155.534C237.007 149.416 236.627 143.279 236.399 137.161C236.399 136.477 235.943 135.565 236.228 135.128C237.235 133.665 236.228 133.228 235.259 132.677C225.588 126.578 228.761 110.846 239.61 109.174C240.674 109.003 242.365 107.692 239.439 108.015C227.374 109.383 223.327 127.338 234.518 134.045C234.841 134.291 235.058 134.651 235.126 135.052C236.113 141.003 236.361 147.053 235.867 153.064C235.487 156.978 235.981 160.55 239.857 162.773C241.035 163.457 241.757 163.742 242.023 162.355L247.495 165.395C245.082 165.87 227.241 169.423 220.8 170.582C217.836 171.095 217.665 171.114 217.741 174.154C217.732 174.79 217.776 175.426 217.874 176.054C219.274 183.69 221.974 191.029 225.854 197.752C225.056 197.752 224.334 198.075 223.954 197.752C222.615 196.756 221.345 195.671 220.154 194.503C218.995 193.382 217.171 192.147 217.095 190.855C216.962 188.955 216.259 189.24 215.062 189.525C215.404 184.604 215.556 119.757 215.556 116.603C215.505 116.162 215.61 115.718 215.853 115.346C216.096 114.975 216.461 114.7 216.886 114.57C227.564 110.219 235.088 98.6862 232.789 82.4412C230.642 67.2412 222.32 27.4932 219.147 12.6542C218.596 10.0892 217.779 9.50024 215.347 9.51924C163.097 10.0892 110.84 10.6719 58.5775 11.2672C51.4145 11.4002 52.7255 10.5262 51.3005 17.2142C47.5005 35.3972 43.7006 53.6182 40.2806 71.8962C39.1976 77.5962 36.9175 83.2962 37.8105 89.5282C38.3587 95.1018 39.8627 100.539 42.2565 105.602C48.1465 116.736 52.6306 113.449 52.6115 118.712C51.8515 270.237 52.1745 253.422 51.9465 258.115C39.5965 259.673 33.5355 261.706 32.0915 260.015C31.779 259.56 31.3779 259.173 30.9122 258.876C30.4465 258.58 29.9257 258.381 29.3811 258.29C28.8366 258.2 28.2793 258.22 27.7428 258.35C27.2062 258.48 26.7014 258.717 26.2585 259.046C25.6505 259.388 24.9095 259.502 24.3585 259.844C21.5655 261.326 18.6585 262.504 17.9555 266.304C15.2488 278.857 15.1681 291.834 17.7185 304.419C20.2689 317.005 25.3954 328.927 32.7755 339.435C34.0296 341.183 37.6206 341.031 39.1025 341.126C39.2883 342.119 39.8457 343.004 40.6611 343.601C41.4766 344.198 42.4888 344.461 43.4915 344.337C49.5336 344.337 228.039 343.463 230.661 343.425C232.561 343.425 232.884 342.817 232.409 341.145C231.934 339.473 232.808 334.419 231.497 333.811C24.9666 333.811 39.4255 333.488 39.3875 334.457V339.264C37.6775 339.093 35.1315 339.131 34.4475 337.972C31.6375 333.65 29.0993 329.158 26.8475 324.52C14.5165 296.02 18.4685 280.611 20.6345 266.437C20.7485 265.734 21.4515 264.67 22.0025 264.537C26.2395 263.834 47.0065 261.345 52.0225 260.604V321.404C51.0779 321.507 50.1393 321.659 49.2105 321.86C48.7355 321.993 47.9945 322.411 47.9945 322.715V329.878H222.795C222.7 324.425 223.954 320.606 217.836 320.625C217.564 320.606 217.291 320.606 217.019 320.625C215.385 320.872 214.986 320.131 215.005 318.573C216.62 212.895 216.24 224.485 216.544 221.464C220.192 223.896 224.923 228.057 230.395 223.877C235.434 220.101 240.249 216.034 244.816 211.698C246.818 215.494 247.819 219.739 247.723 224.029C247.723 233.529 247.837 242.877 247.438 252.263C245.975 286.634 243.144 287.489 247.799 288.838C246.223 295.04 245.709 301.465 246.279 307.838C246.374 309.966 247.077 310.213 249.148 310.004C251.343 309.88 253.545 309.88 255.741 310.004C253.841 326.99 255.209 318.44 250.041 347.776C248.92 354.16 245.234 354.711 233.948 363.28C233.581 363.594 233.296 363.99 233.114 364.436C232.932 364.882 232.86 365.365 232.903 365.845C233.152 366.258 233.499 366.604 233.913 366.852C234.327 367.101 234.796 367.244 235.278 367.27C240.674 367.27 244.113 366.377 257.888 363.47C258.983 363.409 260.048 363.092 260.999 362.544C261.949 361.997 262.758 361.233 263.36 360.316C270.599 345.99 262.543 361.266 278.446 313.538C278.617 313.082 278.978 312.322 279.282 312.322C282.132 312.227 284.982 312.322 287.756 312.322C287.908 315.476 288.193 318.307 288.155 321.138C288.022 330.22 287.699 339.302 287.585 348.384C287.623 351.189 286.598 353.905 284.716 355.984C281.581 359.537 277.8 363.451 275.786 367.726C274.817 369.759 275.786 370.899 278.085 370.462C279.433 370.272 280.749 369.901 281.999 369.36C288.668 365.978 295.299 362.52 301.873 358.948C305.977 356.725 304.685 348.023 308.922 310.46C310.276 310.384 311.633 310.384 312.988 310.46C313.815 310.596 314.663 310.418 315.366 309.962C316.069 309.505 316.576 308.802 316.788 307.99C319.201 300.979 320.74 300.01 316.408 265.886ZM289.143 174.515C300.353 176.757 308.143 179.645 312.779 189.715C312.855 189.975 312.963 190.224 313.102 190.456C315.648 193.648 315.762 197.448 315.895 201.286C316.389 216.619 317.491 219.26 314.508 222.414C313.419 223.499 312.045 224.254 310.545 224.59C309.046 224.926 307.481 224.831 306.034 224.314C293.152 221.255 282.987 214.225 273.183 208.468C272.007 207.927 271.075 206.968 270.566 205.778C270.057 204.588 270.008 203.251 270.428 202.027C270.941 200.127 271.454 198.227 272.024 196.232C272.171 195.674 272.491 195.177 272.938 194.812C273.385 194.447 273.936 194.232 274.513 194.199C286.502 192.831 287.186 194.997 293.114 196.099C297.764 197.228 302.203 199.094 306.262 201.628C306.985 201.984 307.727 202.301 308.485 202.578L308.846 202.027C308.5 201.55 308.091 201.121 307.63 200.754C294.615 193.401 299.175 197.334 296.876 191.558C296.876 191.368 294.767 189.107 296.23 194.902C296.04 194.902 296.002 195.054 295.945 195.054C292.411 195.054 290.948 192.736 290.093 189.696C289.014 184.713 288.693 179.595 289.143 174.515ZM308.01 227.81C308.124 229.121 308.238 230.622 308.371 232.256L299.384 232.655V227.354L308.01 227.81ZM299.574 226.024V224.352C302.861 225.454 305.825 225.758 307.782 226.252C307.554 226.461 302.348 226.1 299.574 226.1V226.024ZM259.446 203.699C259.788 203.395 260.13 203.186 260.035 202.749C259.94 202.312 259.541 202.274 259.123 202.198C258.705 202.122 258.42 202.369 258.173 202.198C257.546 201.913 256.596 201.552 256.501 201.077C256.292 199.975 257.28 199.899 258.135 199.918C260.282 199.918 260.149 198.55 259.199 198.417C258.446 198.485 257.69 198.485 256.938 198.417C254.221 197.543 255.665 196.783 256.634 196.327C257.603 195.871 261.194 195.586 258.021 194.902C257.752 194.875 257.485 194.831 257.223 194.769C256.368 194.465 255 194.598 255.152 193.211C255.208 192.601 255.487 192.033 255.935 191.616C256.384 191.199 256.971 190.962 257.584 190.95C258.971 190.95 260.396 191.235 261.783 191.197C264.234 191.197 264.12 190.608 263.683 189.867L270.751 193.667C269.36 197.329 268.484 201.165 268.148 205.067C264.234 204.991 257.128 205.808 259.446 203.699ZM261.612 208.107C261.422 208.107 260.396 207.29 260.852 206.587C262.016 206.518 263.183 206.518 264.348 206.587C267.065 207.309 262.201 208.297 261.612 208.107ZM287.908 173.907C287.262 180.557 286.92 187.093 290.283 193.553C286.177 192.003 281.765 191.437 277.401 191.9C276.861 191.844 276.315 191.876 275.786 191.995C272.765 193.249 270.295 191.995 267.844 190.418C266.662 189.763 265.52 189.04 264.424 188.252C263.892 187.815 263.759 186.922 263.341 185.991C278.313 185.991 279.092 186.333 279.681 182.913C280.27 179.493 280.935 175.693 281.581 171.855L287.908 173.907ZM265.849 174.249C267.584 174.484 269.35 174.303 271.001 173.722C272.653 173.14 274.143 172.175 275.349 170.905C275.672 170.563 276.641 170.639 277.249 170.905C280.042 171.779 280.118 171.836 279.719 174.705C279.32 177.574 278.75 180.234 278.142 182.97C278.028 183.483 277.42 184.243 277.002 184.281C272.86 184.547 268.699 184.68 264.557 184.87C263.474 184.87 262.98 184.433 262.999 183.312C262.905 182.563 262.739 181.825 262.505 181.108C265.431 179.873 267.16 177.897 265.849 174.325V174.249ZM259.332 165.737C259.74 165.855 260.12 166.055 260.447 166.327C260.774 166.598 261.041 166.934 261.232 167.314C262.41 170.221 263.398 173.204 264.424 176.168C264.563 176.424 264.642 176.708 264.654 176.999C264.666 177.289 264.611 177.579 264.494 177.845C264.376 178.111 264.199 178.347 263.976 178.534C263.753 178.721 263.49 178.854 263.208 178.923L255.741 165.832C256.933 165.698 258.137 165.692 259.332 165.813V165.737ZM251.941 166.307C252.463 166.19 253.009 166.22 253.515 166.394C254.022 166.569 254.47 166.881 254.81 167.295C258.04 170.677 259.636 174.895 261.574 179.075C261.802 179.569 261.023 180.557 260.795 181.146C261.384 184.015 261.992 186.846 262.695 189.886L256.9 188.974C256.729 188.442 256.463 187.739 256.254 187.074C255.855 185.611 254.886 185.174 253.651 185.915C251.276 187.15 247.457 189.297 244.151 191.52C243.693 183.5 240.892 175.791 236.095 169.347L251.941 166.307ZM237.026 173.014C239.82 177.785 241.647 183.06 242.403 188.537C242.897 191.938 243.353 192.337 240.066 193.667C239.154 185.414 236.324 177.489 231.801 170.525C234.651 169.67 235.088 169.784 237.026 173.09V173.014ZM229.54 171C229.901 171 230.357 171.437 230.642 171.798C235.316 177.593 237.368 186.656 238.774 193.61C239.04 194.959 236.874 196.042 231.478 199.69C230.646 189.723 227.32 180.124 221.807 171.779C224.429 171.418 226.994 171.114 229.54 171ZM227.64 187.492L227.013 187.853C226.651 187.336 226.345 186.782 226.101 186.2C225.189 183.369 225.208 183.35 225.835 182.628C226.481 184.3 227.07 185.839 227.659 187.416L227.64 187.492ZM219.166 173.793C219.1 173.321 219.1 172.841 219.166 172.368L219.66 172.159C222.32 174.667 223.593 178.049 225.36 181.412C223.099 182.134 223.327 183.54 224.163 185.212C224.409 185.755 224.6 186.322 224.733 186.903C225.341 189.069 225.816 189.392 228.058 189.031C229.467 192.659 230.083 196.546 229.863 200.431C229.228 199.897 228.631 199.32 228.077 198.702C221.218 188.784 219.869 177.327 219.185 173.717L219.166 173.793ZM226.101 103.132C224.066 106.301 221.337 108.965 218.121 110.922C216.846 111.667 215.411 112.096 213.937 112.172C212.462 112.248 210.991 111.969 209.647 111.359C199.862 107.559 199.995 97.1472 198.247 85.6332H229.958C230.414 91.7702 229.901 97.7932 226.101 103.132ZM216.601 12.1982C221.142 35.8532 225.626 59.3372 230.243 83.3722C224.942 83.3722 204.384 83.3722 199.159 83.5242C198.038 83.5242 197.658 83.2582 197.582 82.0992C197.582 81.9092 192.642 19.7032 191.73 14.0792C191.559 13.0532 190.153 12.1792 190.267 14.8772C191.236 37.8292 193.934 60.4772 195.587 83.6952H164.237C162.185 60.3126 160.12 36.6576 158.043 12.7302L216.601 12.1982ZM195.815 85.9183C194.485 92.2832 193.364 98.8193 190.267 104.918C186.163 112.936 177.195 113.962 171.837 106.818C167.068 100.339 166.346 94.7342 164.351 86.0702L195.815 85.9183ZM88.5405 13.3002C100.511 13.3002 155.364 12.7872 155.801 12.7872C157.853 36.6702 159.867 60.2872 161.881 84.0372L123.501 84.6072C123.501 82.3272 125.895 17.1002 125.876 15.9222C125.876 12.3692 123.824 14.2312 123.786 15.0482C123.615 19.1142 121.601 79.9332 121.601 84.6452L81.2066 85.1772C81.3586 83.2773 86.5835 18.3922 86.6595 15.1052C86.6216 13.7562 87.0965 13.3002 88.5405 13.3002ZM161.862 86.1842C161.33 94.5062 161.615 105.184 150.462 112.195C149.031 113.165 147.372 113.744 145.649 113.874C143.925 114.004 142.198 113.681 140.639 112.936C135.98 110.843 131.994 107.499 129.123 103.276C126.251 99.0533 124.608 94.1166 124.375 89.0152C122.703 86.6592 121.943 88.9202 121.905 89.1672C120.917 98.6672 121.905 99.9973 119.131 104.481C117.594 107.051 115.463 109.215 112.918 110.792C110.372 112.369 107.486 113.313 104.501 113.544C101.562 113.923 98.5872 113.191 96.1595 111.492C92.5512 109.101 89.4731 105.993 87.1165 102.361C84.7599 98.7299 83.1751 94.6529 82.4605 90.3832C82.1945 88.8632 82.6125 87.3052 81.3205 87.2862C81.9419 87.1239 82.5789 87.0284 83.2205 87.0012C106.743 86.7162 158.955 86.1842 161.862 86.1842ZM54.6825 13.4332H84.6455C82.9355 37.3732 81.2445 61.2182 79.5345 85.2342L40.2425 85.7852C45.0812 61.6806 49.8946 37.5632 54.6825 13.4332ZM41.5156 95.1332C40.8885 92.6252 40.5846 90.0222 40.1096 87.2862C44.5935 87.2862 69.0845 87.0772 76.9125 87.0202C78.1848 87.0595 79.4537 87.1737 80.7125 87.3622C80.4325 88.4837 80.2106 89.6189 80.0475 90.7632C79.9735 94.656 79.5987 98.5372 78.9265 102.372C77.5205 107.825 74.7085 112.689 68.8755 114.551C64.2499 116.084 59.217 115.819 54.7775 113.81C46.5125 110.2 43.5105 103.075 41.5156 95.1523V95.1332ZM60.9335 321.366C61.5415 253.802 62.1749 186.118 62.8335 118.313C68.2105 118.161 73.1506 116.85 76.6276 112.461C79.9831 108.297 81.8966 103.157 82.0806 97.8122C84.5885 102.524 87.1535 107.882 93.9936 113.012C96.1593 114.629 98.6953 115.677 101.37 116.062C104.045 116.447 106.774 116.156 109.308 115.216C113.296 114.155 116.774 111.702 119.112 108.3C119.542 107.771 119.998 107.264 120.48 106.78C118.352 178.6 116.281 249.869 114.001 321.366H60.9335ZM117.801 321.366C116.414 321.366 116.642 320.245 116.642 319.466C116.642 318.345 123.121 103.816 123.672 99.5032C124.261 100.339 129.676 108.376 133.685 113.468C133.9 114.98 134.027 116.502 134.065 118.028C133.4 147.478 129.315 316.844 129.315 321.328L117.801 321.366ZM131.405 321.157C133.229 252.263 135.059 183.319 136.896 114.323C140.637 116.424 145.032 117.041 149.208 116.052C147.485 184.452 145.75 252.852 144.002 321.252L131.405 321.157ZM207.785 216.182C207.101 241.794 205.562 310.479 205.448 319.181C205.448 320.454 205.068 320.853 203.795 320.853C140.81 321.176 149.17 321.328 146.282 321.119C146.282 316.046 151.621 125.419 151.621 114.551C158.67 110.599 162.052 103.987 163.648 96.5962C167.733 104.994 169.652 111.796 177.67 114.057C180.347 114.652 183.145 114.377 185.656 113.274C188.167 112.17 190.262 110.295 191.635 107.92C193.535 104.12 194.751 100.51 196.708 95.7602C198.608 103.018 199.33 109.193 206.208 112.86C206.62 113.056 206.96 113.375 207.182 113.774C207.403 114.172 207.494 114.63 207.443 115.083C207.443 127.889 207.69 180.595 207.69 181.241L204.802 181.735C198.152 173.793 198.038 173.337 194.542 170.335C193.554 169.518 192.3 168.815 191.16 169.784C189.545 171.114 190.685 172.843 191.54 174.724C182.705 172.824 182.23 172.653 180.805 172.615C180.299 172.589 179.794 172.67 179.322 172.853C178.851 173.037 178.423 173.318 178.069 173.679C177.347 174.952 178.791 175.579 181.47 177.479C179.722 177.593 177.936 177.612 176.207 177.878C175.851 177.94 175.515 178.083 175.224 178.298C174.934 178.512 174.698 178.791 174.535 179.113C174.523 179.482 174.602 179.848 174.764 180.179C174.926 180.51 175.167 180.797 175.466 181.013C176.948 181.982 178.563 182.742 180.102 183.578C178.794 183.777 177.517 184.141 176.302 184.661C175.894 184.911 175.547 185.248 175.287 185.65C175.028 186.051 174.861 186.505 174.801 186.979C174.801 187.53 176.017 188.423 176.701 188.575C178.512 188.872 180.339 189.062 182.173 189.145C181.736 190.171 180.767 191.33 180.938 192.28C181.299 194.18 184.054 194.009 191.673 193.534C194.029 193.382 193.06 194.712 205.752 210.919C207.07 212.338 207.798 214.207 207.785 216.144V216.182ZM179.171 187.283C178.183 187.283 177.271 187.036 175.96 186.865C176.466 186.245 177.117 185.759 177.856 185.45C178.596 185.142 179.399 185.021 180.197 185.098C181.766 185.013 183.339 185.013 184.909 185.098C185.557 185.006 186.193 184.847 186.809 184.623C186.353 184.167 185.992 183.521 185.441 183.312C183.427 182.514 181.337 181.906 179.323 181.146C178.29 180.7 177.281 180.199 176.302 179.645L176.473 178.904C178.601 179.094 180.748 179.17 182.857 179.474C184.339 179.683 185.783 180.234 187.265 180.5C187.74 180.5 188.272 180.215 188.785 180.063C188.481 179.664 188.253 179.151 187.854 178.923C179.076 173.945 179.798 174.914 180.083 174.002C185.783 174.762 179.703 173.603 193.706 176.985C194.048 176.985 194.485 176.833 194.865 176.738C194.79 176.343 194.662 175.959 194.485 175.598C192.585 172.938 191.901 172.748 192.129 170.905C197.126 173.451 199.729 178.505 203.89 182.077C192.11 192.204 192.699 191.71 192.338 191.729C182.23 192.28 184.016 192.147 182.116 191.52C183.161 190.95 183.807 190.532 184.491 190.247C185.175 189.962 185.878 189.943 186.524 189.677C187.096 189.389 187.643 189.052 188.158 188.67C185.726 187.283 188.633 187.91 179.171 187.283ZM222.054 222.3C211.737 215.707 205.486 206.131 194.618 191.9L203.168 184.756C203.379 185.046 203.647 185.29 203.955 185.473C204.263 185.655 204.606 185.774 204.961 185.82C205.317 185.866 205.678 185.839 206.023 185.741C206.368 185.643 206.689 185.476 206.968 185.25C207.899 184.661 208.545 184.946 209.305 185.763C210.787 187.321 212.459 188.708 214.188 190.304L206.987 193.8C205.087 194.712 204.973 196.346 206.759 197.467C207.085 197.549 207.425 197.555 207.754 197.486C208.084 197.417 208.393 197.274 208.659 197.068C210.901 195.301 213.048 193.42 215.176 191.615C217.209 193.857 218.976 195.871 221.047 198.151C216.183 202.844 213.884 204.782 214.34 205.58C214.553 205.914 214.831 206.202 215.158 206.427C215.484 206.652 215.852 206.81 216.24 206.891C217.133 207.043 218.14 205.181 222.567 198.645C224.296 200.355 225.949 201.761 227.336 203.395C228.723 205.029 228.97 207.195 230.186 207.689C230.771 207.828 231.37 207.898 231.972 207.898C231.972 207.347 232.143 206.663 231.972 206.283C230.323 203.652 228.211 201.341 225.74 199.462L226.025 198.911C226.348 198.911 226.728 198.797 226.956 198.911C227.279 199.198 227.566 199.523 227.811 199.88C228.057 200.269 228.385 200.6 228.773 200.848C229.16 201.097 229.598 201.258 230.054 201.319C230.51 201.381 230.975 201.342 231.414 201.205C231.854 201.068 232.258 200.836 232.599 200.526C235.715 198.626 238.793 196.555 242.346 194.275C241.513 196.937 241.263 199.748 241.614 202.515C241.965 205.282 242.908 207.941 244.379 210.311C229.901 221.863 226.652 225.169 222.054 222.3ZM246.754 287.337C248.972 268.334 249.835 249.197 249.338 230.071C249.262 225.568 248.843 221.078 248.084 216.638C246.982 209.779 240.731 205.846 243.619 194.389C243.904 193.249 242.84 194.161 254.411 186.998C254.815 187.696 254.999 188.499 254.938 189.303C254.877 190.107 254.574 190.873 254.069 191.501C253.613 191.984 253.359 192.623 253.359 193.287C253.359 193.951 253.613 194.59 254.069 195.073C254.24 195.301 254.183 195.7 254.183 196.023C254.183 196.346 254.069 196.232 254.069 196.327C254.069 196.859 253.784 197.752 253.974 197.847C256.254 199.063 253.974 202.35 256.577 203.357C256.862 203.471 257.299 203.756 257.28 203.927C257.071 205.713 258.401 206.188 259.674 206.739C259.028 207.214 260.586 209.228 261.137 209.475C261.947 209.798 262.826 209.908 263.691 209.795C264.555 209.682 265.377 209.349 266.077 208.829C266.362 208.639 266.343 208.05 266.552 207.689C266.761 207.328 267.141 206.416 267.521 206.378C268.984 206.188 270.58 208.677 272.1 209.646C280.084 215.06 288.512 219.789 297.294 223.782C297.294 264.632 296.363 262.295 301.246 287.546C272.385 287.546 285.153 287.432 279.339 287.641C251.618 288.553 260.472 288.496 246.811 287.28L246.754 287.337ZM256.558 361.551C236.456 365.94 240.826 365.237 235.335 365.674C234.947 365.644 234.564 365.568 234.195 365.446C234.195 365.294 234.1 365.123 234.043 364.971L246.792 356.212C247.457 357.865 248.692 357.713 249.965 357.352C254.886 355.87 259.769 354.331 264.5 352.868C264.243 354.947 263.346 356.894 261.933 358.439C260.52 359.985 258.662 361.053 256.615 361.494L256.558 361.551ZM273.658 322.031C264.88 351.538 266.058 350.265 263.987 351.006C261.916 351.747 259.921 352.811 257.812 353.457C254.886 354.388 251.884 355.072 248.616 355.927C248.74 355.414 248.905 354.913 249.11 354.426C252.91 348.46 253.518 341.563 254.639 334.856C255.76 328.149 256.387 321.385 257.204 314.659C257.375 313.272 257.356 311.866 257.451 310.137L277.021 311.714C275.862 315.4 274.684 318.63 273.696 321.974L273.658 322.031ZM302.424 354.445C302.394 355.121 302.185 355.777 301.818 356.344C301.45 356.912 300.938 357.372 300.334 357.675C275.387 370.709 283.234 367.289 276.888 369.075C276.983 366.586 278.028 365.864 287.642 355.566C288.292 355.926 289.029 356.097 289.771 356.06C290.513 356.023 291.229 355.78 291.841 355.357C295.838 353.461 299.595 351.094 303.032 348.308C303.111 350.351 302.92 352.396 302.462 354.388L302.424 354.445ZM302.823 346.465C299.342 349.594 295.393 352.159 291.119 354.065C290.234 354.362 289.325 354.578 288.402 354.711C290.625 346.731 289.96 339.378 289.96 312.132L306.547 310.384C303.146 347.13 303.659 345.8 302.861 346.408L302.823 346.465ZM314.565 308.085C300.942 306.774 291.081 311.182 276.793 309.491C268.794 308.541 253.765 307.591 247.913 307.325C248.255 301.435 248.597 295.355 248.939 289.484C253.404 289.617 257.451 289.902 261.498 289.807C270.238 289.579 278.978 289.047 287.737 288.857C300.942 288.534 303.317 290.89 302.671 286.843C298.7 261.991 298.339 263.72 299.118 234.308H307.611C307.876 234.329 308.132 234.416 308.355 234.562C308.577 234.709 308.759 234.909 308.884 235.144C310.594 240.73 310.784 239.324 314.014 267.691C315.021 276.602 315.914 285.532 316.693 294.462C316.985 299.082 316.272 303.711 314.603 308.028L314.565 308.085Z" fill="#3C270B"/>
</svg>
