<svg width="45" height="46" viewBox="0 0 45 46" fill="none" xmlns="http://www.w3.org/2000/svg">
<path d="M22.5708 6.66943C13.308 6.66943 5.7698 13.93 5.76653 22.8531C5.76435 25.7066 6.53952 28.4915 8.00927 30.9444L5.625 39.3307L14.5339 37.0804C17.012 38.3767 19.7675 39.0528 22.5642 39.0509H22.5708C31.8335 39.0509 39.3717 31.7892 39.375 22.8662C39.3772 18.544 37.6309 14.4755 34.4573 11.4173C31.2848 8.35802 27.066 6.67052 22.5708 6.66943ZM22.5708 36.3172H22.5653C20.0591 36.3172 17.6008 35.6683 15.456 34.4424L14.9444 34.1506L9.65976 35.4854L11.0707 30.5209L10.7387 30.0125C9.34393 27.8853 8.60146 25.3968 8.60262 22.8531C8.60589 15.4357 14.8725 9.40318 22.5762 9.40318C26.3061 9.40427 29.8129 10.8054 32.4508 13.3476C35.0887 15.8897 36.54 19.2702 36.5378 22.8651C36.5346 30.2825 30.269 36.3172 22.5697 36.3172H22.5708ZM30.232 26.2412C29.8118 26.0398 27.7476 25.061 27.3622 24.9249C26.9779 24.791 26.6981 24.7213 26.4183 25.1263C26.1396 25.5313 25.3339 26.4426 25.09 26.7115C24.844 26.9815 24.599 27.0142 24.1788 26.8127C23.7585 26.6102 22.4053 26.1835 20.8027 24.8052C19.554 23.7339 18.7113 22.41 18.4663 22.0039C18.2214 21.6 18.4402 21.3812 18.6503 21.1798C18.8387 21.0001 19.0706 20.7083 19.2796 20.4721C19.4886 20.2358 19.5583 20.0671 19.6998 19.7971C19.8392 19.5282 19.7695 19.2908 19.6639 19.0894C19.5583 18.8858 18.72 16.8957 18.3683 16.0868C18.0287 15.2985 17.6825 15.4042 17.4244 15.3911C17.1795 15.3802 16.9008 15.3769 16.6188 15.3769C16.3412 15.3769 15.885 15.4782 15.4996 15.8832C15.1153 16.2882 14.0298 17.2658 14.0298 19.256C14.0298 21.2473 15.5344 23.1699 15.7446 23.4399C15.9547 23.7088 18.7058 27.7948 22.9181 29.5476C23.9197 29.9624 24.7014 30.2117 25.3121 30.3989C26.3181 30.7071 27.2337 30.6624 27.9566 30.559C28.7623 30.4425 30.441 29.5813 30.7894 28.6374C31.14 27.6935 31.14 26.8835 31.0355 26.7148C30.9331 26.546 30.6523 26.4448 30.232 26.2412V26.2412Z" fill="#B8552C"/>
</svg>
