<svg width="45" height="46" viewBox="0 0 45 46" fill="none" xmlns="http://www.w3.org/2000/svg">
<path fill-rule="evenodd" clip-rule="evenodd" d="M37.1101 10.6527C38.7227 11.0859 39.9984 12.3616 40.4316 13.9742C41.2259 16.9107 41.25 23.0002 41.25 23.0002C41.25 23.0002 41.25 29.1139 40.4557 32.0262C40.0225 33.6389 38.7468 34.9146 37.1341 35.3478C34.2218 36.1421 22.5 36.1421 22.5 36.1421C22.5 36.1421 10.7782 36.1421 7.86586 35.3478C6.25321 34.9146 4.97754 33.6389 4.54429 32.0262C3.75 29.0898 3.75 23.0002 3.75 23.0002C3.75 23.0002 3.75 16.9107 4.52022 13.9983C4.95347 12.3857 6.22914 11.11 7.84178 10.6768C10.7542 9.88246 22.4759 9.8584 22.4759 9.8584C22.4759 9.8584 34.1977 9.8584 37.1101 10.6527ZM28.4692 23.0003L18.7452 28.6325V17.368L28.4692 23.0003Z" fill="#B8552C"/>
</svg>
