<svg width="26" height="17" viewBox="0 0 26 17" fill="none" xmlns="http://www.w3.org/2000/svg">
<path d="M13.4329 16.0518C20.902 16.0518 25.9238 9.93981 25.9238 8.04714C25.9238 6.15447 20.8838 0.0517578 13.4329 0.0517578C6.07303 0.0517578 0.923828 6.15447 0.923828 8.04714C0.923828 9.93981 6.05483 16.0518 13.4329 16.0518ZM13.4329 14.2422C7.6287 14.2422 3.03445 9.3397 3.03445 8.04714C3.03445 6.96693 7.6287 1.86134 13.4329 1.86134C19.2099 1.86134 23.8132 6.96693 23.8132 8.04714C23.8132 9.3397 19.2099 14.2422 13.4329 14.2422ZM13.4329 13.005C16.144 13.005 18.3183 10.743 18.3183 8.04714C18.3183 5.28661 16.144 3.0985 13.4329 3.0985C10.7037 3.0985 8.52026 5.28661 8.52936 8.04714C8.54755 10.743 10.7037 13.005 13.4329 13.005ZM13.4238 9.64437C12.5505 9.64437 11.8409 8.92423 11.8409 8.04714C11.8409 7.17005 12.5505 6.44991 13.4238 6.44991C14.2972 6.44991 15.0068 7.17005 15.0068 8.04714C15.0068 8.92423 14.2972 9.64437 13.4238 9.64437Z" fill="#B6532B"/>
</svg>
