<svg width="380" height="380" viewBox="0 0 380 380" fill="none" xmlns="http://www.w3.org/2000/svg">
<path d="M264.709 270.484C270.846 274.284 276.812 278.331 282.607 282.568C283.593 283.347 284.514 284.205 285.362 285.133C286.008 285.779 285.989 286.615 285.21 287.033C283.899 287.622 283.31 288.933 282.645 289.883C281.486 291.555 280.175 293.094 278.845 294.671C276.717 297.274 275.349 293.55 268.585 285.931C260.32 276.602 253.993 265.031 254.677 269.8C255.266 273.942 254.772 278.141 255.532 282.283C255.724 284.146 255.497 286.028 254.867 287.793C254.373 289.693 254.411 291.593 253.727 293.493C252.853 295.811 252.321 296.001 250.421 294.538C248.521 293.075 246.621 292.638 244.987 291.156C244.19 290.472 243.353 289.838 242.479 289.256C242.118 289.009 241.833 288.648 241.244 288.705C235.981 289.18 244.246 281.371 249.699 266.836C250.396 265.273 251.203 263.762 252.112 262.314C253.195 259.559 255.551 260.243 257.261 260.148C266.077 259.673 291.138 258.875 298.282 259.73C299.612 259.901 300.182 261.44 299.308 262.96C298.016 265.164 296.515 267.235 295.071 269.363C294.867 269.635 294.594 269.847 294.279 269.977C293.965 270.108 293.622 270.151 293.285 270.104C280.023 269.8 290.872 270.085 264.709 270.484Z" fill="#FADF8F"/>
<path d="M259.408 252.415C258.807 252.466 258.204 252.466 257.603 252.415C256.577 252.206 255.912 251.731 256.235 250.515C256.378 249.839 256.641 249.196 257.014 248.615C258.23 246.715 258.021 244.606 258.553 242.63C258.673 241.329 258.609 240.018 258.363 238.735C258.363 237.538 259.484 236.341 260.472 236.93C261.46 237.519 263.436 237.196 264.557 238.83C265.678 240.464 304.457 236.322 316.332 236.455C330.278 236.626 331.437 235.277 336.13 235.22C338.657 235.22 338.961 235.353 339.094 237.842C339.512 246.43 345.25 247 328.663 247.741C320.721 248.102 321.671 248.33 300.923 249.641C277.819 251.085 296.021 249.223 259.408 252.415Z" fill="#FADF8F"/>
<path d="M268.528 226.366C267.065 226.789 265.525 226.873 264.025 226.613C262.543 226.613 262.125 225.321 263.075 224.2C265.355 221.616 265.146 218.082 268.49 218.5C269.263 218.615 270.052 218.57 270.808 218.367C271.967 218.082 272.955 218.158 272.936 219.735C272.936 220.438 273.411 220.4 273.924 220.362C325.794 216.562 333.014 212.762 332.064 216.733C331.722 218.139 332.786 219.165 333.261 220.343C333.508 220.951 333.983 221.464 334.306 222.072C335.503 224.257 334.857 225.72 332.406 226.347C326.647 227.81 320.734 228.576 314.793 228.627C306.87 228.988 298.966 229.387 291.024 229.596C283.424 229.805 275.976 230.926 268.395 230.774C267.445 230.774 266.495 230.907 266.4 230.052C266.4 229.672 266.4 229.235 266.742 229.102C268.034 228.627 268.053 227.354 268.642 226.404C268.737 226.195 268.737 226.195 268.528 226.366Z" fill="#FADF8F"/>
<path d="M115.045 118.313C115.045 116.698 114.931 115.064 115.045 113.449C115.235 111.359 113.696 111.416 112.309 111.131C110.523 110.77 110.086 109.839 111.036 108.224C111.986 106.609 113.126 104.747 114.228 103.018C117.097 98.4958 119.567 93.7078 122.759 89.3758C123.918 87.8368 124.868 87.7608 125.913 89.3758C130.492 95.9688 138.491 103.645 139.574 109.212C140.277 112.746 136.439 110.599 133.874 110.998C130.815 111.435 133.589 112.765 133.285 122.227C133.285 124.469 132.392 125.324 130.131 125.381C123.614 125.514 122.816 125.153 120.308 125.875C118.857 126.182 117.345 126.015 115.995 125.4C114.817 125.039 115.045 124.45 115.045 118.313Z" fill="#FADF8F"/>
<path d="M302.499 199.215C303.012 199.082 303.601 199.215 303.449 198.227C303.145 196.441 310.042 196.916 314.716 196.631C315.647 196.631 316.464 196.859 316.616 198.056C316.768 199.253 320.416 201.723 323.665 205.751C324.048 206.253 324.591 206.608 325.204 206.758C325.488 206.794 325.75 206.933 325.939 207.148C326.128 207.363 326.233 207.64 326.233 207.926C326.233 208.213 326.128 208.49 325.939 208.705C325.75 208.92 325.488 209.059 325.204 209.095C323.788 209.423 322.344 209.62 320.891 209.684C315.191 209.684 309.643 210.311 304.019 210.406C280.516 210.824 279.889 213.18 278.084 211.052C277.476 210.349 275.785 210.539 274.588 210.406C273.752 210.406 272.802 210.406 272.441 209.494C271.795 207.803 274.854 205.903 275.348 203.699C275.842 201.495 279.946 203.243 292.448 198.797C293.341 198.493 294.899 198.512 295.355 199.633C299.573 199.158 300.979 199.5 302.499 199.215Z" fill="#FADF8F"/>
<path d="M122.304 271.415C123.786 271.187 123.805 270.446 123.824 260.357C124.489 261.516 125.23 262.048 126.37 261.877C126.997 261.782 127.415 261.668 127.662 260.984C128.118 259.711 129.011 259.787 129.847 260.585C130.536 261.129 131.289 261.589 132.089 261.953C136.136 264.309 135.661 258.286 144.743 262.428C145.064 262.657 145.45 262.78 145.845 262.78C146.24 262.78 146.625 262.657 146.947 262.428C149.702 260.357 152.799 260.927 155.592 261.915C162.85 264.461 167.258 256.006 168.455 260.927C169.119 263.757 169.614 266.625 169.937 269.515C170.013 270.562 169.884 271.614 169.557 272.612C169.515 272.816 169.431 273.01 169.311 273.181C169.191 273.352 169.037 273.496 168.859 273.605C168.681 273.714 168.482 273.785 168.275 273.813C168.068 273.842 167.858 273.827 167.657 273.771C166.405 273.533 165.128 273.457 163.857 273.543C151.602 273.543 151.716 272.061 124.603 272.289C124.178 272.331 123.749 272.274 123.35 272.123C122.951 271.971 122.593 271.729 122.304 271.415Z" fill="#FADF8F"/>
<path d="M310.67 269.952C309.701 269.838 307.915 270.674 306.87 269.382C304.229 266.19 304.97 262.295 304.058 260.623C303.469 259.635 304.457 259.35 305.312 259.35C315.781 259.16 325.908 257.773 333.679 257.678C335.711 257.756 337.745 257.597 339.74 257.203C341.203 256.823 342.628 258.514 340.88 259.578C340.329 259.92 340.481 260.338 340.671 260.794C341.119 262.18 341.437 263.605 341.621 265.05C341.963 266.836 341.412 267.444 339.626 267.501C326.174 267.995 315.743 270.313 310.67 269.952Z" fill="#FADF8F"/>
<path d="M230.586 282.872C230.289 282.865 230.005 282.75 229.788 282.549C226.425 279.471 221.523 278.597 222.777 275.994C225.551 270.142 228.477 264.423 231.916 258.894C233.36 256.5 233.816 256.462 236.343 257.697C238.121 258.736 240.041 259.51 242.043 259.996C243.221 260.205 243.696 260.927 243.259 262.2C240.827 269.135 237.084 274.854 233.189 281.2C232.979 281.712 232.616 282.147 232.151 282.446C231.685 282.745 231.139 282.894 230.586 282.872Z" fill="#FADF8F"/>
<path d="M36.6142 190C36.1772 188.252 35.9302 186.96 37.0512 186.409C38.1722 185.858 38.6852 186.599 39.2552 187.397C40.2052 186.029 40.2812 183.483 43.0552 183.768C44.1192 183.882 44.4232 184.737 44.5372 185.554C44.6512 186.371 44.9932 186.922 46.0762 186.941C47.5392 186.941 48.4322 188.347 48.0712 190.19C47.6152 192.527 50.1422 193.496 49.9712 196.365C49.9712 198.835 48.6222 198.265 48.3752 199.747C47.9382 202.179 46.4752 202.939 44.3852 201.647C43.3972 201.039 42.9982 201.096 42.8272 202.274C42.7394 202.792 42.5862 203.296 42.3712 203.775C41.5542 205.903 40.0722 206.283 38.4192 204.725C38.2137 204.472 37.9468 204.277 37.644 204.157C37.3413 204.037 37.0128 203.997 36.6902 204.041C35.0942 204.288 34.1632 203.262 33.7642 201.818C33.5742 201.153 33.3842 200.811 32.5862 200.659C30.4202 200.222 31.3892 197.429 30.1922 195.795C29.8824 195.296 29.7637 194.702 29.858 194.122C29.9523 193.542 30.2532 193.016 30.7052 192.641C30.9976 192.36 31.1923 191.992 31.2607 191.592C31.329 191.192 31.2675 190.78 31.0852 190.418C30.9661 190.212 30.8917 189.984 30.8667 189.748C30.8418 189.512 30.8669 189.273 30.9404 189.047C31.0139 188.821 31.1341 188.613 31.2933 188.437C31.4524 188.261 31.647 188.12 31.8642 188.024C32.2764 187.85 32.7368 187.827 33.1643 187.959C33.5918 188.091 33.959 188.37 34.2012 188.746C36.4812 191.368 37.2982 192.584 36.6142 190Z" fill="#FADF8F"/>
<path d="M170.829 141.835C170.851 142.227 170.73 142.614 170.489 142.925C170.248 143.235 169.904 143.449 169.518 143.526C165.3 145.046 160.854 145.787 156.617 147.231C155.002 147.763 153.254 147.953 151.62 148.466C148.39 149.473 147.497 148.143 140.847 144.495C140.304 144.234 139.878 143.779 139.653 143.22C139.428 142.661 139.42 142.038 139.631 141.474C140.049 139.688 140.41 137.921 140.771 136.135C141.075 134.653 142.006 134.235 143.203 135.204C144.4 136.173 144.191 137.56 145.977 137.104C147.763 136.648 148.808 137.408 149.777 139.156C151.544 142.405 152.304 136.724 158.213 139.669C159.239 140.182 159.733 140.087 160.113 138.928C160.333 138.136 160.825 137.446 161.502 136.98C162.18 136.515 163 136.303 163.818 136.382C164.786 136.539 165.777 136.317 166.584 135.761C167.391 135.205 167.952 134.359 168.15 133.399C168.302 132.867 168.321 131.955 169.195 132.069C170.069 132.183 169.936 133.076 169.917 133.722C169.936 136.401 170.582 139.099 170.829 141.835ZM150.689 146.452C150.995 144.843 151.117 143.205 151.05 141.569C151.05 141.315 150.951 141.071 150.773 140.89C150.596 140.709 150.354 140.605 150.1 140.6C149.15 140.6 149.796 143.906 149.131 146.3C148.998 146.775 150.328 148.2 150.689 146.452Z" fill="#FADF8F"/>
<path d="M256.31 46.2457C256.251 44.4181 256.333 42.5885 256.557 40.7737C256.589 40.4951 256.701 40.2318 256.88 40.0159C257.059 39.8 257.297 39.6408 257.564 39.5577C260.161 38.614 262.896 38.1068 265.658 38.0567C268.907 37.9047 267.406 41.2297 266.304 50.7297C264.822 63.5927 264.898 65.6067 262.732 65.9297C261.539 66.0531 260.335 66.0531 259.141 65.9297C258.606 65.8768 258.11 65.621 257.757 65.2148C257.404 64.8086 257.219 64.2826 257.241 63.7447C256.785 58.0447 256.272 52.3827 256.31 46.2457Z" fill="#FADF8F"/>
<path d="M222.301 252.814C222.624 254.714 221.047 257.526 214.549 269.173C213.789 270.541 213.029 270.617 211.794 269.686C205.885 265.354 204.194 265.43 205.619 262.77C208.087 258.051 210.821 253.478 213.808 249.071C214.929 247.456 215.594 247.171 217.209 247.893C218.348 248.402 219.458 248.972 220.534 249.603C222.301 250.591 222.301 250.8 222.301 252.814Z" fill="#FADF8F"/>
<path d="M233.036 304.513C233.036 303.582 233.378 303.126 237.786 298.414C238.166 298.106 238.477 297.723 238.7 297.287C238.922 296.852 239.051 296.375 239.078 295.887C239.078 293.094 243.923 298.053 246.526 300.01C248.426 301.435 250.326 303.031 252.074 304.589C253.081 305.444 253.062 306.603 251.941 306.926C248.141 308.009 250.041 313.044 247.153 315.4C246.184 316.198 245.253 316.312 244.721 315.153C242.821 310.897 238.527 309.643 235.221 307.04C234.404 306.318 233.055 305.995 233.036 304.513Z" fill="#FADF8F"/>
<path d="M304.001 118.883C301.987 126.027 303.184 130.625 300.923 130.91C299.726 131.043 299.137 130.131 298.681 129.238C297.451 127.046 296.837 124.563 296.904 122.051C296.971 119.539 297.716 117.092 299.061 114.969C299.328 114.338 299.794 113.812 300.387 113.469C300.98 113.126 301.668 112.986 302.348 113.069C306.433 113.677 304.096 116.869 309.321 122.569C309.606 122.911 309.815 123.747 310.461 123.234C311.107 122.721 310.461 122.246 310.347 121.79C307.801 116.489 304.001 115.064 305.901 113.221C306.01 113.105 306.14 113.013 306.286 112.95C306.431 112.887 306.588 112.854 306.747 112.854C306.905 112.854 307.062 112.887 307.207 112.95C307.353 113.013 307.484 113.105 307.592 113.221C308.096 113.591 308.549 114.026 308.941 114.513C311.187 117.254 313.1 120.252 314.641 123.443C316.142 126.768 315.059 130.302 312.095 128.725C307.801 126.388 305.901 122.892 304.001 118.883ZM299.384 125.229C299.847 124.957 300.233 124.572 300.506 124.11C300.778 123.648 300.929 123.124 300.942 122.588C300.97 120.363 301.374 118.16 302.139 116.071C302.31 115.691 302.842 115.064 302.139 114.722C301.436 114.38 301.208 114.912 300.885 115.368C299.951 116.812 299.33 118.435 299.062 120.133C298.793 121.832 298.884 123.567 299.327 125.229H299.384Z" fill="#FADF8F"/>
<path d="M226.994 314.868C227.401 314.875 227.802 314.971 228.17 315.148C228.537 315.325 228.862 315.579 229.122 315.894C231.497 318.307 233.872 320.739 236.152 323.247C237.14 324.33 236.817 325.356 235.544 326.021C233.685 326.873 232.071 328.18 230.851 329.821C230.243 330.657 229.426 331.417 228.362 330.6C225.421 328.721 222.749 326.452 220.42 323.855C219.793 323.019 219.717 322.316 220.42 321.689C223.745 319.2 225.93 314.792 226.994 314.868Z" fill="#FADF8F"/>
<path d="M194.142 238.374C194.142 240.274 193.097 240.825 191.786 240.274C188.67 238.868 185.858 233.871 184.414 230.774C184.243 230.413 183.939 229.995 184.148 229.596C184.642 228.589 184.148 227.696 183.749 226.936C182.063 222.615 180.102 218.408 177.878 214.339C177.004 212.762 178.581 212.667 179.037 211.964C179.493 211.261 180.044 211.793 180.633 212.192C182.97 214.12 184.683 216.699 185.554 219.602C188.252 226.1 193.8 235.866 194.142 238.374Z" fill="#FADF8F"/>
<path d="M333.052 279.908C333.183 280.244 333.197 280.616 333.09 280.961C332.983 281.306 332.762 281.605 332.463 281.808C327.58 286.292 327.2 290.187 323.761 289.161C319.847 288.002 316.161 288.591 316.427 284.107C316.427 283.575 316.218 283.537 315.876 283.366C315.594 283.286 315.351 283.103 315.197 282.853C315.042 282.604 314.986 282.305 315.04 282.017C315.211 281.276 315.838 281.086 316.465 281.01C318.897 280.668 321.31 280.25 323.742 280.079C329.043 279.756 332.254 278.16 333.052 279.908Z" fill="#FADF8F"/>
<path d="M104.976 249.717C105.271 248.313 105.819 246.974 106.591 245.765C108.536 241.217 110.724 236.777 113.146 232.465C113.887 231.23 114.514 230.09 115.806 230.66C116.152 230.817 116.423 231.105 116.558 231.461C116.693 231.817 116.682 232.212 116.528 232.56C114.419 238.678 111.303 242.611 106.838 250.211C106.534 250.724 106.192 251.237 105.489 251.066C104.786 250.895 105.052 250.287 104.976 249.717Z" fill="#FADF8F"/>
<path d="M172.311 84.2457C188.879 89.0527 196.669 96.2157 202.293 106.134C210.995 121.505 210.672 151.601 201.248 169.442C194.256 182.742 189.012 182.609 184.034 191.026C181.753 194.356 180.265 198.165 179.683 202.16C179.645 202.555 179.471 202.925 179.19 203.206C178.91 203.486 178.54 203.661 178.144 203.699C175.256 204.231 178.999 194.921 169.936 191.786C164.846 190.252 159.613 189.24 154.318 188.765C137.37 186.523 151.05 188.233 133.418 186.523C122.493 185.478 112.29 182.457 103.683 175.389C88.8824 163.4 87.6854 133.285 94.3354 115.178C100.51 98.4387 110.2 87.9127 128.269 82.7257C144.742 78.0327 157.7 80.0087 172.311 84.2457ZM121.296 174.249C121.296 177.023 122.018 177.707 124.735 177.726C127.452 177.745 145.027 177.726 150.708 177.555C154.603 177.555 158.536 177.707 162.45 177.707C170.81 177.707 179.151 177.213 187.492 176.814C190.361 176.681 191.292 175.655 191.691 172.767C192.09 169.879 191.691 166.535 191.824 163.419C192.318 153.672 192.432 121.771 192.622 120.175C192.862 116.371 192.728 112.553 192.223 108.775C192.188 107.933 191.865 107.128 191.308 106.496C190.751 105.863 189.995 105.44 189.164 105.298C188.25 105.068 187.314 104.94 186.371 104.918C177.745 104.918 165.3 103.911 137.199 103.911C136.859 103.92 136.521 103.845 136.216 103.693C135.911 103.54 135.648 103.315 135.451 103.037C132.468 99.0847 129.333 95.2467 126.559 91.1236C123.785 87.0006 124.108 86.9246 111.625 107.673C111.462 107.922 111.359 108.205 111.326 108.501C111.292 108.797 111.329 109.097 111.432 109.376C111.536 109.655 111.703 109.906 111.922 110.109C112.14 110.311 112.403 110.459 112.689 110.542C113.12 110.734 113.586 110.838 114.057 110.846C115.691 110.732 115.957 111.511 115.957 113.012C115.996 116.35 115.824 119.688 115.444 123.006C115.401 123.247 115.412 123.495 115.479 123.731C115.545 123.967 115.664 124.184 115.827 124.368C115.99 124.551 116.192 124.694 116.419 124.787C116.646 124.881 116.891 124.921 117.135 124.906C118.123 124.906 119.035 125.058 120.08 125.134C122.227 125.305 120.764 125.001 121.543 150.157C121.733 155.515 121.068 155.496 121.296 174.249Z" fill="#F4B77D"/>
<path d="M50.8628 327.484C50.1598 328.453 49.6088 329.289 48.9628 330.049C48.827 330.281 48.6099 330.454 48.3536 330.535C48.0972 330.616 47.82 330.598 47.5758 330.486C46.9868 330.144 47.2148 329.574 47.4048 329.099C47.587 328.55 47.8495 328.032 48.1838 327.56C49.4188 326.154 48.7918 325.109 47.7088 324.007C45.1755 321.385 42.6421 318.731 40.1088 316.046C38.8738 314.697 39.1588 315.723 34.7698 320.549C34.1428 321.233 34.3138 321.708 34.7698 322.297C36.7838 324.552 38.7851 326.819 40.7738 329.099C41.4388 329.821 42.0278 330.999 41.2488 331.531C40.1088 332.405 39.6338 331.246 38.3038 329.745C36.5558 327.845 34.8078 325.945 33.0788 323.912C32.6418 323.437 32.3568 323.323 31.8628 323.912C31.3688 324.501 30.6658 325.812 29.6398 325.014C28.6138 324.216 29.7728 323.304 30.2288 322.601C30.3644 322.45 30.4671 322.272 30.5304 322.08C30.5937 321.887 30.6163 321.683 30.5966 321.481C30.577 321.279 30.5155 321.084 30.4162 320.907C30.3169 320.73 30.1819 320.576 30.0198 320.454C27.254 317.261 24.5242 314.037 21.8308 310.783C20.7858 309.529 20.3678 310.783 19.0758 312.322C18.9419 312.536 18.7313 312.69 18.4871 312.754C18.2429 312.817 17.9837 312.785 17.7626 312.663C17.5415 312.542 17.3752 312.34 17.2979 312.1C17.2206 311.86 17.2381 311.6 17.3468 311.372C17.5331 310.497 17.9534 309.689 18.5628 309.035C18.7423 308.885 18.8868 308.698 18.9859 308.486C19.085 308.274 19.1364 308.043 19.1364 307.809C19.1364 307.576 19.085 307.345 18.9859 307.133C18.8868 306.921 18.7423 306.734 18.5628 306.584C15.5228 303.259 14.5538 302.461 15.4848 301.663C16.4158 300.865 16.6058 301.834 17.0238 302.233C20.5008 305.463 20.6718 306.375 21.5458 305.254C22.8378 303.601 24.1298 301.967 25.4408 300.333C25.8968 299.763 25.6688 299.288 25.2698 298.794C14.2688 285.057 14.7438 285.665 14.6298 285.304C14.5144 285.097 14.4759 284.855 14.5211 284.622C14.5663 284.389 14.6923 284.18 14.8768 284.031C16.0928 283.1 20.0258 288.211 21.1278 289.446C26.7138 295.754 26.9798 298.376 28.2718 296.647C29.7918 294.595 31.3308 292.543 32.9078 290.548C33.8198 289.408 33.1928 289.522 27.8348 284.354C27.3978 283.936 26.8088 283.499 27.3788 282.777C27.9488 282.055 28.5568 282.416 29.0888 282.777C33.7058 285.152 34.2758 289.066 35.7198 286.786C36.5368 285.513 37.4678 284.316 38.3418 282.986C38.8738 282.245 39.5008 281.618 40.4128 282.226C41.3248 282.834 40.9828 283.67 40.4128 284.411C39.5008 285.741 38.6268 287.109 37.6198 288.363C36.1188 290.263 38.1708 289.864 46.8538 299.63C47.2908 300.124 47.5378 300.086 47.9368 299.63C49.7038 297.35 51.4898 295.108 53.2758 292.866C53.8838 292.125 53.6368 291.612 52.9908 290.966C45.2958 283.898 44.8398 283.366 45.5998 282.644C45.7343 282.481 45.9176 282.365 46.1228 282.313C46.328 282.262 46.5443 282.278 46.7398 282.359C47.3652 282.624 47.9428 282.99 48.4498 283.442C50.5398 285.342 52.6678 287.242 54.7388 289.142C55.3658 289.731 55.6698 289.655 56.1828 289.009C60.1918 283.917 63.0418 279.091 64.7138 281.219C64.8168 281.339 64.8936 281.48 64.9392 281.632C64.9847 281.784 64.9981 281.944 64.9785 282.101C64.9588 282.258 64.9065 282.41 64.8249 282.546C64.7434 282.682 64.6343 282.799 64.5048 282.891C62.3958 285.019 60.7048 287.508 58.8048 289.788C56.9048 292.068 56.9048 290.738 65.7968 299.972C66.6138 300.808 67.0698 300.922 67.8108 299.858C73.9288 291.156 74.8598 291.517 73.5108 290.358C71.2308 288.344 69.0268 286.273 66.7848 284.221C66.2908 283.765 65.6448 283.233 66.1388 282.511C66.6328 281.789 67.4688 282.302 68.0388 282.644C70.4229 284.327 72.6659 286.202 74.7458 288.249C75.8288 289.142 76.3418 288.971 77.0638 287.888C78.3528 285.937 79.7748 284.076 81.3198 282.321C82.6878 281.39 84.2838 282.568 83.2198 284.031C81.7758 285.931 80.3698 288.04 78.8118 289.921C78.1088 290.795 78.3178 291.232 79.0208 291.821C81.799 294.027 84.4625 296.373 87.0008 298.851C88.3308 300.238 88.4258 297.54 94.4488 291.08C95.0948 290.377 94.8288 289.883 94.2208 289.389C92.3208 287.831 90.4208 286.235 88.5208 284.715C87.8368 284.183 87.2478 283.632 87.7798 282.815C88.3118 281.998 88.9958 282.625 89.5658 282.91C91.5523 283.971 93.3919 285.287 95.0378 286.824C96.7858 288.306 96.9378 288.287 98.2868 286.539C99.6358 284.791 100.89 283.556 102.22 282.093C102.866 281.39 103.645 280.839 104.519 281.637C105.393 282.435 104.861 283.176 104.291 283.841C102.885 285.456 101.479 287.052 100.035 288.648C99.1418 289.636 99.0848 290.244 100.282 291.251C110.143 299.592 109.934 301.568 111.378 299.649C117.42 291.574 117.971 292.049 116.869 291.061L109.554 284.202C109.098 283.765 108.509 283.366 108.908 282.644C109.991 280.592 114.057 285.114 115.292 286.102C118.864 288.99 118.826 290.263 120.004 288.743C123.576 284.107 125.875 280.44 127.49 282.226C128.174 283.005 127.718 283.765 127.148 284.297C125.248 286.197 123.88 288.382 122.132 290.32C121.41 291.118 121.372 291.669 122.132 292.372C124.906 294.652 127.661 296.97 130.416 299.288C131.138 299.915 131.594 299.972 132.316 299.098C138.795 290.757 139.916 290.909 138.339 289.598C135.983 287.698 133.741 285.513 131.461 283.442C130.872 282.891 130.15 282.207 130.777 281.447C132.088 279.87 135.964 284.449 140.068 287.736C140.809 288.325 141.113 288.382 141.759 287.584C143.032 285.988 144.476 284.544 145.863 283.043C146.566 282.283 147.402 281.523 148.371 282.549C149.34 283.575 148.371 284.164 147.763 284.81C146.471 286.235 145.16 287.66 143.83 289.066C143.298 289.617 143.013 289.959 143.83 290.624C153.957 298.642 153.539 299.554 154.774 297.977C160.797 290.377 160.911 291.061 159.771 290.016C157.71 288.472 155.802 286.735 154.071 284.829C153.615 284.221 153.026 283.575 153.653 282.929C154.28 282.283 154.926 282.929 155.553 283.309C157.453 284.867 159.486 286.425 161.367 288.059C162.089 288.667 162.431 288.572 162.944 287.85C164.347 285.711 165.985 283.735 167.827 281.96C168.492 281.371 169.062 280.82 169.727 281.447C170.392 282.074 170.221 283.024 169.575 283.67C168.37 284.897 167.259 286.211 166.25 287.603C163.59 291.232 163.685 289.636 173.47 298.224C174.819 299.421 174.173 298.471 181.716 287.888C183.027 285.988 181.564 285.76 179.816 284.088C179.608 283.92 179.472 283.678 179.437 283.413C179.401 283.148 179.469 282.88 179.626 282.663C180.291 281.675 182.267 283.119 183.084 283.993C183.901 284.867 184.034 284.639 184.509 283.993C185.018 283.265 185.577 282.573 186.181 281.922C186.618 281.409 187.15 281.067 187.815 281.542C187.964 281.644 188.09 281.777 188.184 281.932C188.278 282.087 188.337 282.26 188.359 282.44C188.381 282.62 188.364 282.802 188.309 282.975C188.255 283.148 188.164 283.307 188.043 283.442C186.713 285.741 185.478 286.273 186.409 287.109C189.24 289.674 192.109 292.201 194.864 294.804C195.605 295.488 195.89 295.279 196.346 294.538C198.689 290.649 201.064 286.773 203.471 282.91C204.003 282.074 204.535 280.763 205.827 281.599C207.119 282.435 206.188 283.499 205.675 284.335C203.3 288.325 200.906 292.315 198.436 296.248C198.289 296.41 198.178 296.602 198.111 296.811C198.044 297.019 198.023 297.24 198.048 297.458C198.073 297.675 198.144 297.885 198.257 298.073C198.37 298.261 198.522 298.422 198.702 298.547C201.045 300.789 203.344 303.063 205.599 305.368C206.112 305.881 206.948 306.489 206.017 307.268C205.086 308.047 204.402 307.534 203.794 306.926C201.723 305.026 199.69 302.898 197.657 300.846C195.624 298.794 197.03 298.642 189.221 310.688C189.073 310.848 188.963 311.039 188.897 311.246C188.832 311.454 188.813 311.674 188.842 311.89C188.871 312.106 188.947 312.312 189.065 312.496C189.183 312.679 189.34 312.833 189.525 312.949C197.372 320.017 197.011 320.986 198.094 319.371C199.994 316.502 202.008 313.671 203.927 310.84C204.459 310.061 205.086 309.453 205.979 310.023C206.872 310.593 206.473 311.524 205.979 312.227C203.987 315.233 201.96 318.217 199.899 321.176C199.348 321.955 199.291 322.468 200.07 323.076C201.495 324.292 202.844 325.603 204.212 326.876C205.162 327.75 206.112 328.89 205.086 329.783C204.06 330.676 203.718 329.973 203.186 329.479C194.655 321.746 199.937 324.007 191.539 332.405C191.349 332.545 191.215 332.748 191.16 332.977C191.104 333.206 191.131 333.447 191.235 333.659C191.501 334.267 191.577 334.951 190.912 335.331C190.591 335.521 190.214 335.592 189.846 335.533C189.479 335.474 189.143 335.288 188.898 335.008C185.763 331.892 181.944 329.175 179.759 327.123C179.132 326.534 178.752 326.686 178.277 327.332C177.213 328.757 176.092 330.144 174.99 331.512C174.553 332.044 174.173 333.013 173.299 332.462C172.425 331.911 172.729 331.018 173.147 330.353C173.99 328.971 174.93 327.651 175.959 326.401C176.966 325.204 176.928 324.501 175.731 323.361C167.219 315.761 167.143 313.861 165.87 315.894C158.536 327.294 158.27 326.42 159.334 327.294C160.911 328.738 162.45 330.239 163.989 331.721C164.73 332.443 165.167 333.393 164.331 334.191C163.495 334.989 162.716 334.476 162.013 333.754C160.683 332.424 159.296 331.132 157.985 329.783C157.263 329.023 156.769 328.985 156.199 329.935C155.773 330.595 155.269 331.201 154.698 331.74C154.543 331.899 154.336 331.998 154.115 332.018C153.894 332.038 153.673 331.979 153.492 331.851C153.31 331.722 153.181 331.533 153.127 331.318C153.073 331.102 153.098 330.875 153.197 330.676C153.495 329.892 153.884 329.146 154.356 328.453C154.515 328.306 154.639 328.124 154.718 327.922C154.796 327.719 154.828 327.502 154.809 327.285C154.791 327.069 154.723 326.86 154.612 326.674C154.5 326.487 154.348 326.329 154.166 326.211C144.533 316.939 144.951 315.97 143.754 317.813C138.168 326.42 136.667 326.743 138.548 328.377C139.783 329.422 140.885 330.619 142.044 331.759C143.203 332.899 143.944 333.925 143.032 334.799C142.872 334.936 142.686 335.038 142.484 335.099C142.283 335.16 142.071 335.179 141.862 335.154C141.653 335.129 141.451 335.061 141.27 334.954C141.089 334.847 140.932 334.704 140.809 334.533C139.46 333.203 138.073 331.93 136.781 330.543C135.489 329.156 135.28 330.543 134.653 331.36C134.026 332.177 133.418 332.709 132.544 332.12C131.67 331.531 132.088 330.752 132.544 330.049C133 329.346 133.038 329.137 133.361 328.719C133.475 328.592 133.56 328.443 133.612 328.281C133.664 328.119 133.68 327.948 133.66 327.779C133.641 327.61 133.585 327.447 133.497 327.301C133.41 327.155 133.292 327.03 133.152 326.933C129.789 323.551 126.426 320.188 123.082 316.806C121.942 315.628 122.36 316.274 115.9 324.786C114.969 326.021 115.558 325.945 121.505 331.303C122.094 331.835 122.721 332.462 122.037 333.203C121.353 333.944 120.612 333.849 119.814 333.317C115.026 330.049 114.285 326.819 113.031 328.966C112.495 329.741 111.898 330.471 111.245 331.151C110.523 331.987 109.155 331.569 109.535 330.106C110.181 327.522 112.651 326.857 110.96 325.28C101.46 316.312 101.745 315.628 100.776 316.844C98.2425 319.998 95.7471 323.165 93.2898 326.344C92.2828 327.598 93.4608 327.788 96.4628 331.094C97.0708 331.759 97.6408 332.576 96.7668 333.412C95.8928 334.248 95.2468 333.583 94.6388 332.956C90.0218 328.282 91.6558 329.156 89.2808 332.006C89.137 332.229 88.9207 332.397 88.6681 332.48C88.4156 332.563 88.1422 332.556 87.8938 332.462C87.2858 332.158 87.4188 331.531 87.5898 331.075C88.5208 328.415 89.7368 327.978 88.4828 326.743C85.2781 323.589 82.1115 320.422 78.9828 317.243C78.3178 316.559 77.9758 316.616 77.4438 317.357C75.6768 319.751 73.8338 322.088 72.0098 324.444C71.8599 324.588 71.745 324.765 71.6738 324.961C71.6026 325.157 71.577 325.366 71.599 325.573C71.621 325.78 71.69 325.979 71.8007 326.156C71.9114 326.332 72.0609 326.481 72.2378 326.591C73.7749 328 75.2158 329.511 76.5508 331.113C76.9308 331.721 77.1398 332.443 76.5508 333.013C75.9618 333.583 75.2018 333.317 74.6508 332.709C73.4538 331.474 72.1808 330.296 71.0408 328.909C70.1858 327.959 69.6158 327.674 69.0078 329.118C68.6282 329.922 68.1494 330.675 67.5828 331.36C67.5117 331.485 67.4167 331.594 67.3033 331.682C67.1898 331.77 67.0602 331.835 66.9216 331.873C66.7832 331.911 66.6385 331.921 66.4961 331.903C66.3536 331.885 66.2161 331.839 66.0913 331.768C65.9665 331.697 65.857 331.602 65.769 331.489C65.6809 331.375 65.6161 331.246 65.5781 331.107C65.5402 330.969 65.5299 330.824 65.5479 330.682C65.5658 330.539 65.6117 330.402 65.6828 330.277C66.1958 329.08 66.7848 327.921 67.3928 326.762C68.0008 325.603 68.0578 326.287 59.9448 317.262C59.1848 316.407 58.7668 316.426 58.0448 317.395C56.4108 319.751 54.6248 322.012 52.8768 324.273C51.4898 326.078 53.8078 325.926 55.7838 329.688C56.1638 330.391 56.2968 331.094 55.5178 331.588C54.6058 332.5 53.8268 330.98 50.8628 327.484ZM99.6928 314.184C97.9828 312.284 95.1898 309.947 88.9198 303.886C88.1408 303.145 87.7798 303.563 87.3618 304.133C85.3288 306.85 83.2958 309.548 81.3008 312.303C79.3058 315.058 79.1728 313.443 90.2878 324.539C91.0098 325.242 91.2948 325.014 91.8268 324.33C94.2208 321.233 99.4648 314.507 99.6928 314.222V314.184ZM164.559 312.151C161.557 309.111 158.441 306.204 155.249 303.335C154.755 302.898 154.356 302.841 153.957 303.335L146.737 313.538C146.664 313.627 146.61 313.731 146.579 313.842C146.548 313.953 146.54 314.069 146.556 314.183C146.572 314.297 146.612 314.407 146.672 314.505C146.733 314.604 146.813 314.688 146.908 314.754C156.408 323.931 156.636 325.489 157.909 323.513C165.3 312.208 165.3 312.93 164.559 312.189V312.151ZM194.446 297.502C194.313 296.533 192.052 295.165 185.725 288.952C184.832 288.078 184.414 288.363 183.825 289.199C175.902 300.979 175.769 299.668 178.695 302.499C179.607 303.373 180.481 304.266 181.393 305.121C182.932 306.527 184.528 307.876 186.067 309.263C186.542 309.7 186.827 309.833 187.245 309.149C189.297 305.9 193.952 298.452 194.446 297.54V297.502ZM131.879 304.171C131.233 304.171 131.537 304.285 124.868 312.702C124.757 312.805 124.668 312.93 124.608 313.069C124.547 313.208 124.516 313.358 124.516 313.509C124.516 313.661 124.547 313.811 124.608 313.95C124.668 314.089 124.757 314.214 124.868 314.317C126.426 316.217 128.516 317.737 130.112 319.675C131.708 321.613 133.323 322.962 134.957 324.596C135.318 324.938 135.622 325.47 136.135 324.596C138.149 321.537 140.201 318.516 142.253 315.495C142.366 315.37 142.452 315.222 142.503 315.062C142.555 314.901 142.571 314.731 142.551 314.564C142.532 314.396 142.476 314.235 142.388 314.091C142.301 313.946 142.183 313.823 142.044 313.728C139.346 311.239 132.791 304.285 131.879 304.209V304.171ZM144.267 312.189C144.932 312.189 146.167 309.605 151.734 302.157C152.513 301.112 152.228 300.542 151.373 299.877C148.466 297.597 145.673 295.089 142.861 292.771C140.961 291.194 141.303 292.486 134.33 300.675C133.627 301.492 133.608 301.929 134.33 302.689C137.503 305.653 144.077 312.037 144.267 312.227V312.189ZM108.775 302.689C108.623 301.796 106.419 300.333 98.4578 292.619C96.8428 291.061 97.0898 292.163 90.4398 300.219C89.8698 300.884 90.0598 301.226 90.5918 301.758C93.8218 305.007 97.5078 307.8 100.643 311.144C101.213 311.752 101.688 311.695 102.201 311.144C109.63 301.891 108.091 304 108.775 302.822V302.689ZM85.3478 300.561C82.7828 297.958 79.9708 295.64 77.1778 293.284C76.5888 292.79 76.2848 292.961 75.9238 293.436C73.7008 296.4 71.4968 299.364 69.2548 302.309C69.178 302.377 69.1164 302.46 69.0743 302.553C69.0322 302.647 69.0104 302.748 69.0104 302.85C69.0104 302.953 69.0322 303.054 69.0743 303.147C69.1164 303.241 69.178 303.324 69.2548 303.392C71.8388 306.052 74.3848 308.731 76.9878 311.372C77.5958 311.999 78.0898 312.037 78.6978 311.182C86.0888 301.055 86.5068 301.872 85.3478 300.694V300.561ZM110.998 304.361C110.238 305.159 107.597 308.579 104.082 312.892C103.55 313.538 103.721 313.994 104.253 314.488C113.525 323.323 113.278 324.33 114.76 322.221C116.527 319.713 118.313 317.224 120.156 314.754C120.296 314.632 120.405 314.478 120.475 314.305C120.544 314.132 120.572 313.946 120.555 313.76C120.538 313.575 120.478 313.396 120.379 313.238C120.28 313.081 120.145 312.949 119.985 312.854C114.722 308.142 112.423 305.748 110.998 304.551V304.361ZM185.25 312.132C185.25 311.581 185.478 312.132 175.75 302.955C175.123 302.347 174.838 302.613 174.458 303.183C172.684 305.843 170.911 308.484 169.138 311.106C169.022 311.228 168.934 311.374 168.88 311.533C168.825 311.692 168.805 311.861 168.822 312.028C168.838 312.196 168.89 312.358 168.974 312.503C169.058 312.649 169.172 312.775 169.309 312.873C172.216 315.628 175.009 318.421 177.992 321.214C178.619 321.822 179.075 321.974 179.645 321.043C182.02 317.3 184.091 314.526 185.25 312.322V312.132ZM45.6948 302.252C45.6948 301.302 45.5808 301.815 36.4798 292.144C35.0928 290.662 35.1688 291.992 29.8298 298.661C29.0128 299.687 29.0318 299.725 38.1708 309.871C38.8548 310.612 39.3298 310.745 40.0708 309.871C44.0418 304.684 45.0488 303.696 45.6948 302.442V302.252ZM122.303 311.296C123.063 311.201 122.607 311.182 128.003 304.456C129.903 301.986 130.036 301.967 127.68 299.896C125.324 297.825 122.987 295.925 120.631 293.949C120.137 293.55 119.681 293.113 119.092 293.949C117.192 296.495 115.292 299.003 113.278 301.549C113.169 301.639 113.083 301.754 113.027 301.883C112.971 302.013 112.947 302.154 112.956 302.295C112.966 302.436 113.008 302.573 113.081 302.694C113.153 302.815 113.253 302.918 113.373 302.993C123.386 312.607 121.049 310.612 122.303 311.486V311.296ZM57.3228 314.07C56.5438 312.816 58.3678 314.754 48.4498 304.76C48.0318 304.342 47.6518 304.114 47.1768 304.76C45.2768 307.249 43.3768 309.719 41.4768 312.17C41.3776 312.25 41.2976 312.351 41.2427 312.466C41.1877 312.581 41.1592 312.707 41.1592 312.835C41.1592 312.962 41.1877 313.088 41.2427 313.203C41.2976 313.318 41.3776 313.42 41.4768 313.5C44.3078 316.426 47.1768 319.39 49.9318 322.335C50.5018 322.943 50.9388 323.133 51.5278 322.335C55.0998 317.3 56.2398 316.179 57.3228 314.26V314.07ZM172.9 301.093C172.895 300.869 172.833 300.651 172.72 300.458C172.607 300.265 172.447 300.104 172.254 299.991C169.461 297.502 166.554 295.089 163.628 292.79C162.374 291.802 162.925 292.372 156.788 299.725C155.572 301.207 156.94 300.561 165.813 309.586C166.554 310.365 166.972 310.156 167.485 309.377C173.451 300.2 171.931 302.765 172.9 301.093ZM65.5498 303.259C64.8278 302.271 59.0518 296.362 56.8098 294.329C56.3348 293.911 56.0118 293.759 55.5558 294.329C53.6558 296.685 51.9078 299.003 50.0648 301.34C49.9363 301.448 49.8346 301.584 49.7679 301.739C49.7013 301.893 49.6713 302.06 49.6805 302.228C49.6898 302.396 49.7379 302.559 49.821 302.705C49.9042 302.851 50.0202 302.975 50.1598 303.069C52.8768 305.729 55.5558 308.446 58.2348 311.163C58.8238 311.752 59.2228 311.904 59.8118 311.163C62.4908 307.211 64.2198 305.14 65.4548 303.259H65.5498ZM75.9998 314.792C76.2088 313.861 76.2658 314.45 68.2288 305.976C67.5068 305.216 67.0128 305.425 66.4618 306.147C64.6948 308.541 62.9278 310.935 61.1228 313.291C61.0236 313.371 60.9436 313.472 60.8887 313.587C60.8337 313.702 60.8052 313.828 60.8052 313.956C60.8052 314.083 60.8337 314.209 60.8887 314.324C60.9436 314.439 61.0236 314.541 61.1228 314.621C63.6498 317.319 66.1578 320.055 68.7228 322.772C69.2738 323.399 69.6348 323.399 70.1478 322.772C72.9598 318.858 72.0288 320.568 75.9998 314.792ZM189.411 331.246C190.399 330.334 191.672 328.282 195.605 322.981C196.289 322.05 196.042 322.335 188.138 314.754C187.587 314.222 187.169 314.051 186.656 314.754C180.956 323.437 180.196 323.532 181.45 324.558C183.977 326.629 189.221 331.056 189.487 331.246H189.411ZM37.4108 313.177C37.2914 312.949 37.1515 312.733 36.9928 312.531C33.7789 309.321 30.7829 305.899 28.0248 302.29C27.3218 301.359 27.5878 301.72 23.0088 307.401C22.6098 307.876 22.5148 308.275 23.0088 308.769L31.7298 318.801C32.2428 319.409 32.6608 319.314 33.1168 318.801C37.9998 312.626 37.0498 314.032 37.5438 313.177H37.4108Z" fill="#F4B77D"/>
<path d="M168.017 256.234C168.872 256.424 169.632 256.633 169.67 257.735C169.67 260.585 167.276 258.761 164.711 261.858C163.652 262.927 162.248 263.586 160.749 263.718C159.25 263.85 157.752 263.447 156.522 262.58C155.49 261.77 154.21 261.341 152.898 261.365C151.586 261.389 150.323 261.865 149.321 262.713C147.212 264.309 144.761 263.055 142.291 261.782C141.558 261.372 140.738 261.142 139.899 261.113C139.06 261.083 138.225 261.254 137.465 261.611C136.269 262.349 134.851 262.641 133.461 262.436C132.071 262.231 130.797 261.542 129.865 260.49C129.314 259.92 129.029 260.186 128.63 260.604C125.97 263.416 123.5 261.307 122.626 258.704C121.752 256.101 124.526 256.937 124.83 256.804C128.307 255.341 131.936 256.557 135.47 256.177C136.648 256.044 137.845 255.968 139.042 255.911C141.664 255.778 136.116 253.536 141.55 244.511C141.703 244.228 141.932 243.994 142.213 243.836C142.494 243.679 142.813 243.605 143.134 243.623C143.455 243.641 143.765 243.75 144.026 243.938C144.287 244.125 144.49 244.383 144.609 244.682C146.186 248.064 149.226 250.895 148.561 255.151C148.428 255.968 149.207 255.626 149.568 255.626C159.923 255.721 163.552 255.189 168.017 256.234Z" fill="#F4B77D"/>
<path d="M265.886 190.323C265.554 192.032 265.383 193.769 265.373 195.51C265.373 196.346 265.202 197.125 264.29 197.41C262.39 197.923 262.656 195.187 260.091 191.33C259.737 190.725 259.242 190.217 258.647 189.848C256.576 193.99 259.635 196.156 257.963 197.087C257.203 197.505 256.595 197.087 256.063 196.498C254.258 194.598 252.263 192.698 250.572 190.703C249.649 189.167 248.879 187.544 248.273 185.858C247.486 188.318 247.045 190.876 246.962 193.458C246.962 194.237 247.114 195.035 246.24 195.244C245.366 195.453 245.214 194.56 244.967 193.876C243.77 190.684 244.758 187.568 245.423 184.509C245.956 181.694 245.878 178.798 245.195 176.016C244.974 173.955 244.619 171.912 244.131 169.898C244.131 169.594 243.979 169.233 244.34 169.062C244.701 168.891 245.043 169.214 245.138 169.575C245.765 172.216 248.387 173.546 249.261 176.111C250.274 178.525 251.673 180.758 253.403 182.723C254.695 184.395 256.538 185.478 257.906 187.074C258.476 187.739 258.799 188.67 259.996 188.594C260.442 188.587 260.887 188.543 261.326 188.461C262.726 187.92 264.199 187.587 265.696 187.473C266.969 187.473 267.463 186.162 268.508 185.687C269.425 185.116 270.445 184.729 271.51 184.547C273.866 184.414 275.709 182.875 277.818 182.039C279.927 181.203 280.82 181.336 281.428 183.711C281.827 185.764 281.885 187.87 281.599 189.943C281.599 191.577 279.699 192.185 277.799 191.216C276.035 190.314 274.394 189.19 272.916 187.872C272.612 187.606 272.422 187.093 271.909 187.302C270.503 187.853 271.282 190.551 271.434 192.109C271.434 192.774 271.662 193.553 270.902 194.009C269.173 194.693 267.121 191.9 265.886 190.323Z" fill="#F4B77D"/>
<path d="M273.942 164.217C266.342 164.217 262.447 157.073 266.171 150.556C266.681 149.488 267.319 148.486 268.071 147.573C271.016 144.476 274.455 144.343 278.768 147.288C279.999 148.192 280.998 149.375 281.684 150.74C282.369 152.105 282.722 153.612 282.713 155.14C282.703 156.667 282.332 158.171 281.63 159.527C280.928 160.883 279.915 162.054 278.673 162.944C277.228 163.758 275.601 164.196 273.942 164.217Z" fill="#F4B77D"/>
<path d="M54.3404 204.098C52.7064 203.908 52.0794 203.186 52.4404 201.628C52.8014 200.07 50.2934 197.828 53.5044 195.149C53.8815 194.788 54.1117 194.301 54.1504 193.781C54.1993 193.071 54.526 192.41 55.0597 191.94C55.5933 191.471 56.2908 191.231 57.0004 191.273C57.257 191.271 57.5092 191.206 57.7346 191.083C57.96 190.96 58.1516 190.784 58.2924 190.57C58.9597 189.833 59.7587 189.227 60.6484 188.784C60.9349 188.572 61.2635 188.424 61.6119 188.351C61.9603 188.277 62.3205 188.279 62.6681 188.356C63.0157 188.434 63.3426 188.585 63.6268 188.8C63.911 189.014 64.1458 189.287 64.3154 189.601C64.4905 189.944 64.7661 190.226 65.1055 190.41C65.4449 190.593 65.832 190.669 66.2154 190.627C67.0206 190.688 67.7742 191.047 68.3292 191.633C68.8842 192.22 69.2009 192.992 69.2174 193.8C69.1694 194.164 69.25 194.533 69.4454 194.845C72.0674 198.17 70.5854 201.134 67.1274 202.141C68.3624 203.509 69.6164 204.516 69.0274 205.618C68.0964 207.518 65.2274 204.915 63.3274 207.518C61.9404 209.418 60.5344 208.714 60.1164 206.32C60.036 206.084 59.9343 205.855 59.8124 205.637L58.8244 207.043C58.7484 207.216 58.6386 207.372 58.5015 207.502C58.3644 207.633 58.2026 207.735 58.0258 207.802C57.8489 207.869 57.6604 207.9 57.4714 207.894C57.2823 207.888 57.0963 207.844 56.9244 207.765C54.2644 206.549 59.9644 204.725 54.3404 204.098Z" fill="#F4B77D"/>
<path d="M154.185 134.9C159.814 134.021 165.376 132.751 170.829 131.1C170.856 131.399 170.799 131.699 170.665 131.968C170.531 132.236 170.324 132.462 170.069 132.62C168.587 133.798 168.378 135.375 166.516 136.325C165.597 136.898 164.555 137.243 163.476 137.332C159.866 137.332 161.747 141.93 156.845 140.6C156.084 140.279 155.267 140.114 154.441 140.114C153.616 140.114 152.799 140.279 152.038 140.6C149.473 141.949 149.264 136.04 144.913 137.883C143.488 138.491 143.336 136.477 141.36 134.786C140.258 133.855 140.809 132.677 140.809 131.613C140.809 130.549 140.942 131.157 149.625 134.862C150.423 135.204 150.537 135.66 150.271 136.458C150.119 136.933 149.986 137.788 150.784 137.826C151.582 137.864 151.373 137.104 151.449 136.591C151.639 135.394 151.677 134.691 150.309 134.026C141.379 130.226 141.322 130.568 141.531 129.979C141.593 129.868 141.677 129.772 141.778 129.697C141.88 129.622 141.996 129.569 142.12 129.542C143.172 129.258 144.246 129.068 145.331 128.972C147.231 128.972 148.922 128.307 150.727 128.117C151.221 128.117 151.525 127.908 151.772 128.573C153.672 133.399 160.759 132.373 162.526 128.383C162.627 128.118 162.816 127.896 163.062 127.754C163.308 127.612 163.595 127.559 163.875 127.604C165.649 127.562 167.424 127.683 169.176 127.965C169.461 127.996 169.737 128.087 169.986 128.231C170.234 128.375 170.45 128.569 170.62 128.801C171 129.428 171.133 129.922 170.126 130.131C166.687 130.891 163.267 131.822 159.809 132.468C157.624 132.886 155.743 133.304 153.748 133.874C152.551 134.102 153.254 135.014 154.185 134.9Z" fill="#F4B77D"/>
<path d="M162.051 125.4C162.678 129.371 155.534 132.316 152.741 127.87C151.905 126.559 153.349 123.804 153.976 122.493C155.268 119.7 161.234 120.175 162.051 125.4Z" fill="#F4B77D"/>
<path d="M334.4 146.509C333.811 140.201 329.498 134.254 329.479 127.015C329.372 122.322 327.46 117.851 324.14 114.532C322.772 113.012 320.872 111.853 321.081 109.383C321.008 108.966 320.831 108.574 320.568 108.243C318.991 105.393 318.516 98.5146 311.562 95.0946C310.598 94.4767 309.477 94.1482 308.332 94.1482C307.187 94.1482 306.066 94.4767 305.102 95.0946C303.202 96.3676 301.302 97.7736 299.402 99.1416C296.381 101.346 293.873 103.721 295.488 107.977C295.716 108.547 295.298 108.965 294.804 109.231C292.904 110.257 291.004 104.215 292.999 101.422C295.149 98.2506 298.072 95.6806 301.492 93.9546C303.221 93.1376 303.297 91.8456 301.644 90.8956C299.111 89.3357 296.264 88.3562 293.307 88.0277C290.351 87.6992 287.358 88.0298 284.544 88.9956C282.844 89.5038 281.048 89.6079 279.3 89.2996C266.399 88.1026 267.406 92.3206 258.4 93.4986C254.075 94.2041 249.93 95.7535 246.202 98.0586C237.728 102.904 232.902 113.259 228.304 114.855C227.468 115.159 226.575 115.52 226.898 116.546C227.582 118.75 230.964 116.185 232.712 116.147C232.902 115.957 232.921 115.957 232.712 116.147C232.484 117.686 227.183 124.887 226.176 129.77C226.043 130.492 225.739 131.67 226.803 131.67C227.867 131.67 228 132.525 227.981 133.38C227.962 134.235 227.981 134.843 227.981 135.584C227.354 141.113 232.104 145.35 236.208 146.642C236.987 146.889 237.918 147.592 238.716 146.889C239.514 146.186 238.222 145.616 238.146 144.989C237.564 142.56 237.252 140.075 237.215 137.579C237.88 130.872 236.075 121.771 244.701 117.439C247.57 116.014 245.689 119.947 251.427 121.239C251.777 121.309 252.099 121.477 252.358 121.722C252.617 121.967 252.801 122.28 252.89 122.626C254.961 128.326 253.232 130.625 255.151 131.081C256.291 131.366 256.861 130.549 257.298 129.675C257.688 128.842 257.891 127.934 257.891 127.015C257.891 126.095 257.688 125.187 257.298 124.355C256.456 122.278 255.925 120.088 255.721 117.857C255.721 117.344 255.056 116.622 255.721 116.299C256.025 116.235 256.34 116.243 256.64 116.322C256.94 116.401 257.217 116.549 257.45 116.755C258.714 117.587 259.789 118.675 260.607 119.948C261.425 121.221 261.968 122.651 262.2 124.146C262.731 126.212 263.83 128.088 265.373 129.561C265.525 126.179 267.976 123.861 268.622 120.498C270.655 123.842 272.954 126.768 272.27 130.758C272.255 131.127 272.354 131.492 272.555 131.803C272.637 132.013 272.781 132.194 272.967 132.322C273.154 132.45 273.374 132.518 273.6 132.518C273.826 132.518 274.047 132.45 274.233 132.322C274.42 132.194 274.564 132.013 274.645 131.803C275.576 129.903 275.994 123.12 276.317 120.878C276.317 120.536 276.165 120.061 276.602 119.909C277.039 119.757 277.305 120.061 277.59 120.27C278.361 120.773 278.994 121.46 279.432 122.27C279.87 123.079 280.099 123.985 280.098 124.906C280.139 126.259 280.057 127.614 279.851 128.953C279.548 130.35 279.722 131.808 280.345 133.095C280.649 133.741 281.048 134.254 281.865 134.197C283.765 134.197 283.195 131.1 285.399 126.597C285.582 126.281 285.67 125.92 285.653 125.557C285.636 125.193 285.515 124.842 285.304 124.545C284.962 124.013 284.696 123.443 284.373 122.911C284.255 122.767 284.199 122.582 284.217 122.397C284.234 122.212 284.325 122.041 284.468 121.923C284.536 121.843 284.62 121.778 284.716 121.734C284.811 121.69 284.914 121.667 285.019 121.667C285.124 121.667 285.228 121.69 285.323 121.734C285.418 121.778 285.503 121.843 285.57 121.923C287.375 123.671 288.154 128.839 288.553 131.328C288.748 133.774 289.523 136.138 290.814 138.225C292.581 140.714 292.581 143.925 293.398 146.813C293.626 146.712 293.82 146.547 293.955 146.338C294.09 146.128 294.161 145.884 294.158 145.635C294.211 144.314 294.703 143.049 295.557 142.041C296.411 141.032 297.577 140.338 298.87 140.068C301.169 139.251 302.195 139.65 303.202 141.968C304.627 145.046 304.38 150.993 303.867 154.337C303.83 155.257 303.512 156.144 302.954 156.878C302.397 157.612 301.628 158.158 300.751 158.441C300.084 158.618 299.492 159.004 299.06 159.543C301.777 159.771 299.193 161.918 298.167 164.122C297.54 165.471 296.267 166.896 296.856 168.359C298.585 173.565 293.341 176.548 295.279 180.804C296.837 184.262 295.412 184.87 297.445 187.207C298.984 189.107 300.884 187.207 300.827 184.87V182.191C301.668 183.554 302.369 184.999 302.917 186.504C303.392 187.663 303.506 189.259 305.292 189.164C307.078 189.069 307.04 188.043 308.731 179.417C309.042 180.524 309.208 181.667 309.225 182.818C309.189 185.873 310.224 188.844 312.151 191.216C313.101 192.546 314.051 194.123 315.951 193.724C317.851 193.325 318.307 191.558 318.649 189.924C318.989 188.196 319.632 186.543 320.549 185.041C321.164 186.613 321.56 188.263 321.727 189.943C321.736 190.284 321.843 190.616 322.035 190.899C322.227 191.182 322.496 191.404 322.81 191.539C323.912 192.071 325.109 190.494 325.717 189.43C327.075 186.952 327.97 184.248 328.358 181.45C328.358 180.994 328.358 180.044 329.213 180.424C330.79 181.07 331.55 180.196 332.025 179.018C333.458 175.722 334.683 172.34 335.692 168.891C336.167 166.991 336.699 165.091 337.345 163.191C340.423 154.394 334.495 147.497 334.4 146.509ZM246.734 105.203C246.734 104.861 246.734 104.804 245.955 104.842C245.176 104.88 244.473 104.842 244.321 103.816C244.017 101.251 246.373 100.263 247.513 99.4266C247.791 99.1237 248.16 98.9192 248.565 98.8438C248.969 98.7685 249.387 98.8263 249.755 99.0086C250 99.1573 250.195 99.3764 250.314 99.6374C250.432 99.8985 250.47 100.189 250.42 100.472C250.42 101.441 250.762 100.928 250.895 101.46C250.924 101.522 250.939 101.59 250.939 101.659C250.939 101.728 250.924 101.796 250.895 101.859C249.945 103.132 249.09 104.329 248.216 105.431C247.855 105.811 246.791 105.773 246.734 105.203ZM252.111 108.243C251.37 108.471 250.458 107.293 250.8 106.552C250.992 106.099 251.297 105.704 251.687 105.404C252.076 105.105 252.537 104.911 253.023 104.842C253.783 104.728 256.5 106.837 252.111 108.3V108.243ZM310.916 111.625C313.88 108.965 313.595 105.678 312.968 101.954C312.954 101.849 312.976 101.743 313.029 101.651C313.082 101.56 313.165 101.489 313.263 101.45C313.361 101.411 313.469 101.405 313.571 101.435C313.672 101.464 313.761 101.526 313.823 101.612C314.545 102.725 315.002 103.99 315.157 105.307C315.311 106.625 315.161 107.961 314.716 109.212C314.555 110.047 314.14 110.813 313.528 111.405C312.916 111.996 312.137 112.385 311.296 112.518C311.178 112.568 311.044 112.569 310.925 112.521C310.806 112.473 310.71 112.38 310.66 112.261C310.609 112.143 310.608 112.009 310.656 111.89C310.704 111.77 310.798 111.675 310.916 111.625ZM307.116 107.198C307.515 105.849 307.42 105.526 307.876 105.469C307.978 105.456 308.082 105.477 308.171 105.529C308.26 105.58 308.33 105.659 308.37 105.754C308.734 106.564 308.849 107.465 308.7 108.341C308.552 109.217 308.146 110.03 307.534 110.675C307.306 111.093 306.033 111.188 307.192 107.198H307.116ZM300.2 103.968C300.434 102.832 300.987 101.787 301.795 100.955C302.603 100.124 303.632 99.5407 304.76 99.2746C304.855 99.2681 304.95 99.2902 305.033 99.3383C305.115 99.3864 305.181 99.4582 305.222 99.5443C305.263 99.6304 305.277 99.7268 305.263 99.821C305.248 99.9153 305.205 100.003 305.14 100.073C301.872 103.607 301.226 106.932 303.05 110.865C303.089 110.957 303.097 111.059 303.074 111.157C303.051 111.254 302.997 111.342 302.922 111.407C302.846 111.472 302.751 111.512 302.652 111.52C302.552 111.529 302.452 111.505 302.366 111.454C301.268 110.589 300.469 109.401 300.08 108.059C299.692 106.716 299.734 105.285 300.2 103.968ZM314.469 128.668C310.004 131.879 304.361 117.838 303.696 116.774C303.696 116.432 303.696 115.9 303.259 115.976C302.271 116.109 301.891 115.292 301.359 114.779C299.06 118.807 298.604 122.474 300.048 125.324C301.682 119.776 300.979 117.097 302.746 117.325C304.513 117.553 303.259 120.707 302.746 126.198C302.518 128.326 303.012 127.68 302.746 129.105C302.575 130.169 302.271 131.195 301.036 131.48C297.236 132.354 294.804 121.22 298.946 114.855C299.44 114.114 299.953 112.765 301.302 114.057C301.644 114.38 301.739 113.791 301.948 113.639C303.107 112.708 304.171 112.993 304.304 114.399C304.304 115.406 305.235 115.577 305.634 116.299C306.698 118.028 307.876 119.681 309.054 121.334C309.452 121.889 309.956 122.36 310.536 122.721C309.776 117.021 303.905 115.558 305.634 113.715C306.204 113.107 306.831 113.183 307.534 113.715C309.578 114.996 311.306 116.723 312.589 118.766C313.873 120.809 314.678 123.116 314.944 125.514C314.981 125.821 315.038 126.126 315.115 126.426C315.254 126.815 315.269 127.239 315.156 127.637C315.044 128.035 314.81 128.389 314.488 128.649L314.469 128.668Z" fill="#F4B77D"/>
<path d="M303.449 259.768C304.844 262.939 306 266.21 306.907 269.553C308.408 277.153 316.654 284.544 318.307 286.995C319.105 288.173 320.454 287.793 321.765 287.926C320.245 295.241 322.088 306.508 322.411 311.448C322.886 319.048 321.062 323.361 317.129 340.233C317.106 340.492 317.03 340.744 316.906 340.973C316.782 341.201 316.612 341.402 316.407 341.562C316.203 341.723 315.967 341.839 315.715 341.905C315.464 341.97 315.201 341.983 314.944 341.943C307.002 341.943 299.06 341.278 291.118 341.639C279.034 342.19 266.969 341.772 254.885 341.81C247.106 342.1 239.326 341.235 231.8 339.245C229.9 338.694 225.511 338.637 226.1 335.863C226.193 335.306 226.489 334.804 226.932 334.453C227.374 334.102 227.931 333.927 228.494 333.963C230.338 333.563 232.015 332.608 233.301 331.227C242.63 324.14 252.168 315.78 256.101 304.456C256.526 303.282 257.047 302.144 257.659 301.055C257.85 300.603 258.142 300.2 258.511 299.876C258.881 299.553 259.319 299.317 259.792 299.188C260.266 299.058 260.763 299.037 261.246 299.127C261.729 299.217 262.185 299.415 262.58 299.706C265.069 301.074 267.349 303.506 273.22 300.808C276.196 299.361 278.763 297.193 280.687 294.5C285.087 289.331 289.161 283.893 292.885 278.217C297.122 271.472 300.751 264.366 303.449 259.768Z" fill="#FADF8F"/>
<path d="M131.994 118.009V112.518C131.994 111.112 132.602 110.618 133.894 110.618C134.83 110.561 135.769 110.561 136.706 110.618C142.672 111.169 148.619 110.466 154.566 110.618C172.483 111.169 180.862 111.929 183.066 111.777C184.662 111.663 185.327 112.366 185.612 113.829C186.189 116.962 186.45 120.144 186.391 123.329C186.391 128.288 186.695 133.266 186.505 138.206C186.144 148.238 187.284 158.251 186.923 168.264C186.809 171.19 185.954 172.216 183.123 172.064C177.176 171.722 171.21 171.665 165.263 171.874C158.195 172.14 128.783 172.121 128.574 172.102C126.674 172.102 126.123 171.627 126.104 169.822C125.876 147.763 127.377 149.188 126.313 126.92C126.313 125.533 126.75 125.02 128.099 125.02C132.697 125.02 132.013 125.02 132.013 118.028L131.994 118.009ZM156.561 158.023C162.907 158.023 165.244 157.244 169.557 153.729C172.539 151.642 174.638 148.52 175.447 144.97C175.869 143.157 175.658 141.255 174.849 139.578C174.041 137.902 172.682 136.553 171.001 135.755C170.698 135.608 170.445 135.374 170.276 135.083C170.107 134.792 170.028 134.457 170.051 134.121C169.986 133.14 170.129 132.156 170.469 131.233C171.039 129.903 170.469 129.333 169.367 129.086C168.743 128.923 168.108 128.808 167.467 128.744C164.484 128.611 161.976 127.813 160.741 124.716C160.475 123.855 159.92 123.113 159.169 122.615C158.418 122.118 157.517 121.896 156.621 121.988C155.725 122.08 154.888 122.48 154.254 123.119C153.619 123.759 153.226 124.598 153.141 125.495C151.868 130.302 146.928 127.395 142.349 129.77C141.494 130.207 140.449 130.625 140.582 131.86C140.886 133.893 139.765 134.919 138.302 136.059C131.728 141.208 131.937 150.404 139.879 154.223C145.061 156.79 150.778 158.092 156.561 158.023Z" fill="#FADF8F"/>
<path d="M324.045 287.281C327.066 286.122 328.814 283.48 330.771 281.276C333.469 278.16 336.357 275.215 338.77 271.776C339.948 270.142 341.639 270.447 342.361 272.347C344.261 277.344 343.805 290.72 345.724 297.864C346.503 300.79 347.814 303.564 348.384 306.528C349.239 311.012 349.315 316.389 349.809 326.174C349.866 329.101 349.489 332.021 348.688 334.838C346.56 343.388 339.492 339.93 329.175 341.222C328.244 341.336 328.016 340.918 327.845 340.006C326.382 332.976 326.591 325.68 324.615 318.726C324.481 318.273 324.481 317.791 324.615 317.339C325.736 312.893 324.615 310.081 324.482 299.726C324.449 296.55 324.246 293.379 323.874 290.226C323.703 289.314 323.589 287.452 324.045 287.281Z" fill="#FADF8F"/>
<path d="M109.308 275.367C108.149 277.666 107.104 280.231 104.159 280.858C100.359 281.656 95.4946 280.288 95.3616 279.813C94.6966 277.096 92.5496 275.196 91.5616 272.688C88.7889 265.969 87.6117 258.698 88.1226 251.446C88.1226 250.211 88.7496 249.717 89.9276 249.945C90.3836 249.945 105.698 251.066 107.826 250.515C111.056 249.66 110.999 249.679 111.721 253.061C113.263 260.566 112.419 268.366 109.308 275.367Z" fill="#FADF8F"/>
<path d="M250.363 66.0443C250.534 68.7233 247.741 67.9443 243.599 70.1673C242.421 70.8133 241.832 69.7303 241.49 68.7233C240.312 65.3223 235.657 52.2503 234.555 49.0773C233.662 46.4933 234.156 45.5433 236.607 44.3273C238.051 43.6053 239.4 42.6743 240.806 41.8953C241.178 41.6441 241.608 41.4905 242.055 41.4487C242.502 41.4068 242.953 41.4781 243.365 41.656C243.778 41.8338 244.139 42.1125 244.415 42.4664C244.692 42.8203 244.875 43.2381 244.948 43.6813C247.722 57.4183 249.793 62.7003 250.363 66.0443Z" fill="#FADF8F"/>
<path d="M298.681 197.6C299.466 194.45 300.66 191.415 302.234 188.575C303.013 187.321 304.229 187.378 305.046 188.575C305.333 188.955 305.707 189.258 306.138 189.46C306.568 189.662 307.041 189.756 307.516 189.734C308.808 189.734 309.416 190.475 308.827 191.634C307.863 193.706 306.698 195.679 305.35 197.524C304.229 198.93 299.327 199.291 299.137 199.196C298.643 199.063 298.624 198.55 298.681 197.6Z" fill="#FADF8F"/>
<path d="M79.0213 262.827C79.0213 259.255 79.8763 257.773 82.1373 257.127C82.6808 256.966 83.2551 256.937 83.8122 257.043C84.3692 257.149 84.8928 257.387 85.3391 257.736C85.7855 258.086 86.1417 258.538 86.378 259.053C86.6143 259.568 86.7237 260.133 86.6973 260.699C86.6973 261.402 86.2603 261.44 85.7283 261.25C84.8733 260.946 83.9423 258.837 82.4983 259.54C82.1666 259.702 81.8893 259.958 81.7003 260.275C81.5114 260.592 81.4189 260.957 81.4343 261.326C81.1381 262.329 81.2179 263.405 81.6587 264.353C82.0994 265.301 82.8708 266.056 83.8283 266.475C85.1798 267.049 86.4061 267.882 87.4383 268.926C89.0153 270.617 88.3313 273.695 87.2483 273.676C86.9063 273.676 86.5073 273.429 86.5643 273.144C87.1723 269.743 84.0943 269.344 82.2893 268.28C80.0473 266.874 78.7553 265.259 79.0213 262.827Z" fill="#FADF8F"/>
<path d="M34.4667 263.246C34.5296 259.114 35.9295 255.114 38.4567 251.846C38.6952 251.63 38.9996 251.501 39.3204 251.481C39.6412 251.46 39.9595 251.548 40.2237 251.732C40.8507 252.15 40.4897 252.758 40.2237 253.271C37.5067 258.515 35.9487 263.379 37.6967 268.984C37.8542 269.309 37.9875 269.646 38.0957 269.991C38.2097 270.561 38.3047 271.207 37.6017 271.473C36.4997 271.929 35.4547 269.839 35.1697 268.68C34.6835 266.91 34.4468 265.081 34.4667 263.246Z" fill="#FADF8F"/>
<path d="M51.0907 280.972C49.1907 280.839 45.6947 280.573 45.4857 278.787C45.1817 276.146 51.1857 274.854 54.0167 277.21C55.8217 278.692 54.2827 281.2 51.0907 280.972Z" fill="#FADF8F"/>
<path d="M39.4824 274.759C38.8364 274.759 38.2474 274.759 38.1904 273.885C38.1584 273.718 38.1649 273.547 38.2092 273.382C38.2536 273.218 38.3346 273.067 38.4463 272.938C38.5579 272.81 38.6972 272.709 38.8537 272.643C39.0101 272.577 39.1796 272.547 39.3493 272.555C40.6793 272.479 41.2114 274.664 39.4824 274.759Z" fill="#FADF8F"/>
<path d="M154.964 151.677C150.955 151.278 146.813 151.677 143.127 149.397C142.524 149.135 142.01 148.702 141.649 148.152C141.288 147.602 141.095 146.958 141.094 146.3C141.094 145.958 140.999 145.521 141.531 145.464C142.063 145.407 142.082 145.768 142.139 146.053C142.633 148.466 144.685 149.017 146.547 149.492C150.327 150.535 154.287 150.749 158.156 150.119C159.392 149.895 160.566 149.414 161.604 148.707C162.641 148 163.519 147.083 164.179 146.015C164.597 145.388 164.977 144.476 165.604 144.913C166.231 145.35 165.604 145.597 165.604 145.882C164.891 147.257 163.882 148.457 162.65 149.397C161.419 150.336 159.994 150.992 158.479 151.316C157.341 151.658 156.148 151.781 154.964 151.677Z" fill="#FADF8F"/>
<path d="M226.557 133.874C225.929 134.579 225.229 135.216 224.467 135.774C223.346 136.401 221.712 136.078 222.567 134.064C223.422 132.05 225.056 129.713 224.942 128.003C224.676 123.937 226.519 121.315 228.457 118.237C225.755 117.969 223.256 116.685 221.465 114.646C221.152 114.273 220.984 113.802 220.99 113.316C220.99 113.164 221.655 112.841 221.997 112.86C233.72 113.468 235.562 97.2988 251.617 91.8268C254.353 90.8958 272.879 86.4878 280.631 88.1598C280.958 88.2401 281.3 88.2442 281.629 88.1717C281.959 88.0993 282.267 87.9522 282.531 87.7418C285.21 84.3218 288.934 83.9418 292.734 84.4548C299.194 85.4618 300.733 86.6968 303.944 91.8838C312.152 91.2188 315.04 89.6228 319.79 101.099C320.417 102.638 320.796 104.291 321.442 105.811C321.951 106.703 322.208 107.716 322.188 108.743C322.168 109.77 321.871 110.772 321.328 111.644C321.499 111.853 321.595 112.062 321.766 112.138C323.395 112.991 324.789 114.233 325.823 115.755C326.857 117.276 327.5 119.029 327.694 120.859C328.256 123.668 328.63 126.512 328.814 129.371C329.127 133.255 330.686 136.934 333.26 139.859C335.16 142.158 334.933 144.875 335.294 147.459L334.857 147.82L332.064 145.806C332.199 146.589 332.501 147.334 332.95 147.99C333.4 148.645 333.985 149.197 334.667 149.606C336.44 150.996 337.86 152.786 338.809 154.831C339.904 156.988 340.135 159.482 339.455 161.804C338.467 166.155 339.264 166.934 336.585 165.072C336.832 169.043 337.517 171.703 334.439 174.401C333.484 175.049 332.708 175.926 332.18 176.951C331.652 177.977 331.39 179.119 331.417 180.272C331.419 180.443 331.377 180.612 331.293 180.762C331.21 180.912 331.089 181.038 330.942 181.127C330.22 181.412 329.289 180.12 329.042 179.873C327.94 181.621 326.876 183.426 325.699 185.136C324.537 186.513 323.869 188.238 323.799 190.038C323.799 190.988 322.811 191.577 322.203 189.829C322.013 189.259 321.709 188.252 321.082 186.238C319.733 187.986 318.46 189.525 317.282 191.14C316.94 191.555 316.687 192.036 316.538 192.553C316.389 193.07 316.347 193.612 316.414 194.145C316.482 194.679 316.658 195.193 316.931 195.656C317.204 196.12 317.569 196.522 318.003 196.84C348.802 223.725 341.697 256.804 344.357 294.557C344.965 303.164 346.484 311.657 347.492 320.321C347.928 324.121 348.08 327.921 348.346 331.854C348.479 333.754 349.087 332.519 349.201 331.987C351.557 320.587 351.234 313.785 350.835 297.977C350.835 295.146 350.645 264.347 350.835 260.338C351.188 252.076 353.993 244.105 358.891 237.443C362.046 233.092 367.176 235.79 365.732 239.077C361.552 248.577 359.1 251.009 358.417 262.333C356.611 291.479 357.771 305.235 357.353 328.358C357.182 332.803 356.109 337.166 354.199 341.183C353.818 342.038 352.127 342.228 352.621 340.48C353.706 337.722 354.545 334.873 355.13 331.968C357.144 311.068 353.913 287.66 356.896 256.766C357.474 251.021 359.429 245.5 362.596 240.673C364.933 237.082 362.92 236.189 360.943 239.134C348.556 257.64 353.439 270.75 352.641 321.271C352.611 327.091 351.184 332.818 348.48 337.972C346.808 341.126 345.952 336.908 346.01 336.281C346.768 328.424 346.222 320.495 344.394 312.816C342.927 305.119 342.195 297.3 342.21 289.465C341.963 283.1 341.431 276.754 340.975 269.933C337.498 274.778 333.375 282.359 327.485 288.629C326.804 289.286 325.945 289.729 325.014 289.902C320.949 290.738 318.061 288.876 315.514 285.874C309.202 278.622 305.002 269.775 303.374 260.3C303.28 259.8 303.16 259.305 303.012 258.818C296.096 271.757 296.419 272.65 283.537 291.118C281.079 294.402 277.883 297.064 274.209 298.889C268.699 301.834 263.549 299.478 257.735 297.521C255.835 303.506 255.152 307.553 250.801 310.156C248.901 311.353 250.25 312.208 249.357 313.5C248.141 315.286 246.754 316.958 245.557 318.782C242.954 323.019 238.812 325.394 234.822 327.978C225.436 334.077 224.714 335.084 224.353 335.122C221.617 335.388 222.833 333.545 223.023 333.393C226.291 330.98 229.521 328.472 232.979 326.325C237.387 323.589 241.813 320.91 244.967 316.654C248.121 312.398 248.065 312.474 247.989 312.075C247.286 308.693 251.124 308.275 252.815 304.475C253.917 302.024 254.714 299.421 255.626 296.875L241.966 290.415C239.857 295.357 237.213 300.052 234.081 304.418C233.496 305.558 233.05 306.763 232.751 308.009C231.782 310.403 233.492 308.123 217.551 327.009C217.02 327.718 216.443 328.391 215.822 329.023C215.366 329.422 213.713 328.89 214.549 327.769C227.431 310.517 230.167 309.453 230.186 307.61C230.301 305.667 231.003 303.806 232.2 302.271C235.012 298.091 237.691 293.797 240.484 289.446C237.995 287.945 225.132 279.946 219.356 275.842C211.661 270.465 203.187 263.055 201.515 262.295C201.195 262.21 200.9 262.053 200.651 261.836C200.402 261.619 200.205 261.348 200.077 261.044C199.949 260.739 199.892 260.409 199.91 260.08C199.929 259.75 200.023 259.429 200.185 259.141C197.62 258.495 195.131 257.792 192.585 257.241C189.279 256.557 186.22 255.55 184.225 252.567C183.598 251.655 181.907 252.111 181.147 248.767C180.672 246.563 179.931 244.397 179.608 242.174C179.507 240.635 179.538 239.09 179.703 237.557C179.912 228.741 179.931 230.66 182.002 228.057C180.976 225.796 176.929 216.657 176.074 214.757C175.599 213.788 175.77 213.237 176.777 212.857C177.735 212.339 178.725 211.882 179.741 211.489C180.059 211.469 180.378 211.53 180.667 211.666C180.956 211.803 181.206 212.009 181.394 212.268C198.817 243.086 191.407 235.581 193.516 228.399C193.616 227.992 193.83 227.623 194.133 227.334C194.435 227.044 194.814 226.847 195.225 226.766C195.636 226.684 196.061 226.721 196.451 226.872C196.842 227.023 197.181 227.283 197.43 227.62C197.694 227.878 197.901 228.189 198.038 228.532C199.14 231.686 201.496 233.928 203.51 236.455C204.535 237.942 205.359 239.558 205.961 241.262C206.455 242.44 206.702 243.732 207.101 245.062C210.502 244.625 213.181 246.411 215.993 247.665C248.293 261.915 250.288 262.2 262.733 270.465C263.474 270.959 264.253 270.636 263.341 269.667C262.165 268.458 260.895 267.346 259.541 266.342C258.623 265.844 257.615 265.534 256.576 265.43C255.664 265.164 255.835 264.632 256.576 264.746C258.818 265.05 258.686 264.062 264.328 269.762C264.456 270.022 264.522 270.308 264.522 270.598C264.522 270.888 264.456 271.174 264.328 271.434C263.493 272.308 260.985 271.149 260.073 270.484C254.276 266.559 248.015 263.368 241.434 260.984C232.428 257.336 212.307 247.684 208.83 246.601L201.971 260.243C206.36 263.606 210.844 266.703 214.948 270.237C221.254 275.479 227.92 280.272 234.898 284.582C242.67 289.768 251.106 293.884 259.978 296.818C265.678 298.604 270.352 300.428 275.178 296.476C277.609 294.592 279.787 292.402 281.657 289.959C299.973 264.062 302.557 254.334 311.848 237.88C313.273 235.353 313.52 237.082 312.93 238.336C311.544 241.338 310.081 244.321 308.846 247.532L315.439 242.744C316.902 241.661 316.54 243.067 316.104 243.39C307.591 249.698 309.225 248.045 306.395 251.484C303.563 254.923 304.361 258.134 305.235 261.877C307.55 270.761 312.08 278.913 318.403 285.57C319.233 286.548 320.286 287.313 321.472 287.803C322.659 288.292 323.945 288.49 325.223 288.382C326.725 288.382 326.477 287.869 336.624 274.607C339.59 270.97 341.033 266.326 340.651 261.649C339.416 243.827 339.777 227.05 325.451 207.879C321.765 202.92 314.773 196.935 310.726 193.363C309.947 192.679 309.055 192.147 308.01 191.463L304.21 197.961H313.216C315.591 198.075 315.02 199.405 314.089 199.519C311.971 199.85 309.831 200.021 307.687 200.032C301.799 199.994 295.971 201.205 290.587 203.585C282.347 206.934 275.736 213.36 272.157 221.502C270.492 225.173 268.296 228.579 265.64 231.61C264.933 232.275 264.42 233.119 264.155 234.053C263.891 234.986 263.885 235.974 264.139 236.911C264.224 237.692 264.107 238.482 263.797 239.205C263.487 239.927 262.996 240.557 262.371 241.034C261.769 241.697 261.093 242.289 260.358 242.801C259.551 243.302 258.955 244.081 258.682 244.99C258.409 245.9 258.478 246.878 258.876 247.741C259.085 248.425 259.635 249.261 258.363 249.641C257.698 249.831 258.363 253.023 253.062 262.048C252.511 262.998 250.877 263.112 251.675 261.212C257.071 248.33 257.869 248.482 257.375 243.523C255.817 228.038 268.413 213.123 279.376 192.888L271.776 188.727C271.475 189.742 271.428 190.815 271.64 191.852C271.852 192.89 272.317 193.859 272.992 194.674C273.302 195.122 273.539 195.615 273.696 196.137C271.625 196.137 273.563 197.03 266.419 193.306C263.968 200.906 264.689 199.006 263.531 200.241C263.284 199.861 262.885 199.538 262.828 199.139C262.178 196.396 260.745 193.901 258.705 191.957C258.365 194.107 258.649 196.309 259.521 198.303C259.769 199.082 260.092 200.545 259.883 200.621C258.686 201.172 258.477 199.823 257.831 199.234C256.774 198.08 255.61 197.031 254.354 196.099C253.008 195.362 251.824 194.362 250.874 193.157C249.924 191.952 249.227 190.568 248.825 189.088C245.804 195.225 248.349 197.315 249.242 199.139C249.399 199.577 249.513 200.028 249.585 200.488C249.087 200.379 248.611 200.187 248.178 199.918C247.19 198.93 246.279 197.771 245.328 196.783C244.005 195.532 243.092 193.908 242.712 192.126C242.332 190.345 242.503 188.49 243.201 186.808C244.366 183.595 244.278 180.06 242.954 176.909C242.533 175.136 242.367 173.313 242.46 171.494C242.346 168.72 241.662 168.112 238.964 168.359C238.605 168.416 238.243 168.454 237.881 168.473C235.107 168.473 233.967 167.029 234.993 164.464C237.881 157.244 240.883 154.185 239.002 150.005C238.773 149.474 238.362 149.042 237.843 148.789C235.059 147.89 232.526 146.348 230.452 144.286C227.906 141.284 225.721 138.206 226.937 133.874H226.557ZM258.857 189.069L264.746 196.916L265.355 189.088L270.428 193.667C270.903 193.268 270.789 194.256 270.789 186.067C266.989 187.359 263.189 189.221 258.8 189.126C255.114 186.694 255 187.815 250.725 180.652C242.973 167.694 245.69 171.247 243.125 168.302C243.125 169.499 243.714 170.525 243.657 171.494C243.353 176.529 245.557 179.664 245.291 181.583C244.968 183.825 244.606 186.086 244.17 188.309C243.802 189.515 243.811 190.805 244.195 192.006C244.578 193.208 245.318 194.264 246.317 195.035C247.355 191.371 247.86 187.576 247.817 183.768C247.889 183.229 247.996 182.696 248.141 182.172C248.445 182.685 248.977 183.16 249.053 183.692C249.851 189.392 252.378 193.705 257.755 195.966C257.565 195.168 257.45 194.353 257.412 193.534C257.279 192.736 257.331 191.918 257.565 191.144C257.799 190.369 258.209 189.659 258.762 189.069H258.857ZM337.63 161.614C338.315 159.694 338.233 157.585 337.403 155.724C336.48 153.731 335.052 152.015 333.26 150.746C332.251 150.08 331.429 149.166 330.873 148.091C330.318 147.017 330.047 145.818 330.087 144.609C330.087 142.196 331.988 143.963 333.375 145.084C333.325 142.972 332.445 140.964 330.923 139.498C326.288 134.026 327.58 130.739 326.25 123.443C325.49 119.282 324.35 115.273 320.55 113.468L312.607 117.021C314.698 120.068 315.944 123.615 316.217 127.3C316.274 127.683 316.225 128.075 316.075 128.433C315.926 128.79 315.681 129.1 315.368 129.329C315.056 129.558 314.686 129.697 314.3 129.731C313.914 129.765 313.526 129.693 313.178 129.523C312.025 129.157 310.985 128.503 310.157 127.623C308.504 125.609 305.387 121.106 304.267 119.377C303.887 121.505 304.152 125.495 303.278 129.732C303.183 130.167 302.99 130.574 302.713 130.923C302.437 131.272 302.084 131.554 301.683 131.746C301.008 131.723 300.349 131.538 299.76 131.208C299.172 130.877 298.671 130.41 298.301 129.846C297.296 128.378 296.594 126.725 296.235 124.983C295.876 123.241 295.868 121.445 296.21 119.7C297.198 114.817 298.965 112.879 303.012 112.727C304.871 112.407 306.782 112.714 308.447 113.601C309.32 114.19 310.347 115.064 311.278 115.026C312.7 115.027 314.108 114.738 315.415 114.176C316.721 113.614 317.9 112.791 318.878 111.758C319.528 111.146 319.97 110.346 320.14 109.469C320.311 108.593 320.201 107.685 319.828 106.875C317.928 102.125 316.844 94.4298 310.935 93.0428C309.331 92.6395 307.653 92.6238 306.04 92.9972C304.428 93.3705 302.928 94.122 301.664 95.1897C299.244 97.1905 296.929 99.315 294.729 101.555C293.018 103.284 294.424 106.058 295.146 109.155C295.469 110.523 294.235 110.618 293.741 109.155C292.411 105.184 290.719 102.581 294.463 99.6548C295.583 98.7998 296.61 97.7548 297.75 96.7668C283.367 90.5348 278.845 86.8868 265.83 91.0668C259.94 92.9668 255.702 91.7508 250.763 93.9928C236.152 100.567 235.107 110.96 225.607 113.772C224.961 113.981 224.277 114.095 223.612 114.247C224.573 115.173 225.693 115.92 226.918 116.451C227.552 116.855 228.317 116.997 229.054 116.848C229.791 116.699 230.442 116.271 230.87 115.653C231.592 114.829 232.423 114.107 233.34 113.506C233.762 113.287 234.218 113.139 234.689 113.069L234.993 113.62C234.366 114.19 233.796 114.817 233.093 115.349C223.593 123.196 227.545 126.749 224.22 133.418C225.132 133.171 224.866 132.867 228.02 129.618C229.046 128.535 229.654 129.618 229.521 130.264C228.989 133.209 226.652 136.553 229.806 140.809C231.754 143.652 234.535 145.822 237.767 147.022C236.646 136.344 234.879 129.447 239.534 120.954C240.166 119.683 241.126 118.604 242.315 117.829C243.505 117.054 244.879 116.611 246.298 116.546C249.091 116.356 246.83 119.852 250.687 119.738C253.898 119.738 253.309 122.949 253.385 124.222C253.594 127.395 253.917 127.68 257.185 127.585C257.185 127.585 257.355 127.585 257.735 127.262C256.628 125.034 255.738 122.706 255.076 120.308C254.734 117.572 255.987 116.945 258.21 118.693C261.402 121.201 261.212 122.493 261.592 126.673C261.695 127.482 261.997 128.252 262.471 128.916C262.946 129.579 263.577 130.114 264.31 130.473C264.831 128.64 265.505 126.854 266.324 125.134C267.08 124.1 267.62 122.925 267.91 121.677C268.201 120.43 268.236 119.137 268.015 117.876C267.882 117.344 268.736 115.577 269.401 117.572C269.743 118.541 269.63 119.795 270.219 120.498C271.268 121.734 272.049 123.174 272.514 124.727C272.978 126.281 273.115 127.914 272.917 129.523C272.961 130.428 273.127 131.322 273.41 132.183C273.733 131.639 274.019 131.074 274.266 130.492C275.431 128.489 275.779 126.113 275.235 123.861C275.003 121.684 274.914 119.494 274.969 117.306C274.969 116.071 276.47 116.109 276.355 117.306C276.297 117.729 276.399 118.159 276.642 118.51C276.885 118.862 277.25 119.11 277.667 119.206C284.488 121.923 277.268 129.542 281.98 133.684C282.474 132.392 282.835 131.119 283.424 129.884C284.697 127.281 285.476 124.716 283.633 122.056C283.5 121.866 283.367 120.726 284.64 122.056C290.34 127.756 285.267 131.556 289.998 138.225C290.929 139.498 291.479 142.272 292.676 146.984C293.892 143.184 294.253 139.384 298.376 138.681C299.313 138.541 300.27 138.722 301.091 139.195C301.912 139.667 302.549 140.403 302.898 141.284C305.087 145.351 305.812 150.046 304.951 154.584C304.533 157.415 303.164 159.771 299.688 159.79C298.927 159.79 298.206 161.69 296.021 164.768C295.471 165.332 295.152 166.082 295.127 166.87C295.103 167.658 295.374 168.426 295.887 169.024C299.27 174.021 291.403 177.137 294.938 180.652C296.438 182.134 297.844 183.73 299.365 185.345C299.449 184.899 299.499 184.449 299.517 183.996C299.517 182.476 299.175 180.975 299.232 179.474C299.259 179.12 299.372 178.777 299.561 178.476C299.749 178.175 300.008 177.924 300.314 177.745C300.809 177.612 301.721 178.22 302.101 178.771C302.481 179.322 302.537 179.512 304.855 185.934C305.101 184.931 305.419 183.946 305.805 182.989C306.964 180.728 308.675 178.714 308.409 175.921C308.409 175.674 308.922 175.18 309.207 175.18C309.393 175.222 309.565 175.313 309.705 175.443C309.846 175.573 309.949 175.738 310.005 175.921C310.252 178.714 310.347 181.526 310.65 184.3C311.088 188.537 312.076 188.727 314.717 191.691C316.749 188.537 319.961 186.276 320.303 182.191C320.303 181.982 320.815 181.64 321.062 181.659C321.803 181.659 321.842 182.685 322.564 186.504C323.495 185.155 324.178 184.053 324.976 183.046C326.512 181.297 327.321 179.026 327.238 176.7V171.988C327.265 171.199 327.501 170.432 327.922 169.765C328.342 169.097 328.932 168.553 329.632 168.188C330.677 167.58 331.398 167.998 331.303 169.214C331.208 170.791 330.487 174.211 329.955 176.928C331.152 175.617 332.215 174.439 333.317 173.299C336.965 169.499 334.78 167.029 333.317 161.5C332.896 160.123 332.641 158.7 332.557 157.263C332.557 156.674 333.964 154.28 335.123 157.263C336.814 161.5 336.833 164.711 337.63 161.614ZM276.317 120.232C276.317 121.334 276.545 122.36 276.526 123.367C276.713 125.427 276.579 127.504 276.128 129.523C275.368 131.651 274.531 133.456 275.994 135.527C276.336 136.002 275.615 137.104 275.007 136.401C273.316 134.501 271.34 132.734 271.34 129.884C271.34 125.438 271.814 125.324 269.706 122.284C267.483 125.932 264.88 128.991 266.932 132.43C267.54 133.437 266.571 133.874 265.963 133.494C263.761 131.682 261.233 130.308 258.515 129.447C258.283 129.412 258.046 129.437 257.827 129.52C257.609 129.603 257.414 129.74 257.264 129.919C257.113 130.099 257.011 130.313 256.967 130.543C256.923 130.773 256.939 131.011 257.014 131.233C257.147 131.689 257.47 132.069 257.584 132.506C258.116 134.406 256.653 133.475 256.444 133.228C254.905 131.461 253.879 129.428 252.834 129.561C251.475 129.684 250.171 130.15 249.041 130.914C247.911 131.678 246.994 132.716 246.374 133.931C245.424 136.04 244.72 133.931 244.91 133.171C245.955 129.371 248.901 128.934 252.644 127.471C252.511 125.894 252.321 124.298 252.264 122.702C252.131 119.339 248.331 123.139 246.944 118.712C246.64 117.724 246.202 117.705 245.328 117.895C244.611 118.058 243.946 118.4 243.394 118.888C242.843 119.376 242.424 119.995 242.175 120.688C239.28 126.939 238.188 133.875 239.021 140.714C239.325 144.077 240.427 147.345 240.921 150.689C241.624 155.743 239.838 157.586 236.836 164.616C236.608 165.148 236.437 166.022 236.703 166.326C236.969 166.63 237.824 166.592 238.432 166.649C239.04 166.706 244.854 164.559 247.551 170.259C247.76 170.696 253.86 181.013 256.064 184.338C256.696 185.516 257.753 186.409 259.02 186.836C260.286 187.263 261.668 187.192 262.885 186.637C268.148 184.87 273.391 182.97 278.635 181.089C280.535 180.405 281.581 180.766 282.075 182.704C282.45 184.113 282.667 185.56 282.721 187.017C282.82 189.757 282.26 192.481 281.087 194.959C281.453 195.002 281.822 195.002 282.189 194.959C286.616 194.123 291.062 193.325 295.489 192.413C296.876 192.147 298.604 191.919 297.787 189.677V189.525C298.737 186.276 296.344 184.015 293.817 181.811C291.29 179.607 292.563 176.985 294.444 173.793C294.833 173.303 295.065 172.707 295.109 172.083C295.153 171.459 295.007 170.836 294.691 170.297C292.962 167.352 293.285 165.471 295.678 162.887C296.97 161.481 298.3 158.46 299.478 158.289C300.226 158.31 300.958 158.075 301.552 157.622C302.147 157.169 302.569 156.526 302.746 155.8C303.677 151.202 303.677 145.92 300.846 142.101C299.82 140.695 298.852 140.486 297.56 141.607C296.724 142.329 296.382 143.697 295.508 144.248C293.608 145.464 294.31 147.212 294.253 148.827C294.253 149.701 294.253 150.727 292.942 149.568C290.814 147.801 290.701 145.103 289.846 142.728C288.649 139.365 286.654 135.812 286.407 134.482C286.027 132.24 286.046 129.941 285.875 127.509C285.571 128.411 285.197 129.288 284.753 130.131C283.986 131.097 283.552 132.286 283.518 133.519C283.484 134.752 283.851 135.964 284.564 136.971C284.906 137.465 284.165 138.358 283.689 137.845C281.353 135.299 278.294 133.152 278.826 129.029C278.997 127.585 279.073 126.122 279.301 124.678C279.719 122.341 278.939 121.087 276.317 120.232ZM182.211 229.653C181.385 230.684 180.911 231.953 180.86 233.273C180.809 234.593 181.182 235.895 181.926 236.987C182.743 237.994 183.826 238.887 184.643 239.799C185.46 240.711 185.631 242.212 184.301 240.996L181.109 238.089C179.418 242.592 183.408 244.815 184.681 247.076C185.251 248.083 184.89 248.634 184.13 247.931L181.964 245.936C182.401 252.282 186.638 251.009 186.79 252.453C187.056 254.714 188.063 254.581 200.926 257.849C202.598 254.771 204.156 251.826 205.79 248.919C206.25 248.361 206.511 247.666 206.532 246.943C206.552 246.221 206.331 245.512 205.904 244.929C204.346 242.801 205.676 240.217 201.857 236.474C199.73 234.527 198.062 232.132 196.974 229.463C196.637 228.86 196.215 228.309 195.72 227.829H195.15C194.485 231.002 193.782 229.387 196.005 237.709C196.613 239.97 195.815 241.129 193.421 241.053C190.267 241.053 187.284 238.165 185.574 235.068C184.567 233.282 183.37 231.534 182.211 229.653ZM259.085 242.117C261.479 240.217 263.797 238.83 263.037 235.885C262.817 235.071 262.808 234.215 263.011 233.398C263.213 232.58 263.621 231.827 264.196 231.211C266.959 227.802 269.23 224.022 270.941 219.982C274.693 211.583 281.479 204.912 289.941 201.305C291.589 200.656 293.27 200.092 294.976 199.614L296.153 195.586C290.653 197.736 284.852 199.017 278.959 199.386C278.579 199.386 278.123 199.918 277.876 200.317C271.017 211.413 258.952 229.615 259.085 242.117ZM177.176 213.997C178.848 217.797 180.71 221.369 182.002 225.15C183.519 228.913 185.429 232.505 187.702 235.866C188.775 237.679 190.48 239.032 192.49 239.666C193.119 239.759 193.76 239.759 194.39 239.666C185.973 222.148 189.545 229.254 180.672 212.344L177.176 213.997ZM302.424 92.7578C301.627 90.7949 300.263 89.1139 298.507 87.9295C296.75 86.745 294.681 86.1108 292.562 86.1078C289.313 85.8418 286.046 85.8798 283.519 88.7868C289.048 91.1428 291.67 92.4728 297.826 95.1518C299.365 95.8168 300.011 94.7908 302.424 92.7578ZM296.325 199.158C303.127 197.638 302.975 197.828 303.355 197.011C304.286 195.111 305.255 193.059 306.262 190.646L300.846 186.618C300.466 189.62 301.664 186.333 296.401 199.215L296.325 199.158ZM272.708 185.364C273.24 187.435 278.047 190.798 280.099 190.513C280.384 190.513 280.84 190.095 280.821 189.905C280.707 187.435 280.517 184.984 280.346 182.305L272.708 185.364ZM305.008 116.755C305.673 120.023 309.454 126.521 312.816 127.946C314.355 128.611 314.717 128.402 314.717 126.749C314.661 126.106 314.547 125.47 314.375 124.849C313.292 120.802 311.638 117.078 307.876 114.76C307.431 114.53 306.959 114.358 306.471 114.247C308.616 116.312 310.282 118.822 311.354 121.6C311.847 122.835 311.942 125.59 309.453 123.12C307.879 121.101 306.42 118.995 305.084 116.812L305.008 116.755ZM301.094 113.81C300.663 114.03 300.266 114.312 299.916 114.646C294.577 121.923 298.51 130.473 301.284 130.53C301.55 130.53 302.006 129.675 302.044 129.2C302.348 125.4 302.575 121.714 302.803 117.971C302.767 117.722 302.696 117.479 302.594 117.249C301.91 119.605 301.53 121.961 301.017 124.279C300.504 126.597 298.985 125.533 298.662 124.279C297.674 120.479 299.155 117.192 301.169 113.867L301.094 113.81ZM279.319 198.018C283.955 198.417 296.135 195.282 296.914 193.439C291.879 194.902 286.217 196.498 281.714 196.175C281.432 196.111 281.139 196.113 280.858 196.179C280.576 196.246 280.314 196.375 280.09 196.559C279.867 196.742 279.688 196.974 279.568 197.236C279.447 197.499 279.388 197.786 279.396 198.075L279.319 198.018ZM309.074 181.146C308.146 182.023 307.454 183.12 307.062 184.336C306.67 185.551 306.591 186.846 306.832 188.1C307.06 189.354 307.344 189.221 311.41 190.874C308.636 188.252 309.055 184.851 309.15 181.203L309.074 181.146ZM259.996 128.307L260.282 127.908C259.75 122.873 260.281 121.277 256.367 119.434C256.537 120.608 256.83 121.76 257.242 122.873C259.199 128.649 258.686 127.3 259.996 128.307ZM299.688 124.051C299.688 124.121 299.716 124.189 299.765 124.239C299.815 124.289 299.883 124.317 299.953 124.317C300.024 124.317 300.092 124.289 300.142 124.239C300.191 124.189 300.219 124.121 300.219 124.051C302.461 114.437 302.119 116.451 301.587 114.684C300.428 117.952 298.946 120.707 299.688 124.051ZM300.694 179.835C300.867 180.96 300.918 182.1 300.846 183.236C300.542 185.136 301.511 186.067 303.278 186.542C300.751 179.056 301.112 179.778 300.694 179.835ZM309.53 121.6C309.557 121.65 309.604 121.687 309.659 121.704C309.714 121.72 309.774 121.713 309.824 121.685C309.874 121.658 309.912 121.611 309.928 121.556C309.944 121.5 309.937 121.441 309.91 121.391C309.18 119.273 307.771 117.456 305.901 116.223L309.53 121.6Z" fill="#3C270B"/>
<path d="M39.2169 279.3C34.6759 275.804 33.3269 270.674 32.4719 265.278C31.5029 259.236 33.5929 254.144 37.1649 249.413C41.7629 243.314 40.9649 237.063 41.2309 224.979C41.2309 222.376 38.8369 220.02 43.8339 218.006L42.1619 204.459C40.6989 205.219 39.7299 204.744 39.2549 203.528C38.0769 203.528 36.7469 204.098 35.9869 203.661C35.2269 203.224 35.0369 201.761 34.7139 201.058C33.6737 200.821 32.6747 200.431 31.7499 199.899C31.3889 199.614 31.7499 198.455 31.7499 197.847C31.1039 196.935 29.8499 195.947 29.8499 195.054C29.8499 194.161 31.1989 193.515 32.0539 192.641C31.4079 191.767 29.7739 190.608 30.9519 188.955C32.1299 187.302 33.8019 188.423 35.3789 188.841C35.3789 187.226 35.0369 185.288 36.9369 184.737C39.3499 184.053 39.2169 186.637 40.0149 187.682C41.2499 185.782 41.8009 183.673 44.3089 184.053C44.6319 184.053 44.8599 185.288 44.9929 185.953C45.041 186.285 45.0084 186.624 44.8979 186.941C45.8859 187.188 47.1969 187.131 47.6529 187.72C48.9069 189.297 47.4819 190.589 46.8359 191.634C47.7387 192.609 48.5585 193.657 49.2869 194.769C49.9519 195.947 50.2179 197.315 49.1159 197.771C48.6409 199.291 48.6219 200.697 47.9189 201.305C46.5319 202.464 44.9739 201.818 43.3779 200.374C43.3779 206.473 45.1449 211.964 45.2779 217.645C46.4369 217.835 47.5009 218.063 48.5839 218.158C48.7618 218.131 48.9306 218.062 49.0761 217.956C49.2217 217.85 49.3396 217.711 49.4199 217.55C50.813 213.705 52.7243 210.067 55.1009 206.739C55.451 206.022 55.6759 205.251 55.7659 204.459C54.3409 204.193 52.2889 205.067 51.9659 203.129C51.7949 202.217 53.0299 201.02 53.6949 199.842C52.8589 199.12 50.8449 198.417 51.6999 196.327C52.2889 194.883 53.7899 194.807 55.1009 195.168C55.2909 194.047 55.1009 192.584 55.8039 191.9C56.5069 191.216 57.8369 191.9 58.9009 191.9C59.6989 190.475 60.8009 187.853 62.2449 188.1C62.7199 188.1 63.2139 188.955 63.4039 189.525C63.5834 190.362 63.6788 191.215 63.6889 192.071C64.3014 191.817 64.9379 191.626 65.5889 191.501C66.8239 191.387 68.3629 191.14 68.9899 192.413C69.3889 193.211 68.9899 194.313 68.9899 195.548C70.0159 195.871 71.5739 196.384 71.4979 198.094C71.4219 199.804 69.9969 200.545 68.1729 200.716C69.1799 202.236 70.3009 204.003 68.9139 205.276C68.1349 205.998 66.2349 205.485 64.7339 205.523C64.6009 206.606 64.7339 208.449 62.8339 208.905C61.2569 209.266 60.7629 207.841 60.3259 206.625C59.7653 207.211 59.1258 207.716 58.4259 208.126C57.5569 208.299 56.6689 208.356 55.7849 208.297C53.7167 211.551 52.1716 215.109 51.2059 218.842C51.2059 218.975 51.1109 219.184 51.2059 219.279C53.1059 222.775 52.3649 226.575 52.1559 230.185C51.2059 245.385 59.2619 248.672 62.7199 255.664C64.4682 258.93 65.2979 262.609 65.1206 266.31C64.9433 270.011 63.7655 273.594 61.7129 276.678C61.3329 277.286 60.9909 277.913 60.5349 278.692L93.9939 279.718L89.5289 272.612C88.3889 273.809 87.6289 275.12 86.2989 274.778C85.4629 274.55 86.7359 270.807 83.3729 270.351C81.9766 270.299 80.6479 269.737 79.6391 268.77C78.6303 267.803 78.0117 266.5 77.9009 265.107C77.5969 263.644 77.6091 262.132 77.9368 260.674C78.2645 259.216 78.9 257.844 79.8009 256.652C81.4919 254.448 82.7649 254.201 85.5009 255.455C85.9479 253.656 86.2653 251.827 86.4509 249.983C86.4509 248.501 87.4199 248.083 88.4649 247.798C93.8544 246.526 99.4316 246.256 104.919 247C112.12 233.073 113.317 230.375 114.609 230.166C114.855 230.12 115.107 230.124 115.352 230.176C115.596 230.228 115.828 230.328 116.034 230.47C116.661 231.097 113.906 236.36 108.225 247.57C112.025 248.292 111.55 251.37 112.025 253.954C113.45 262.884 109.859 271.263 106.325 279.433H117.098C115.906 277.385 114.84 275.265 113.906 273.087C113.431 271.89 113.906 271.32 115.198 271.187C117.269 271.073 119.321 270.921 121.43 270.769C121.582 267.33 121.715 263.948 121.886 260.566C122.033 259.635 122.116 258.696 122.133 257.754C122 256.158 122.608 255.854 124.166 255.74C129.239 255.607 134.293 255.265 139.366 255.018C139.122 254.319 138.938 253.601 138.815 252.871C138.473 249.071 139.955 247.779 143.736 243.751C143.871 243.587 144.041 243.456 144.233 243.366C144.425 243.275 144.635 243.229 144.847 243.229C145.06 243.229 145.269 243.275 145.461 243.366C145.654 243.456 145.823 243.587 145.959 243.751C148.245 245.744 149.852 248.401 150.557 251.351C150.582 252.644 150.376 253.931 149.949 255.151C153.274 255.284 156.694 255.436 160.133 255.512C167.391 255.702 168.892 254.752 169.177 257.963C169.614 263.074 169.5 268.983 169.5 271.928C171.4 271.814 173.3 271.757 175.2 271.586C177.1 271.415 177.575 272.023 176.834 273.714C175.918 275.738 174.857 277.694 173.661 279.566C175.561 279.813 189.412 279.11 205.163 279.718C210.046 279.908 208.431 284.411 207.253 315.818C207.025 321.613 207.082 327.427 206.93 333.222C206.93 335.122 204.821 335.35 204.84 333.222C204.954 322.126 205.581 289.522 205.752 284.145C205.752 282.872 205.315 282.416 204.023 282.435C141.152 282.929 153.065 281.58 128.023 281.846C113.545 281.979 99.0479 282.302 84.5699 282.321C69.3699 282.321 51.8709 280.421 24.3969 283.1C23.0669 283.214 19.5519 283.252 16.4739 283.765C13.8329 284.202 13.4149 281.371 15.9229 281.143C32.5479 279.68 25.9549 280.269 39.2169 279.3ZM55.8799 279.3C56.8299 279.053 58.1409 279.11 58.4829 278.559C60.8361 275.435 62.3651 271.77 62.9289 267.9C63.2316 265.035 62.9315 262.138 62.048 259.396C61.1646 256.654 59.7172 254.127 57.7989 251.978C48.8689 241.718 50.1989 236.778 50.1989 222.091H49.7999C45.3374 237.198 45.5228 253.298 50.3319 268.299C51.1109 270.921 49.8569 270.199 49.0969 268.299C42.5039 252.662 45.8859 237.234 43.9289 222.813H42.7129C42.7129 234.346 42.3709 231.23 42.1809 238.564C42.1317 242.779 40.7185 246.866 38.1529 250.211C36.2984 252.41 34.9617 254.999 34.2415 257.784C33.5213 260.569 33.436 263.481 33.9919 266.304C34.7899 270.256 35.8919 274.189 38.9319 277.058C39.6159 277.889 40.493 278.54 41.4866 278.954C42.4802 279.368 43.5601 279.532 44.6319 279.433C44.0999 277.191 44.3849 276.583 46.5319 276.032C47.6365 275.714 48.7843 275.573 49.9329 275.614C52.6309 276.032 55.1009 276.431 55.8799 279.3ZM122.38 270.674L168.113 272.118C168.113 267.007 168.113 272.118 167.79 258.153C167.79 257.146 167.277 256.842 166.289 256.823C158.119 256.69 169.842 256.405 128.042 256.538C126.446 256.538 124.85 256.823 123.178 256.994L122.38 270.674ZM87.2299 250.8C87.0969 256.823 85.7669 264.537 92.9299 276.621C93.4809 277.552 94.4689 278.73 95.3619 278.825C98.1619 279.043 100.972 279.1 103.779 278.996C103.975 278.978 104.165 278.917 104.335 278.819C104.506 278.72 104.653 278.586 104.767 278.426C105.499 277.41 106.135 276.329 106.667 275.196C111.987 262.656 110.752 257.374 110.467 251.446C102.721 252.068 94.9296 251.852 87.2299 250.8ZM175.865 273.03C135.566 273.03 153.065 272.821 123.577 272.232C120.632 272.232 117.687 272.479 114.438 272.65C115.42 274.185 116.308 275.777 117.098 277.419C117.319 278.066 117.764 278.614 118.352 278.962C118.941 279.31 119.635 279.437 120.309 279.319C161.957 278.787 171.286 280.706 172.35 279.034C173.414 277.362 174.611 275.215 175.865 273.03ZM144.401 244.283C140.373 249.755 139.67 249.527 140.259 253.878C140.391 254.218 140.606 254.52 140.885 254.756C141.164 254.991 141.497 255.153 141.855 255.227C143.964 255.398 146.111 255.227 148.486 255.227C148.936 253.96 149.136 252.618 149.075 251.275C148.276 248.518 146.643 246.075 144.401 244.283ZM85.5009 259.749C85.7479 257.488 85.3299 256.557 83.8859 255.949C82.4419 255.341 81.4159 256.31 80.6179 257.393C79.5026 258.753 78.8317 260.422 78.6958 262.175C78.5599 263.929 78.9655 265.681 79.8579 267.197C80.0986 267.617 80.421 267.985 80.806 268.279C81.1911 268.572 81.631 268.786 82.0999 268.907C84.7409 269.42 86.6219 270.56 86.9449 273.581C87.4977 273.221 87.927 272.7 88.1749 272.088C88.4229 271.477 88.4777 270.804 88.3319 270.161C88.1039 268.888 87.0399 268.584 85.8999 268.356C80.3139 267.216 79.3449 263.853 80.5989 259.578C80.6947 259.184 80.8991 258.825 81.1889 258.541C81.4787 258.258 81.8422 258.062 82.2381 257.974C82.634 257.887 83.0464 257.913 83.4284 258.049C83.8104 258.184 84.1466 258.425 84.3989 258.742L85.5009 259.749ZM91.6759 250.097C95.6405 250.574 99.6364 250.739 103.627 250.591C103.627 250.591 104.273 248.824 104.615 247.779C100.505 247.153 96.3172 247.262 92.2459 248.102C87.2489 249.242 87.7999 249.451 91.6569 250.097H91.6759ZM87.1159 267.71C87.4769 267.197 87.5529 267.976 86.0899 262.01C85.7859 260.756 84.6079 260.642 83.5059 259.673C81.2449 257.773 80.4279 264.024 82.7459 265.639C84.1423 266.437 85.5968 267.129 87.0969 267.71H87.1159ZM54.7209 279.11C55.1389 278.464 53.9989 277.476 53.5809 277.305C51.2308 276.413 48.6426 276.373 46.2659 277.191C45.3729 277.495 44.9929 278.901 46.5699 279.091C47.5009 279.3 49.4009 279.148 54.7019 279.148L54.7209 279.11ZM104.52 250.61C104.95 250.741 105.405 250.774 105.85 250.705C108.719 244.815 111.55 238.906 114.362 233.016C114.913 231.857 114.115 231.629 113.526 232.75C112.196 235.277 110.695 237.785 109.384 240.35C107.674 243.77 106.173 247.323 104.501 250.591L104.52 250.61ZM62.2069 197.22C64.1683 196.722 65.9971 195.801 67.5649 194.522C67.7 194.375 67.7995 194.2 67.8556 194.009C67.9116 193.818 67.9226 193.616 67.8879 193.42C66.8429 191.9 62.2639 193.439 62.2069 197.22ZM39.6919 192.945L40.2429 192.546C38.0579 185.725 38.7989 187.644 37.4119 185.896C36.7849 187.397 35.2459 188.423 39.6919 192.945ZM63.7459 198.417L63.8979 199.272C66.6529 199.367 67.6979 199.462 68.3819 199.386C71.0419 199.063 69.2559 196.916 68.3819 196.954C66.7981 197.31 65.2473 197.799 63.7459 198.417ZM67.6599 204.744C67.9076 204.301 67.9826 203.782 67.8703 203.288C67.758 202.793 67.4665 202.357 67.0519 202.065C66.4378 201.494 65.6988 201.075 64.8938 200.841C64.0889 200.606 63.2403 200.564 62.4159 200.716C63.8409 202.483 65.1519 204.345 67.6599 204.744ZM42.7129 194.522C47.2159 196.555 49.1539 197.866 48.5839 195.757C47.5009 192.052 45.2779 193.363 42.7129 194.522ZM31.8259 189.525C32.3959 191.805 36.4619 193.914 38.1909 192.964C36.2719 191.501 34.8849 189.126 31.8259 189.525ZM43.0359 196.308L42.6939 196.517C44.8029 200.089 44.2139 199.956 46.8549 200.488C47.0259 200.488 47.5579 199.918 47.5009 199.823C47.1191 199.13 46.7005 198.457 46.2469 197.809C46.1709 197.695 46.5509 197.904 43.0359 196.308ZM57.8939 200.108L58.1029 199.671C57.1581 198.216 55.793 197.083 54.1889 196.422C53.8089 196.194 49.4009 196.612 57.8939 200.013V200.108ZM44.2709 185.345L43.7009 185.098C41.5349 185.877 40.7369 188.043 41.6869 191.615L44.2709 185.345ZM42.3709 193.135C45.5819 192.147 47.3679 189.867 46.4179 187.986C44.5643 189.228 43.1589 191.033 42.4089 193.135H42.3709ZM56.9059 206.815C58.6539 206.663 60.0409 204.516 60.1549 201.78C58.7489 201.609 56.8299 204.592 57.0009 206.815H56.9059ZM37.1079 195.035C36.2228 194.362 35.1325 194.015 34.0212 194.053C32.9099 194.091 31.8458 194.512 31.0089 195.244C32.3959 196.688 33.0039 196.669 37.1459 195.035H37.1079ZM45.9999 229.558C46.2089 229.558 45.9999 230.299 47.6909 222.471L45.6009 223.022L45.9999 229.558ZM62.1879 189.848L61.6559 189.715C61.2049 190.066 60.8298 190.504 60.5535 191.005C60.2772 191.505 60.1054 192.056 60.0486 192.625C59.9917 193.193 60.051 193.767 60.2228 194.312C60.3945 194.857 60.6753 195.362 61.0479 195.795L62.1879 189.848ZM36.2719 202.521C38.5899 202.521 39.2549 201.153 38.4949 198.322C37.7094 198.671 37.0656 199.277 36.6687 200.04C36.2719 200.802 36.1454 201.677 36.3099 202.521H36.2719ZM61.9029 202.521H61.3899C61.3899 207.955 61.2189 206.587 62.1499 207.651C62.4159 207.385 62.8149 207.176 62.9479 206.853C63.2127 206.095 63.2587 205.278 63.0806 204.495C62.9025 203.712 62.5075 202.995 61.9409 202.426L61.9029 202.521ZM59.2239 197.6C58.5779 193.933 58.0269 193.04 56.3929 193.002C56.2203 193.982 56.4132 194.991 56.9349 195.839C57.4567 196.686 58.2711 197.313 59.2239 197.6ZM45.6009 221.673C46.4117 221.644 47.2187 221.549 48.0139 221.388C48.2362 220.771 48.4016 220.135 48.5079 219.488L45.6009 219.07V221.673ZM40.7179 203.623C41.9149 202.483 41.6869 200.108 40.2429 197.372C40.7369 199.386 39.3689 201.514 40.7939 203.623H40.7179ZM32.6429 199.101C34.4099 199.899 35.7019 199.234 36.8229 197.011C36.0174 196.981 35.2176 197.157 34.4994 197.523C33.7812 197.889 33.1683 198.432 32.7189 199.101H32.6429ZM53.2009 202.768C54.0163 202.949 54.8649 202.912 55.6619 202.662C56.4588 202.412 57.176 201.957 57.7419 201.343C56.9415 200.985 56.0379 200.933 55.2014 201.195C54.3649 201.458 53.6534 202.017 53.2009 202.768ZM43.9289 219.26C42.9029 219.127 40.1289 222.167 44.1759 222.167C44.0239 221.521 43.9289 219.982 43.8339 219.26H43.9289ZM110.201 250.401C110.286 250.375 110.363 250.33 110.426 250.269C110.49 250.207 110.537 250.131 110.565 250.047C110.593 249.963 110.601 249.874 110.587 249.787C110.573 249.7 110.538 249.617 110.486 249.546C109.836 248.764 108.911 248.26 107.902 248.14C107.541 249.166 107.047 250.42 106.99 250.648C108.066 250.714 109.147 250.631 110.201 250.401ZM60.6299 198.303C59.5659 198.303 59.4519 200.507 60.4399 200.507C61.4279 200.507 62.1689 198.208 60.6299 198.303Z" fill="#3C270B"/>
<path d="M120.024 125.666C114.495 125.267 115.331 126.54 115.331 112.898C107.085 110.998 108.719 113.791 121.811 89.3761C121.957 88.9883 122.213 88.6514 122.547 88.4059C122.882 88.1605 123.28 88.017 123.694 87.9929C124.107 87.9688 124.52 88.065 124.88 88.27C125.24 88.475 125.534 88.78 125.724 89.1481C128.631 92.9481 132.089 96.2921 134.692 100.225C135.357 101.401 136.347 102.361 137.543 102.988C138.74 103.615 140.092 103.882 141.438 103.759C154.035 103.759 186.734 104.804 190.496 104.899C192.054 104.899 192.662 105.735 192.833 107.236C193.741 117.76 193.786 128.34 192.966 138.871C192.282 153.368 192.852 157.187 191.579 174.743C191.465 176.396 190.762 177.042 189.09 177.08C138.416 178.353 143.737 177.232 122.153 178.068C118.941 178.201 120.423 175.712 120.366 166.478C120.29 156.332 120.024 129.2 120.024 125.666ZM133.211 110.979V122.607C133.211 126.027 132.64 124.963 122.133 125.571V176.301H122.931C183.731 174.401 160.191 176.13 190.059 175.712C192.738 117.686 191.769 119.358 191.142 106.742L138.056 105.203C138.759 106.229 139.576 107.369 140.355 108.528C141.134 109.687 140.753 110.903 139.177 110.96C137.599 111.017 135.51 110.979 133.211 110.979ZM138.416 109.326C136.972 105.678 128.536 94.4681 123.482 89.4141L112.101 110.2C116.395 111.34 116.357 111.34 116.604 115.71C116.756 118.389 116.984 121.068 117.193 123.937L131.69 123.405V111.701C131.728 108.813 133.4 109.326 138.416 109.326Z" fill="#3C270B"/>
<path d="M248.483 318.174C250.193 318.174 250.383 318.06 259.218 319.96C259.845 320.093 260.358 321.176 258.876 321.005C257.964 320.891 255.589 320.34 248.35 318.858C247.875 318.763 247.59 318.136 248.483 318.174Z" fill="#3C270B"/>
<path d="M259.845 316.141C259.901 316.18 259.941 316.236 259.961 316.3C259.981 316.365 259.979 316.434 259.955 316.498C259.931 316.561 259.887 316.614 259.829 316.649C259.771 316.685 259.703 316.7 259.636 316.692C252.872 315.172 252.986 315.305 252.986 314.982C252.997 314.925 253.024 314.873 253.065 314.832C253.106 314.792 253.158 314.764 253.214 314.754C255.507 314.636 257.792 315.114 259.845 316.141Z" fill="#3C270B"/>
<path d="M321.633 125.191C320.27 122.578 318.767 120.041 317.13 117.591C316.351 116.622 315.838 116.793 315.667 116.926C314.983 117.382 315.667 118.294 316.959 120.536C319.676 125.4 320.303 126.711 321.044 126.711C321.785 126.711 321.899 125.666 321.633 125.191Z" fill="#3C270B"/>
<path d="M306.528 125.647C306.528 125.495 306.357 125.362 306.243 125.4H305.768C304.495 125.4 306.129 135.869 307.421 135.28C307.801 135.185 307.668 135.774 306.528 125.647Z" fill="#3C270B"/>
<path d="M296.61 111.606C295.292 111.887 294.043 112.429 292.937 113.199C291.831 113.968 290.89 114.951 290.169 116.09C290.139 116.145 290.128 116.209 290.137 116.271C290.147 116.333 290.177 116.39 290.222 116.433C290.268 116.477 290.326 116.504 290.389 116.51C290.451 116.517 290.514 116.503 290.568 116.47L296.895 112.86C297.18 112.689 297.066 111.435 296.61 111.606Z" fill="#3C270B"/>
<path d="M293.342 109.972C291.214 109.136 289.2 110.124 287.148 110.371C286.787 110.371 286.768 111.473 287.148 111.473L293.209 110.998C293.646 110.96 293.608 110.086 293.342 109.972Z" fill="#3C270B"/>
<path d="M251.828 145.844C250.868 144.078 250.091 142.219 249.51 140.296C249.282 139.517 250.707 136.496 252.455 139.08C253.2 140.629 253.835 142.229 254.355 143.868C255.343 146.186 253.044 148.2 251.828 145.844Z" fill="#3C270B"/>
<path d="M255.873 176.548C253.973 175.769 254.847 174.173 258.001 175.446C261.155 176.719 262.485 174.192 265.316 172.102C265.458 172.022 265.619 171.98 265.782 171.98C265.945 171.98 266.105 172.022 266.247 172.102C266.331 172.25 266.374 172.416 266.374 172.586C266.374 172.756 266.331 172.923 266.247 173.071C260.49 178.239 260.794 178.6 255.873 176.548Z" fill="#3C270B"/>
<path d="M183.864 221.274C184.396 222.224 184.947 223.174 185.441 224.143C185.468 224.258 185.465 224.378 185.431 224.491C185.398 224.604 185.336 224.707 185.251 224.789H184.586C184.016 223.782 183.522 222.737 183.009 221.711L183.864 221.274Z" fill="#3C270B"/>
<path d="M182.99 218.975L182.268 219.602C180.368 216.942 180.596 217.702 181.299 216.733L182.99 218.975Z" fill="#3C270B"/>
<path d="M155.802 158.555C149.428 158.352 143.237 156.378 137.923 152.855C135.806 151.552 134.285 149.471 133.684 147.06C133.084 144.648 133.453 142.097 134.712 139.954C135.736 137.647 137.466 135.725 139.652 134.463C140.108 134.235 140.336 133.228 140.336 132.563C140.31 131.903 140.528 131.258 140.949 130.749C141.369 130.241 141.963 129.906 142.616 129.808C145.314 129.067 148.012 128.307 150.729 127.604C152.838 127.053 151.964 125.704 154.282 123.025C154.693 122.478 155.231 122.038 155.85 121.743C156.468 121.448 157.148 121.307 157.832 121.331C158.517 121.356 159.185 121.545 159.781 121.882C160.377 122.22 160.882 122.697 161.255 123.272C161.636 123.703 161.938 124.198 162.148 124.735C163.155 128.535 167.392 127.642 169.273 128.288C170.413 128.668 171.401 129.352 171.173 130.758C171.019 132.069 170.962 133.39 171.002 134.71C173.225 136.23 178.431 136.99 176.379 145.065C173.377 157.016 162.414 157.491 155.802 158.555ZM169.805 143.032V129.485C168.38 129.238 167.012 128.972 165.625 128.782C164.686 128.714 163.781 128.403 162.998 127.88C162.215 127.358 161.582 126.64 161.16 125.799C159.26 122.113 156.79 121.999 155.46 123.671C154.605 124.697 154.054 125.97 153.275 127.053C152.135 128.592 152.439 128.307 143.338 130.986C140.64 131.803 142.16 132.886 140.925 142.063C140.754 143.279 141.267 143.621 142.084 143.963C149.171 147.345 149.855 147.763 150.539 147.649C159.849 145.92 163.06 144.267 169.881 143.032H169.805ZM140.032 135.622C135.396 139.574 132.774 146.3 137.353 150.1C139.252 151.628 141.34 152.905 143.566 153.9C149.136 156.589 155.414 157.446 161.502 156.351C164.532 155.915 167.381 154.645 169.729 152.682C172.078 150.718 173.835 148.14 174.802 145.236C176.284 141.208 175.068 137.883 171.002 136.629C171.23 138.852 171.002 140.771 171.002 142.88C171.002 143.279 170.793 143.944 170.546 144.039C165.606 145.597 158.31 147.174 153.199 148.181C151.679 148.485 150.235 149.264 148.544 148.276C142.35 144.666 139.044 145.027 139.5 141.911C139.804 139.954 139.861 137.978 140.032 135.622Z" fill="#3C270B"/>
</svg>
