<svg width="380" height="380" viewBox="0 0 380 380" fill="none" xmlns="http://www.w3.org/2000/svg">
<path d="M299.725 92.1887C295.603 95.7705 291.15 98.9515 286.425 101.689C284.767 102.738 282.887 103.387 280.935 103.585C278.983 103.783 277.012 103.524 275.177 102.829C273.799 102.94 272.414 102.736 271.127 102.233C269.84 101.729 268.684 100.939 267.748 99.9217C265.866 99.037 264.115 97.8991 262.542 96.5397C262.107 96.4825 261.666 96.4825 261.231 96.5397C260.013 97.5581 258.87 98.6629 257.811 99.8457C257.618 101.024 257.723 102.233 258.115 103.361C260.109 105.37 262.522 106.915 265.183 107.883C268.166 108.681 266.912 110.258 271.966 116.661C272.063 116.808 272.105 116.984 272.087 117.159C272.068 117.334 271.989 117.497 271.863 117.621C271.738 117.744 271.573 117.82 271.398 117.835C271.222 117.851 271.047 117.805 270.902 117.706C269.005 115.73 267.474 113.434 266.38 110.923C262.846 114.723 258.286 117.402 253.992 120.309C249.927 122.968 245.687 125.348 241.3 127.434C239.685 128.232 239.4 128.954 240.255 130.569C241.87 133.818 241.015 133.723 244.511 132.298C253.688 128.498 256.804 126.066 261.003 126.047C261.535 126.047 262.105 126.047 262.219 126.693C262.333 127.339 261.763 127.548 261.25 127.586C259.749 127.738 259.35 128.764 258.989 130.037C256.823 136.345 252.206 142.463 247.589 148.638C246.905 149.55 247.095 150.082 248.083 150.709C251.788 153.046 251.883 153.141 254.752 149.759C266.95 135.68 264.442 137.808 268.052 134.559C269.23 133.571 270.066 135.072 269.192 135.718C268.876 135.91 268.63 136.198 268.49 136.539C268.35 136.881 268.323 137.259 268.413 137.618C268.495 137.546 268.593 137.496 268.7 137.473C268.806 137.45 268.916 137.454 269.021 137.485C269.819 137.732 269.686 138.929 269.819 139.784C270.75 145.37 269.629 150.747 270.541 154.984C270.622 155.426 270.857 155.826 271.205 156.111C271.553 156.396 271.991 156.549 272.441 156.542C273.578 156.655 274.724 156.423 275.728 155.877C276.545 151.83 277.438 147.802 278.179 143.755C278.502 142.064 279.68 140.677 279.566 138.815C279.566 138.112 280.687 138.359 281.333 138.568C284.184 139.762 286.603 141.796 288.268 144.401C288.61 144.838 288.838 145.389 289.18 145.826C289.959 146.871 290.016 148.657 291.232 149.037C291.784 149.196 292.37 149.196 292.923 149.037C293.939 148.555 294.811 147.815 295.45 146.89C291.08 138.245 289.636 136.098 290.795 133.799C292.258 130.816 291.916 131.69 293.569 128.099C295.074 125.131 296.014 121.91 296.343 118.599C296.495 115.73 297.844 116.148 302.499 114.514C324.691 101.309 331.303 95.5137 349.391 79.6487C351.063 78.1477 355.965 73.5687 357.238 72.2007C358.352 71.2272 359.189 69.976 359.663 68.5744C360.136 67.1727 360.231 65.6706 359.936 64.2207C358.492 57.6847 353.039 48.1847 343.862 41.1737C341.449 39.2737 339.758 39.6347 338.162 42.1997C337.877 42.6177 337.725 42.9597 337.155 43.7957C330.6 57.5327 317.091 76.6277 299.725 92.1887Z" fill="#FADF8F"/>
<path d="M324.748 296.781C320.948 296.439 319.162 291.575 318.63 287.699C317.88 282.868 316.852 278.085 315.552 273.373C313.652 266.343 309.301 265.773 302.537 265.659C301.841 265.709 301.148 265.519 300.575 265.122C300.001 264.725 299.58 264.143 299.383 263.474C295.868 254.183 297.578 248.274 292.733 249.034C290.396 248.559 288.648 250.117 287.147 251.447C286.083 252.416 287.318 254.164 287.451 255.57C288.269 260.899 289.54 266.15 291.251 271.264C291.72 272.535 292.505 273.666 293.532 274.551C294.559 275.435 295.795 276.043 297.122 276.318C303.316 277.667 304.722 273.43 308.332 286.825C310.232 293.855 313.196 300.239 319.542 304.324C329.346 310.651 327.978 319.239 331.151 327.504C332.044 329.803 333.051 330.487 334.951 329.86C338.41 328.638 341.534 326.62 344.071 323.97C344.602 323.507 344.95 322.871 345.055 322.174C345.159 321.478 345.013 320.767 344.641 320.17C335.958 304.267 333.127 297.541 324.748 296.781Z" fill="#FADF8F"/>
<path d="M142.841 340.101C143.559 335.271 144.022 330.406 144.228 325.528C144.722 314.66 137.274 310.518 130.662 316.18C126.862 319.41 126.026 323.913 125.703 328.568C125.703 329.822 125.456 330.24 124.278 329.366C123.414 328.738 122.506 328.173 121.561 327.675C118.521 325.946 115.481 324.35 111.814 324.692C110.799 324.673 109.809 325.014 109.02 325.653C108.231 326.293 107.694 327.19 107.501 328.188C107.222 329.959 107.371 331.773 107.936 333.475C108.502 335.177 109.467 336.72 110.75 337.973C116.241 344.319 128.781 344.965 139.535 347.929C143.088 348.86 142.005 346.276 142.841 340.101Z" fill="#FADF8F"/>
<path d="M55.3839 273.163C55.0609 272.973 54.6429 272.935 54.3579 272.688C54.1443 272.503 53.8919 272.368 53.6193 272.292C53.3467 272.217 53.0607 272.203 52.7821 272.252C52.5035 272.301 52.2395 272.412 52.0091 272.576C51.7788 272.74 51.5881 272.954 51.4509 273.201C47.5369 278.369 44.2879 283.841 45.1619 290.643C45.4728 292.202 45.2216 293.82 44.453 295.212C43.6844 296.603 42.4479 297.677 40.9629 298.243L40.4689 298.509C25.0219 308.009 30.0569 322.107 29.5439 328.643C29.5439 329.726 29.9809 330.239 30.9879 330.011C32.8879 329.593 34.7879 329.099 36.6879 328.567C40.4879 327.465 30.6079 312.512 44.5919 304.437C46.8693 303.092 49.053 301.594 51.1279 299.953C53.4839 298.053 55.4219 293.873 54.0159 290.7C53.0825 288.858 52.8091 286.752 53.2414 284.732C53.6736 282.713 54.7853 280.903 56.3909 279.604C59.5639 276.412 59.3929 275.386 55.3839 273.163Z" fill="#FADF8F"/>
<path d="M284.334 72.9984C285.721 73.5684 285.626 72.1814 292.124 62.5864C295.81 57.1524 300.655 57.6844 304.55 56.4684C308.445 55.2524 311.143 53.5234 311.694 49.3434C311.958 47.7964 312.135 46.236 312.226 44.6694C312.028 42.2652 312.68 39.8679 314.069 37.8956C315.458 35.9234 317.496 34.5012 319.826 33.8774C321.08 33.4214 322.106 32.7944 322.011 31.3504C321.295 29.0013 319.924 26.9052 318.059 25.3084C315.722 23.1424 314.088 23.4084 311.561 25.8404C306.599 30.6888 303.694 37.2613 303.448 44.1944C303.505 45.0713 303.3 45.9454 302.861 46.7062C302.421 47.4671 301.766 48.0807 300.978 48.4694C298.622 49.6664 296.247 50.7874 293.872 51.9654C291.744 52.9582 289.889 54.4546 288.469 56.325C287.049 58.1954 286.105 60.3836 285.721 62.7004C285.189 65.3984 284.581 68.0964 284.011 70.7944C283.84 71.6114 283.327 72.5994 284.334 72.9984Z" fill="#FADF8F"/>
<path d="M206.985 325.166C206.985 321.005 210.785 313.861 211.754 308.066C212.009 306.835 211.872 305.555 211.36 304.406C210.849 303.257 209.99 302.298 208.904 301.663C206.738 300.523 205.256 300.96 202.938 303.259C200.945 305.359 199.622 308.005 199.138 310.859C198.796 312.55 198.264 312.113 197.371 311.467C195.471 310.08 193.571 308.731 191.671 307.344C189.619 305.854 187.087 305.178 184.565 305.444C184.201 305.416 183.836 305.47 183.495 305.6C183.154 305.73 182.846 305.934 182.594 306.198C182.341 306.461 182.15 306.777 182.034 307.123C181.919 307.47 181.881 307.837 181.924 308.199C182.001 310.283 182.659 312.303 183.824 314.032C186.94 319.295 191.842 322.791 196.858 326.344C200.088 328.415 207.099 328.548 206.985 325.166Z" fill="#FADF8F"/>
<path d="M230.47 312.778C225.777 308.693 221.54 314.678 224.903 321.005C227.688 326.379 231.649 331.055 236.493 334.685C238.146 335.882 238.564 335.787 239.609 333.963C244.815 325.109 248.045 320.416 249.109 314.963C250.629 307.363 244.701 305.254 240.35 310.916C238.316 313.362 236.769 316.174 235.79 319.2C234.258 316.87 232.474 314.717 230.47 312.778Z" fill="#FADF8F"/>
<path d="M149.548 300.428C153.979 303.104 159.04 304.559 164.216 304.646H167.047C167.617 304.646 167.997 304.475 168.054 303.791C168.757 297.692 172.975 291.137 170.999 285.304C170.845 284.621 170.486 284.002 169.97 283.53C169.453 283.058 168.804 282.755 168.111 282.663C167.342 282.581 166.566 282.735 165.887 283.105C165.208 283.475 164.658 284.043 164.311 284.734C163.007 286.913 162.348 289.416 162.411 291.954C162.62 296.172 159.086 290.795 152.113 291.346C150.913 291.357 149.749 291.755 148.794 292.48C147.838 293.206 147.143 294.221 146.812 295.374C146.662 296.399 146.848 297.444 147.341 298.355C147.834 299.266 148.608 299.993 149.548 300.428Z" fill="#FADF8F"/>
<path d="M230.337 340.651C225.739 335.426 226.898 329.479 220.058 324.957C219.488 324.497 218.785 324.232 218.053 324.201C217.321 324.17 216.599 324.376 215.992 324.786C214.681 325.736 214.89 327.161 215.194 328.586C215.856 331.038 216.957 333.349 218.443 335.407C214.743 334.946 210.993 335.706 207.765 337.573C204.668 339.568 206.245 342.988 210.045 343.938C216.087 345.439 222.319 343.368 231.401 344.698C234.403 345.154 232.275 342.931 230.337 340.651Z" fill="#FADF8F"/>
<path d="M134.899 156.066C133.74 155.629 132.847 156.313 132.049 157.073C128.282 160.656 125.9 165.454 125.323 170.62C125.152 172.938 125.323 173.128 127.622 172.957C130.567 172.748 133.493 172.482 136.419 172.14C139.161 171.991 141.859 171.381 144.399 170.335C147.306 168.929 147.743 166.535 145.292 164.426C144.42 163.746 143.422 163.248 142.355 162.961C141.287 162.674 140.174 162.603 139.079 162.754C137.977 162.754 136.457 163.362 135.868 162.754C135.279 162.146 136.191 160.721 136.229 159.619C136.267 158.517 136.077 156.522 134.899 156.066Z" fill="#FADF8F"/>
<path d="M206.605 93.4618C206.605 89.6618 205.161 88.4458 201.342 88.1798C195.338 87.7808 191.595 91.1248 188.517 95.6088C188.286 95.8776 188.128 96.2014 188.058 96.5489C187.987 96.8965 188.008 97.2563 188.116 97.5938C188.225 97.9313 188.419 98.2352 188.678 98.4765C188.938 98.7178 189.256 98.8883 189.6 98.9718C190.712 99.4138 191.903 99.6233 193.099 99.5873C194.295 99.5514 195.471 99.2707 196.554 98.7628C198.967 97.7938 198.986 97.7938 199.442 100.397C199.737 102.072 200.268 103.697 201.019 105.223C202.254 107.731 203.964 107.788 205.389 105.375C208.144 100.701 206.624 94.8108 206.605 93.4618Z" fill="#FADF8F"/>
<path d="M174.058 334.913C174.324 335.673 174.647 336.319 175.54 336.395C176.433 336.471 176.68 335.768 176.984 335.141C181.658 325.945 183.539 324.862 184.432 321.841C184.703 321.213 184.787 320.52 184.672 319.846C184.558 319.171 184.25 318.544 183.786 318.041C181.753 316.141 179.606 319.941 179.378 317.205C179.036 313.405 176.623 312.968 175.141 314.735C171.816 318.649 172.462 330.391 174.058 334.913Z" fill="#FADF8F"/>
<path d="M192.412 256.5L195.091 252.7C195.893 254.51 197.118 256.1 198.663 257.336C200.24 258.552 201.684 258.001 202.273 256.101C202.516 255.347 202.546 254.541 202.362 253.77C202.178 253 201.786 252.295 201.228 251.731C199.511 249.794 197.602 248.037 195.528 246.487C195.119 246.097 194.574 245.879 194.008 245.879C193.443 245.879 192.898 246.097 192.488 246.487C189.581 248.805 189.41 252.035 189.22 255.303C189.22 256.082 189.315 256.88 190.227 257.108C190.609 257.255 191.027 257.276 191.421 257.166C191.814 257.057 192.162 256.823 192.412 256.5Z" fill="#FADF8F"/>
<path d="M96.1775 218.881C94.9449 216.031 92.8867 213.615 90.2685 211.946C87.7985 210.407 85.3285 210.274 84.0365 211.946C83.2935 212.872 82.7428 213.937 82.4166 215.079C82.0903 216.221 81.9951 217.417 82.1365 218.596C82.6685 221.959 87.4565 225.55 90.8575 225.55C91.6956 225.611 92.5361 225.468 93.3061 225.131C94.0762 224.795 94.7525 224.275 95.2766 223.618C95.8006 222.961 96.1566 222.187 96.3135 221.361C96.4705 220.535 96.4238 219.684 96.1775 218.881ZM87.3995 222.985C85.3665 221.75 83.3525 220.439 83.3905 217.057C85.0625 221.674 88.8055 222.472 92.4155 223.384C90.8765 224.41 89.6225 224.372 87.3995 222.985ZM92.3205 221.769C88.3305 221.237 85.2905 219.603 84.6255 215.613C84.3025 213.713 85.1955 212.516 87.1335 212.706C89.7175 212.934 94.4865 217.19 94.9805 219.698C95.1895 220.895 94.0305 221.807 92.2635 221.769H92.3205Z" fill="#FADF8F"/>
<path d="M75.4864 47.1192C77.7284 53.3512 80.2554 59.4692 83.0864 65.4922C86.9159 72.7832 91.3657 79.7311 96.3864 86.2592C97.1844 87.3042 97.9254 88.3872 98.7614 89.4132C99.0247 89.7314 99.1958 90.1158 99.2561 90.5244C99.3164 90.933 99.2636 91.3504 99.1034 91.7312C97.5966 96.5249 95.6899 101.184 93.4034 105.658C93.4034 105.829 93.1944 105.981 93.1184 106.152C92.7511 106.669 92.3238 107.141 91.8454 107.558C92.0734 108.565 92.9284 109.306 94.6004 110.218C95.3238 110.602 95.9184 111.19 96.3104 111.909C101.211 115.671 105.005 120.686 107.292 126.425L108.546 126.007C110.318 125.356 112.142 124.86 113.999 124.525C111.719 121.96 109.99 119.262 107.71 116.925C107.273 116.488 106.285 115.994 106.969 115.291C107.653 114.588 108.356 115.291 108.869 115.88C111.262 118.037 113.363 120.496 115.12 123.195C115.918 124.392 116.241 124.164 119.243 124.164C122.476 124.123 125.683 123.572 128.743 122.53C129.43 122.308 130.041 121.9 130.51 121.352C130.225 117.552 131.669 116.051 129.522 116.184C127.565 116.41 125.647 116.902 123.822 117.647C120.288 118.825 120.459 118.122 118.483 113.695C117.15 111.388 116.073 108.941 115.272 106.399C115.059 106.248 114.89 106.042 114.783 105.804C114.675 105.565 114.634 105.302 114.663 105.042C114.692 104.782 114.791 104.535 114.948 104.325C115.105 104.116 115.316 103.953 115.557 103.853L115.785 103.72C116.602 102.922 117.039 102.998 125.798 97.4692C126.653 96.9372 127.147 97.0702 127.204 98.0392L127.318 99.0652C128.553 98.7042 128.667 99.8632 128.667 100.775C128.667 104.252 128.895 107.691 129.009 111.168C129.004 111.459 129.049 111.748 129.142 112.023C129.686 112.14 130.25 112.107 130.776 111.928C131.733 111.718 132.618 111.259 133.341 110.599C134.065 109.939 134.602 109.1 134.899 108.166C134.72 107.839 134.592 107.487 134.519 107.121C133.963 102.548 134.292 97.9094 135.488 93.4602C135.735 92.4912 135.83 91.2942 134.728 90.7622C133.573 90.1919 132.45 89.5576 131.365 88.8622C130.111 88.6912 128.857 88.5582 127.565 88.4442C124.343 87.8823 121.236 86.7909 118.369 85.2142C117.21 84.7012 116.773 83.4662 116.26 82.3832C113.448 75.9149 111.339 69.1627 109.971 62.2432C107.475 51.6934 106.276 40.8785 106.399 30.0382C106.365 26.6379 106.587 23.2399 107.064 19.8732C107.084 19.6299 107.122 19.3885 107.178 19.1512C106.988 17.5362 106.399 17.0992 104.86 17.0992C99.1374 16.9283 93.447 18.0194 88.1931 20.295C82.9392 22.5706 78.2507 25.9749 74.4604 30.2662C70.2994 34.8832 73.3964 41.2482 75.4864 47.1192Z" fill="#F4B77D"/>
<path d="M100.358 125.209C100.665 125.513 100.996 125.793 101.346 126.045C102.098 126.238 102.869 126.346 103.645 126.368H105.241C103.857 123.046 101.829 120.031 99.2754 117.495C99.2754 119.262 99.7124 120.972 99.8834 122.682C99.9213 123.543 100.081 124.394 100.358 125.209Z" fill="#F4B77D"/>
<path d="M274.132 322.828C272.512 322.379 270.82 322.257 269.153 322.469C267.486 322.681 265.878 323.223 264.423 324.063C265.088 322.049 265.506 320.548 266.095 319.104C266.741 317.278 266.981 315.333 266.798 313.404C266.857 312.935 266.782 312.459 266.582 312.031C266.383 311.602 266.066 311.239 265.669 310.983C265.272 310.727 264.81 310.588 264.338 310.583C263.865 310.578 263.4 310.706 262.998 310.953C261.821 311.407 260.743 312.084 259.825 312.948C255.274 317.332 251.745 322.664 249.489 328.566C247.598 332.728 246.882 337.327 247.418 341.866C247.836 344.602 248.634 345.134 251.218 344.032C260.718 340.004 269.439 341.942 276.754 336.755C278.127 335.846 279.179 334.526 279.759 332.984C280.339 331.442 280.417 329.756 279.984 328.167C279.607 326.818 278.859 325.602 277.824 324.658C276.789 323.714 275.51 323.08 274.132 322.828Z" fill="#F4B77D"/>
<path d="M226.404 297.463L225.967 297.14C226.545 294.323 226.774 291.445 226.651 288.571C226.518 287.108 226.347 285.531 224.561 284.923C223.913 284.757 223.229 284.807 222.612 285.064C221.995 285.321 221.479 285.772 221.141 286.348C214.092 294.48 213.541 301.548 213.142 312.378C213.12 313.953 213.513 315.507 214.282 316.881C214.369 317.178 214.527 317.448 214.742 317.67C214.958 317.892 215.224 318.057 215.518 318.153C215.812 318.248 216.124 318.271 216.429 318.218C216.733 318.165 217.02 318.039 217.265 317.85C219.205 317.029 220.901 315.72 222.186 314.05C223.393 312.421 225.171 311.308 227.164 310.934C233.529 309.528 236.911 304.759 239.666 299.534C240.175 298.57 240.364 297.469 240.207 296.39C240.05 295.311 239.554 294.31 238.792 293.53C238.062 292.796 237.131 292.294 236.117 292.088C235.103 291.882 234.05 291.98 233.092 292.371C230.337 293.237 227.971 295.038 226.404 297.463Z" fill="#F4B77D"/>
<path d="M148.333 61.6163C149.302 64.9603 150.689 65.4163 153.52 63.5163C154.47 62.8893 155.42 62.1673 156.294 61.6163C157.89 60.6093 158.194 60.7423 158.707 62.5663C160.36 70.1663 159.923 77.9373 162.792 84.8913C163.058 85.5753 163.457 86.1073 164.331 85.9743C165.205 85.8413 165.3 85.3283 165.433 84.6633C165.897 82.2584 166.145 79.8166 166.174 77.3673C166.307 73.8713 167.352 57.8353 167.618 52.3633C167.618 50.5963 166.668 49.7033 164.939 49.6463C163.21 49.5893 161.5 49.4943 159.866 49.3993C158.764 49.2853 158.422 48.8293 158.536 47.8603C158.726 45.6563 158.916 43.4903 159.163 41.2863C159.41 39.0823 158.118 37.8473 156.389 38.7403C152.958 40.5544 149.767 42.7882 146.889 45.3903C146.607 45.6124 146.39 45.9056 146.26 46.2396C146.13 46.5736 146.091 46.9363 146.148 47.2903C146.618 52.1015 147.347 56.8837 148.333 61.6163Z" fill="#F4B77D"/>
<path d="M125.874 289.16C123.746 293.606 125.095 299.572 126.14 304.455C126.349 305.424 126.444 305.918 125.152 305.595C124.414 305.445 123.664 305.362 122.91 305.348C119.526 305.407 116.177 306.049 113.011 307.248C112.266 307.46 111.635 307.96 111.258 308.637C110.88 309.313 110.786 310.112 110.997 310.858C111.166 311.982 111.585 313.053 112.223 313.994C112.861 314.934 113.702 315.719 114.683 316.292C117.78 318.014 121.317 318.78 124.848 318.496C126.482 318.401 128.135 318.23 128.781 316.235C128.952 315.703 129.56 315.285 130.054 314.886C132.043 313.118 134.595 312.114 137.255 312.055C138.528 312.055 139.668 311.675 138.984 309.851C138.3 308.027 138.49 300.351 135.564 291.801C133.797 286.633 128.268 284.182 125.874 289.16Z" fill="#F4B77D"/>
<path d="M187.948 322.999C187.839 323.065 187.737 323.141 187.644 323.227C180.044 328.604 177.023 336.527 175.332 345.115C174.99 346.844 175.978 347.984 177.403 347.756C181.81 347.221 186.169 346.338 190.437 345.115C195.168 343.538 200.811 341.771 200.203 336.869C199.975 334.969 198.588 334.247 197.106 333.639C195.235 332.878 193.208 332.578 191.197 332.765L190.931 332.879C190.99 332.806 191.035 332.722 191.064 332.632C191.843 330.238 194.104 325.849 192.964 323.379L191.064 321.821C190 321.65 188.936 322.486 187.948 322.999Z" fill="#F4B77D"/>
<path d="M250.799 201.551C251.673 203.109 253.288 202.938 254.846 202.596C258.969 201.646 262.617 199.385 266.759 198.435C269.381 197.827 271.832 196.535 274.644 196.782C275.537 196.877 277.361 195.547 274.986 194.882C274.686 194.8 274.403 194.665 274.15 194.483C260.185 183.9 258.95 182.684 256.119 181.905C252.851 180.993 250.039 181.905 248.994 184.451C247.949 186.997 249.146 188.973 252.167 190.873C253.725 191.842 255.511 192.355 257.297 193.343C254.143 195.49 248.899 198.169 250.799 201.551Z" fill="#F4B77D"/>
<path d="M195.7 162.088C192.822 161.853 189.925 162.175 187.169 163.038C186.417 163.136 185.721 163.49 185.199 164.04C184.676 164.59 184.359 165.303 184.3 166.059C184.167 167.959 185.421 168.757 186.808 169.422C188.745 170.212 190.846 170.512 192.926 170.296C196.56 170.268 200.18 169.835 203.718 169.004C204.345 168.89 205.618 168.681 204.991 167.712C204.335 166.43 204.128 164.965 204.402 163.551C204.558 160.218 203.981 156.891 202.711 153.804C202.16 152.588 201.438 151.296 199.861 151.467C198.284 151.638 197.676 152.854 197.239 154.146C196.61 156.26 196.557 158.504 197.087 160.644C197.334 161.822 197.239 162.316 195.7 162.088Z" fill="#F4B77D"/>
<path d="M213.579 238.297C214.795 238.544 215.365 237.575 215.802 236.644C216.624 234.931 217.261 233.135 217.702 231.286C219.311 232.72 221.38 233.529 223.535 233.566C225.188 233.471 226.556 233.129 227.183 231.476C227.481 230.77 227.525 229.982 227.306 229.248C227.088 228.513 226.621 227.877 225.986 227.448C223.001 225.114 219.546 223.455 215.859 222.584C215.488 222.511 215.107 222.516 214.739 222.599C214.37 222.682 214.024 222.842 213.721 223.068C213.418 223.293 213.167 223.58 212.982 223.909C212.797 224.238 212.683 224.602 212.648 224.978C211.797 228.529 211.42 232.177 211.527 235.827C211.54 236.41 211.75 236.971 212.122 237.42C212.495 237.868 213.008 238.177 213.579 238.297Z" fill="#F4B77D"/>
<path d="M159.96 340.518C158.464 340.542 156.988 340.868 155.621 341.475C154.253 342.082 153.021 342.959 151.999 344.052C151.636 344.4 151.379 344.844 151.259 345.333C151.138 345.822 151.158 346.335 151.317 346.812C151.477 347.29 151.768 347.712 152.158 348.031C152.548 348.349 153.02 348.551 153.519 348.612C156.598 349.199 159.756 349.237 162.848 348.726C164.966 348.634 167.064 348.289 169.099 347.7C170.068 347.377 170.999 346.978 170.999 345.8C171.078 345.228 170.959 344.647 170.662 344.153C170.364 343.659 169.907 343.281 169.365 343.083C166.389 341.727 163.213 340.861 159.96 340.518Z" fill="#F4B77D"/>
<path d="M47.9367 149.586C52.7247 147.572 56.7907 140.428 55.5367 135.45C54.8717 132.714 52.6297 130.301 49.2477 132.106C46.9718 133.158 45.0666 134.872 43.7816 137.025C42.4967 139.178 41.892 141.669 42.0467 144.171V145.824C42.06 146.516 42.2439 147.193 42.582 147.796C42.9201 148.399 43.4019 148.91 43.9846 149.282C44.5674 149.654 45.233 149.877 45.9225 149.93C46.6119 149.983 47.3038 149.865 47.9367 149.586ZM49.3997 146.299C51.2939 143.325 52.7167 140.076 53.6177 136.666C54.7197 139.041 52.3827 144.399 49.3997 146.299ZM43.9467 144.057C43.9467 138.908 46.1697 135.526 50.3117 134.044C51.4897 133.626 52.2117 133.702 51.8127 135.203C51.107 138.77 49.6354 142.141 47.4997 145.083C44.0037 149.016 44.0227 144.247 43.9467 144.038V144.057Z" fill="#F4B77D"/>
<path d="M54.7579 116.336C56.0309 116.545 57.2659 116.488 58.1589 116.583C59.9107 116.713 61.672 116.578 63.3839 116.184C64.4873 115.899 65.4873 115.307 66.2676 114.476C67.0479 113.646 67.5764 112.611 67.7919 111.491C67.8044 110.25 67.4506 109.033 66.7747 107.992C66.0987 106.951 65.1307 106.133 63.9919 105.639C61.7349 104.886 59.3107 104.787 56.9999 105.354C54.86 105.48 52.7843 106.133 50.9579 107.254C50.421 107.592 50.0014 108.087 49.7566 108.672C49.5117 109.257 49.4535 109.903 49.5899 110.522C50.2359 113.467 51.4139 115.785 54.7579 116.336ZM52.8579 113.277C56.9534 114.023 61.1743 113.649 65.0749 112.194C63.5929 115.367 56.2779 115.899 52.9339 113.277H52.8579ZM53.1999 108.432C55.4229 107.795 57.6998 107.362 60.0019 107.14C61.1485 107.13 62.2855 107.35 63.3459 107.786C64.0489 108.071 65.0369 108.28 65.0559 109.306C65.0749 110.332 64.2579 110.978 63.3839 111.377C61.574 112.101 59.6311 112.431 57.6839 112.346C56.1701 112.257 54.6685 112.021 53.1999 111.643C52.4209 111.472 51.5089 111.244 51.4709 110.199C51.4329 109.154 52.4399 108.679 53.1999 108.432Z" fill="#F4B77D"/>
<path d="M314.336 139.877C312.347 140.966 310.631 142.49 309.315 144.336C307.998 146.182 307.117 148.301 306.736 150.536C305.71 155.039 309.681 158.516 314.013 156.008C316.113 154.944 317.871 153.31 319.087 151.295C320.303 149.279 320.928 146.962 320.891 144.608V143.278C320.805 142.555 320.543 141.864 320.129 141.265C319.715 140.666 319.16 140.178 318.514 139.843C317.867 139.507 317.149 139.335 316.421 139.341C315.693 139.347 314.977 139.531 314.336 139.877ZM308.408 151.125C309.045 147.354 311.081 143.962 314.108 141.625C314.811 141.055 315.799 140.314 316.673 140.979C317.064 141.345 317.346 141.812 317.487 142.329C317.628 142.846 317.623 143.391 317.471 143.905C317.184 145.634 316.613 147.303 315.78 148.845C314.945 150.967 313.364 152.71 311.334 153.747C309.244 154.564 308.408 154.013 308.408 151.125ZM314.336 153.899L314.944 153.025C317.134 150.264 318.598 146.998 319.2 143.525C319.442 145.371 319.196 147.247 318.485 148.967C317.775 150.688 316.626 152.192 315.153 153.329L314.336 153.899Z" fill="#F4B77D"/>
<path d="M146.3 324.31C147.174 324.31 147.364 323.778 147.478 323.132C148.238 318.743 152.456 316.482 153.824 311.732C153.974 311.384 154.016 310.998 153.945 310.626C153.873 310.254 153.692 309.911 153.425 309.642C153.117 309.371 152.732 309.202 152.324 309.158C151.916 309.114 151.504 309.197 151.145 309.395C150.192 309.849 149.345 310.496 148.656 311.295C148.219 310.079 147.896 308.901 146.566 308.939C145.236 308.977 144.913 310.155 144.495 311.124C144.167 312.069 143.963 313.053 143.887 314.05C143.526 317.204 145.065 320.035 145.369 323.075C145.35 323.683 145.426 324.234 146.3 324.31Z" fill="#F4B77D"/>
<path d="M363.222 248.425C346.894 242.943 332.207 233.443 320.51 220.799C319.813 220.087 319.412 219.136 319.389 218.139C318.933 210.143 319.028 202.125 319.674 194.142C319.066 189.506 318.23 189.753 313.214 179.892C312.991 179.199 312.522 178.612 311.895 178.241C311.269 177.87 310.528 177.741 309.813 177.878C309.403 177.935 308.988 177.935 308.578 177.878C306.925 179.987 306.45 179.626 303.581 177.232C303.222 176.976 302.891 176.684 302.593 176.358C301.489 174.889 299.889 173.869 298.09 173.489C297.538 173.801 297.017 174.163 296.532 174.572C295.107 175.75 294.632 174.572 293.701 174.059L293.036 174.325C291.858 174.857 291.516 175.712 292.352 176.7C294.258 178.97 296.282 181.139 298.413 183.198C298.85 183.616 299.553 184.091 298.983 184.737C298.413 185.383 297.824 184.737 297.368 184.357C293.397 181.45 290.661 177.403 287.602 173.641C284.22 169.48 284.087 170.772 281.731 172.311C279.858 174.044 277.762 175.52 275.499 176.7C274.853 177.213 274.207 177.764 273.599 178.334C269.191 182.4 270.103 181.982 272.022 187.834C272.288 188.632 272.763 188.765 273.447 188.29C275.67 186.77 278.254 185.744 280.002 183.578C280.914 182.457 281.522 182.495 282.092 183.312C284.087 182.685 286.215 188.062 290.718 195.833C291.345 196.916 291.725 198.227 293.321 198.569C294.252 198.759 293.511 199.576 292.922 200.469C292.809 201.158 292.475 201.791 291.972 202.274C287.887 206.568 287.146 208.924 286.101 208.525C285.756 209.061 285.506 209.652 285.36 210.273C284.38 209.062 283.668 207.657 283.27 206.15C282.308 203.761 281.03 201.512 279.47 199.462C278.36 199.07 277.156 199.031 276.023 199.351C274.89 199.671 273.884 200.334 273.143 201.248C272.932 201.413 272.757 201.618 272.627 201.852C272.497 202.085 272.416 202.343 272.387 202.609C272.359 202.875 272.385 203.143 272.462 203.399C272.54 203.655 272.668 203.893 272.839 204.098L273.618 205.029C277.553 209.591 280.647 214.814 282.757 220.457C283.871 221.567 285.252 222.371 286.766 222.794C289.165 222.647 291.573 222.813 293.929 223.288C296.523 223.664 299.047 224.426 301.415 225.549C303.298 225.875 305.205 226.034 307.115 226.024C307.637 225.971 308.162 226.083 308.616 226.346C309.07 226.609 309.429 227.008 309.642 227.487C314.753 236.322 316.596 241.015 326.096 254.201C335.014 264.726 345.019 274.279 355.945 282.701C356.739 283.303 357.577 283.842 358.453 284.316C362.181 282.228 365.069 278.911 366.623 274.93C368.649 268.382 369.924 261.626 370.423 254.79C369.967 250.154 369.435 251.275 363.222 248.425Z" fill="#FADF8F"/>
<path d="M105.031 191.9C105.458 191.912 105.879 191.804 106.247 191.588C106.615 191.372 106.916 191.057 107.114 190.679C107.312 190.3 107.399 189.874 107.367 189.449C107.335 189.023 107.184 188.615 106.931 188.271C106.798 188.005 106.627 187.758 106.475 187.511C101.06 185.611 98.2481 185.079 94.7901 183.502C94.2581 183.255 93.5361 183.027 93.7071 182.172C93.8781 181.317 94.3721 181.374 94.9611 181.241C97.2882 180.859 99.6354 180.611 101.991 180.5C104.936 180.253 107.881 180.158 110.807 179.721C111.16 179.599 111.469 179.375 111.696 179.077C111.922 178.78 112.056 178.422 112.08 178.049C112.08 176.472 110.921 175.921 109.515 175.199C108.755 175.199 108.014 175.199 107.273 175.313C102.941 175.674 98.5901 175.503 94.2961 176.263C93.8211 176.263 93.3651 176.263 93.1751 175.788C93.0746 175.589 93.0462 175.36 93.0947 175.142C93.1432 174.924 93.2656 174.729 93.4411 174.591C93.8824 174.236 94.3527 173.918 94.8471 173.641C105.943 167.01 100.927 170.468 110.047 163.818C110.75 163.305 111.301 162.678 111.035 161.766C110.89 161.345 110.611 160.983 110.24 160.736C109.869 160.488 109.428 160.37 108.983 160.398C107.333 160.306 105.681 160.565 104.138 161.158C98.5901 164.008 94.4861 167.01 87.3421 169.841C86.8956 170.012 86.4032 170.02 85.9515 169.863C85.4998 169.707 85.1176 169.396 84.8721 168.986C84.3401 168.245 85.0051 167.599 85.5181 167.086C87.2996 165.113 89.1966 163.248 91.1991 161.5C91.9514 160.539 92.6492 159.537 93.2891 158.498C93.8211 157.624 94.6191 156.598 93.7261 155.572C92.8331 154.546 91.3891 155.135 89.9261 155.762C84.9861 160.208 79.9511 164.502 74.8781 168.815C74.0611 169.518 74.2891 169.993 74.6121 170.715C75.7039 173.493 75.7039 176.582 74.6121 179.36C74.5171 179.626 74.6121 180.063 74.1371 180.025C74.043 180.02 73.9509 179.997 73.8661 179.956C73.7813 179.915 73.7057 179.857 73.6437 179.786C73.5816 179.715 73.5345 179.633 73.505 179.543C73.4755 179.454 73.4643 179.359 73.4721 179.265C73.3771 175.465 73.8901 172.178 71.3821 169.575C70.4891 168.625 70.7361 167.675 71.0021 166.573C71.8001 163.286 72.9021 160.094 73.7191 156.769C73.6704 156.542 73.5736 156.327 73.4353 156.14C73.297 155.953 73.1203 155.797 72.917 155.684C72.7137 155.571 72.4886 155.502 72.2566 155.483C72.0247 155.463 71.7913 155.494 71.5721 155.572C69.4631 156.028 67.2781 156.484 66.8411 159.258C66.5785 160.423 66.2486 161.571 65.8531 162.697C64.1431 169.024 62.9271 175.503 60.1531 181.507C59.7985 182.508 59.3796 183.486 58.8991 184.433C58.7114 185.588 58.8495 186.773 59.2981 187.853C60.9701 192.337 60.6471 195.586 62.4331 200.26C62.6911 201.11 63.1226 201.897 63.7002 202.571C64.2778 203.246 64.9891 203.793 65.789 204.179C66.5889 204.565 67.4602 204.78 68.3477 204.812C69.2351 204.844 70.1196 204.692 70.9451 204.364C79.7991 200.393 82.0791 197.03 86.1451 192.85C91.0851 187.872 95.6451 192.983 105.031 191.9Z" fill="#FADF8F"/>
<path d="M172.899 328.13C172.899 327.294 172.728 326.458 172.633 325.603C172.232 324.746 171.631 323.998 170.881 323.423C170.13 322.847 169.251 322.461 168.32 322.297C166.112 321.806 163.809 321.964 161.689 322.753C161.818 321.789 162.134 320.86 162.62 320.017C162.886 319.124 163.19 318.231 163.399 317.319C164.463 312.417 160.264 309.149 156.027 312.702C152.822 315.37 150.328 318.79 148.769 322.658C146.6 328.289 145.102 334.156 144.304 340.138C143.696 344.204 144.589 345.04 148.484 343.824C154.296 341.75 159.9 339.136 165.223 336.015C168.377 334.4 172.291 331.721 172.899 328.13Z" fill="#FADF8F"/>
<path d="M246.163 78.3182C246.999 78.5462 247.455 77.9572 247.778 77.3302C254.219 65.0182 274.967 58.5582 275.651 50.7302C275.734 50.2688 275.716 49.795 275.597 49.3415C275.478 48.8881 275.262 48.4659 274.964 48.1044C274.665 47.7428 274.292 47.4505 273.869 47.2477C273.447 47.045 272.985 46.9366 272.516 46.9302C271.195 46.8929 269.877 47.0858 268.621 47.5002C265.859 48.4352 263.308 49.9074 261.116 51.8322C260.128 50.9962 261.401 50.6352 261.116 46.5502C261.115 46.1069 260.987 45.6732 260.748 45.2998C260.509 44.9264 260.169 44.6286 259.767 44.4412C259.346 44.2919 258.889 44.2815 258.461 44.4114C258.034 44.5413 257.659 44.8048 257.392 45.1632C256.411 46.0524 255.538 47.0536 254.789 48.1462C245.821 62.2442 246.277 72.1432 245.631 77.0262C245.555 77.5582 245.555 78.1472 246.163 78.3182Z" fill="#FADF8F"/>
<path d="M248.291 306.147C253.516 308.294 251.369 311.847 250.552 315.647C250.457 316.084 250.343 316.692 250.951 316.958C251.559 317.224 252.11 316.141 254.257 314.127C256.765 311.79 259.121 309.149 263.111 309.852C263.395 309.878 263.68 309.831 263.94 309.714C264.199 309.598 264.425 309.416 264.593 309.187C267.028 306.8 269.079 304.05 270.673 301.036C271.49 299.345 272.136 297.236 270.673 295.678C269.21 294.12 267.12 294.215 265.068 294.842C262.783 295.772 260.746 297.223 259.121 299.079C259.56 296.571 259.713 294.022 259.577 291.479C259.639 290.81 259.488 290.138 259.147 289.558C258.807 288.979 258.292 288.521 257.677 288.249C257.121 288.041 256.517 287.999 255.937 288.127C255.357 288.255 254.826 288.548 254.409 288.971C252.798 290.111 251.492 291.632 250.609 293.398C249.078 296.564 247.807 299.849 246.809 303.221C246.63 303.5 246.526 303.821 246.509 304.152C246.492 304.483 246.561 304.813 246.711 305.109C246.861 305.405 247.086 305.656 247.363 305.839C247.64 306.021 247.96 306.127 248.291 306.147Z" fill="#FADF8F"/>
<path d="M79.2869 242.516C74.8609 245.078 71.0633 248.596 68.1719 252.814C66.4781 255.009 65.1441 257.459 64.2199 260.072C63.9776 260.461 63.884 260.925 63.9565 261.377C64.029 261.83 64.2627 262.241 64.6144 262.535C64.9661 262.829 65.4122 262.986 65.8704 262.977C66.3287 262.967 66.7682 262.793 67.1079 262.485C69.3587 260.921 71.4865 259.187 73.4729 257.298C75.5439 255.398 75.5819 255.246 74.8599 258.115C73.5109 263.34 72.1239 268.622 73.7959 272.745C74.0354 273.572 74.5337 274.301 75.2176 274.824C75.9015 275.347 76.735 275.638 77.5959 275.652C79.4959 275.652 80.1229 273.98 80.5979 272.441C81.6569 268.305 82.2935 264.071 82.4979 259.806C83.0109 254.467 82.6499 248.957 85.3099 243.979C86.9439 241.034 81.3959 241.3 79.2869 242.516Z" fill="#FADF8F"/>
<path d="M110.409 254.6C111.028 254.952 111.725 255.146 112.437 255.165C113.149 255.185 113.855 255.029 114.493 254.712C115.13 254.395 115.681 253.926 116.095 253.347C116.509 252.768 116.775 252.096 116.869 251.389C116.852 248.744 117.132 246.106 117.705 243.523C119.909 235.41 123.101 227.924 130.777 223.326C131.278 223.105 131.682 222.71 131.916 222.215C132.15 221.719 132.197 221.156 132.05 220.629C131.902 219.953 131.549 219.34 131.038 218.874C130.528 218.408 129.886 218.112 129.2 218.025C127.593 217.686 125.928 217.74 124.346 218.184C122.765 218.627 121.314 219.446 120.118 220.571C117.45 223.429 115.308 226.735 113.791 230.338C108.832 240.636 108.699 249.47 109.041 250.876C109.383 252.282 109.136 253.65 110.409 254.6Z" fill="#FADF8F"/>
<path d="M132.999 117.306C133.778 120.536 134.633 123.747 135.621 126.92C136.196 128.649 136.927 130.321 137.806 131.917C138.017 132.399 138.351 132.816 138.776 133.126C139.2 133.437 139.698 133.63 140.221 133.686C140.743 133.742 141.272 133.659 141.752 133.445C142.232 133.231 142.647 132.894 142.955 132.468C143.66 131.787 144.167 130.926 144.421 129.979C144.675 129.032 144.668 128.034 144.399 127.091L143.126 122.702C144.961 123.605 146.868 124.354 148.826 124.944C151.505 125.514 153.31 124.773 154.127 122.664C154.388 122.136 154.536 121.559 154.562 120.97C154.587 120.381 154.49 119.793 154.275 119.244C154.06 118.695 153.734 118.197 153.316 117.782C152.897 117.366 152.397 117.042 151.847 116.831C150.446 116.122 148.991 115.525 147.496 115.045C143.967 113.693 140.194 113.091 136.419 113.278C133.645 113.525 132.391 114.969 132.999 117.306Z" fill="#FADF8F"/>
<path d="M188.688 295.393C189.749 299.755 192.131 303.684 195.509 306.641C197.561 308.541 197.922 308.541 199.119 305.995C202.235 299.402 205.674 296.324 206.719 291.992C206.976 291.241 207.009 290.431 206.813 289.662C206.618 288.893 206.202 288.197 205.617 287.66C205.006 287.155 204.256 286.846 203.466 286.775C202.676 286.704 201.882 286.873 201.19 287.261C199.221 288.187 197.535 289.624 196.307 291.422C195.129 289.37 194.255 287.204 191.709 287.622C191.021 287.73 190.378 288.032 189.856 288.493C189.334 288.954 188.956 289.555 188.764 290.225C188.221 291.901 188.194 293.702 188.688 295.393Z" fill="#FADF8F"/>
<path d="M167.902 223.535C169.428 225.429 171.376 226.941 173.589 227.95C175.802 228.959 178.22 229.438 180.651 229.349C181.867 229.349 182.551 228.969 182.418 227.582C182.247 224.295 182.589 217.132 182.114 213.047C182.094 212.426 181.874 211.829 181.487 211.343C181.1 210.857 180.567 210.508 179.967 210.349C179.429 210.163 178.847 210.148 178.3 210.304C177.752 210.46 177.267 210.781 176.908 211.223C175.612 212.54 174.888 214.315 174.894 216.163C174.894 216.619 175.179 217.303 174.514 217.474C173.849 217.645 172.994 216.676 170.144 214.662C169.135 213.898 167.913 213.466 166.648 213.427C164.539 213.427 163.665 214.472 164.007 216.543C164.61 219.198 165.961 221.625 167.902 223.535Z" fill="#FADF8F"/>
<path d="M238.107 148.2C234.953 147.364 233.756 151.373 232.502 154.28C231.914 152.59 231.177 150.956 230.298 149.397C229.557 148.333 228.816 147.155 227.334 147.63C225.852 148.105 225.567 149.416 225.434 150.822C225.244 156.047 226.555 163.533 229.234 167.523C230.127 168.948 231.951 169.423 232.483 168.226C233.642 165.813 235.713 164.084 237.081 161.842C238.981 158.878 240.71 155.933 240.691 152.342C240.653 149.948 239.874 148.713 238.107 148.2Z" fill="#FADF8F"/>
<path d="M235.371 349.277C236.748 348.662 237.984 347.77 239 346.655C239.703 348.688 240.9 351.006 242.99 350.455C244.434 350.113 245.27 348.555 245.251 346.142C244.947 343.525 244.813 340.891 244.852 338.257C244.985 336.965 244.073 336.775 242.952 336.946C236.758 337.896 233.965 343.216 232.901 347.187C232.79 347.522 232.784 347.883 232.882 348.223C232.98 348.562 233.179 348.863 233.452 349.087C233.712 349.316 234.037 349.457 234.381 349.491C234.725 349.525 235.072 349.45 235.371 349.277Z" fill="#FADF8F"/>
<path d="M201.969 339.872C201.358 339.905 200.782 340.165 200.353 340.601C199.924 341.037 199.674 341.617 199.651 342.228C199.537 343.368 198.967 343.691 197.903 343.596C195.885 343.551 193.885 343.987 192.07 344.869C191.272 345.173 190.55 345.667 190.55 346.598C190.55 347.529 191.348 347.928 192.146 348.213C194.139 349.001 196.275 349.364 198.416 349.277C201.115 349.276 203.79 348.766 206.301 347.776C209.132 346.902 205.256 345.743 204.135 341.867C203.85 340.822 203.299 339.739 201.969 339.872Z" fill="#FADF8F"/>
<path d="M118.028 258.4C117.924 257.64 117.534 256.947 116.937 256.464C116.341 255.98 115.583 255.742 114.817 255.797C113.316 255.797 111.473 255.55 111.017 257.374C110.048 261.402 109.117 266.494 113.126 267.045C114.133 267.243 115.178 267.048 116.047 266.5C116.916 265.953 117.543 265.094 117.8 264.1C118.128 262.862 118.25 261.578 118.161 260.3C118.192 259.664 118.148 259.026 118.028 258.4Z" fill="#FADF8F"/>
<path d="M281.351 285.931C276.221 265.962 278.159 249.831 275.499 228.931C275.217 225.748 274.059 222.706 272.155 220.14C270.25 217.575 267.672 215.587 264.707 214.396C256.556 210.748 247.037 213.997 241.166 213.332C243.997 209.836 243.997 208.411 241.28 204.915C240.923 204.395 240.502 203.923 240.026 203.509C238.601 202.483 238.867 201.495 240.026 200.431C241.875 198.427 242.964 195.839 243.104 193.116C243.266 191.443 242.869 189.764 241.976 188.34C241.082 186.917 239.741 185.83 238.164 185.25C235.611 184.362 232.955 183.807 230.26 183.597C223.643 183.27 217.01 183.543 210.443 184.414C194.426 186.314 172.88 184.224 159.504 183.483C152.816 183.103 148.218 186.713 143.373 190.133C141.473 191.444 141.473 193.192 142.575 195.187C144.779 199.424 150.175 200.032 147.591 201.78C145.805 203.071 144.538 204.958 144.019 207.1C143.815 207.882 143.386 208.588 142.785 209.128C142.184 209.669 141.437 210.021 140.637 210.14C136.508 211.037 132.262 211.274 128.059 210.843C124.184 210.632 120.355 211.773 117.229 214.073C110.36 219.134 105.245 226.216 102.599 234.327C101.167 239.261 100.526 244.392 100.699 249.527C99.996 301.891 101.155 291.517 98.096 312.892C96.196 325.831 91.389 341.031 104.195 351.063C113.847 358.663 124.487 363.489 137.046 363.527C161.993 363.641 167.446 371.127 223.667 364.173C233.832 362.919 243.883 360.791 253.934 358.758C258.076 357.941 276.468 352.146 276.943 351.842C281.427 348.84 283.65 344.356 285.303 339.397C288.514 329.802 287.488 320.112 286.253 310.403C285.132 302.151 283.495 293.978 281.351 285.931ZM283.118 337.402C282.521 339.719 281.654 341.957 280.534 344.071C279.883 345.478 278.934 346.726 277.753 347.73C276.572 348.734 275.187 349.469 273.694 349.885C267.006 351.576 260.603 354.464 253.896 356.003C231.194 361.282 208.001 364.16 184.698 364.591C166.211 364.895 158.402 361.513 134.595 361.019C124.129 360.683 114.07 356.881 106 350.208C98.818 344.603 97.298 336.908 98.21 328.339C99.312 318.269 101.611 308.351 102.466 298.243C102.998 291.821 102.466 285.38 102.599 278.939C102.789 267.406 102.238 255.873 102.485 244.34C102.567 236.484 105.443 228.913 110.598 222.984C115.595 217.056 120.516 212.686 128.325 213.218C133.436 213.579 138.547 213.769 143.183 210.957C143.753 210.615 144 210.786 144.342 211.356C145.178 212.743 145.235 212.724 146.242 213.256C146.622 212.952 146.47 212.629 146.242 212.268C144.874 208.582 145.387 206.568 148.408 203.87C150.46 201.97 150.65 200.792 149.244 198.455C148.366 197.144 147.318 195.956 146.128 194.921C145.838 194.722 145.601 194.455 145.437 194.144C145.273 193.833 145.187 193.487 145.187 193.135C145.187 192.783 145.273 192.437 145.437 192.126C145.601 191.815 145.838 191.548 146.128 191.349C148.772 189.092 151.689 187.177 154.811 185.649C156.027 184.965 176.794 186.352 182.342 186.599C199.86 187.321 198.815 187.739 214.927 185.877C221.901 185.006 228.974 185.359 235.827 186.922C236.962 187.129 238.022 187.635 238.896 188.389C239.77 189.142 240.427 190.116 240.799 191.208C241.171 192.301 241.245 193.473 241.012 194.603C240.779 195.734 240.248 196.781 239.475 197.638C235.865 202.236 235.865 202.407 239.912 206.644C241.071 207.86 241.413 208.848 240.957 209.741C240.216 211.185 236.169 212.211 239.266 214.605C242.363 216.999 247.094 214.415 256.594 214.852C260.637 214.975 264.553 216.297 267.842 218.652C272.383 221.939 273.732 226.708 274.416 231.952C276.316 246.886 273.181 264.499 278.672 286.064C280.869 294.271 282.538 302.61 283.669 311.03C284.752 319.941 285.854 328.7 283.099 337.402H283.118Z" fill="#3C270B"/>
<path d="M237.499 129.2C237.708 129.656 239.627 134.064 239.703 134.216C239.783 134.493 239.925 134.748 240.118 134.962C240.311 135.176 240.55 135.344 240.817 135.452C241.085 135.56 241.373 135.606 241.661 135.586C241.948 135.566 242.228 135.481 242.477 135.337C247.546 133.481 252.506 131.343 257.335 128.934C257.414 129.677 257.211 130.423 256.765 131.024C248.595 147.079 241.375 149.283 246.41 152.247C250.666 154.869 251.521 155.914 254.01 153.425C257.468 149.967 264.916 140.866 267.063 138.225C269.21 145.597 267.804 147.345 267.652 154.47C267.652 157.738 268.146 158.27 271.319 159.011L273.599 159.6C277.399 160.436 277 159.22 278.425 152.228C279.47 147.041 280.515 143.089 280.8 142.158C281.218 140.733 281.674 140.771 282.852 141.721C285.665 143.857 287.84 146.721 289.141 150.005C289.559 150.936 290.015 151.715 291.25 151.335C292.984 150.782 294.789 150.481 296.608 150.442C299.382 150.442 297.862 147.269 296.494 144.571C295.335 142.272 294.252 139.916 293.093 137.617C292.71 136.98 292.521 136.244 292.552 135.501C292.582 134.758 292.83 134.04 293.264 133.437C294.667 130.844 295.936 128.18 297.064 125.457C299.401 120.251 296.893 119.453 299.572 118.047C319.853 107.276 338.422 93.5539 354.672 77.3298C356.511 75.6102 358.16 73.6994 359.593 71.6298C360.6 70.0908 361.303 68.2668 358.339 71.1738C345.179 84.1941 330.857 95.9851 315.551 106.4C309.642 110.352 303.809 113.582 297.653 117.306C297.14 117.629 296.57 117.895 296.361 118.503C296.303 118.636 296.265 118.777 296.247 118.921C295.848 124.279 293.188 128.782 291.041 133.095C290.686 133.795 290.501 134.57 290.501 135.356C290.501 136.141 290.686 136.916 291.041 137.617C292.39 140.752 293.986 143.735 295.525 146.756C296.19 147.953 296.266 148.428 294.974 148.504C293.682 148.58 292.333 149.34 291.307 149.017C290.281 148.694 290.034 146.832 289.255 145.806C288.913 145.35 288.685 144.818 288.343 144.381C286.637 141.861 284.205 139.92 281.37 138.814C280.724 138.586 279.47 138.339 279.603 139.061C279.717 140.961 278.52 142.31 278.216 143.982C277.532 147.649 275.708 156.332 275.632 156.731C275.556 157.13 275.632 157.852 274.739 157.871C270.616 158.023 269.286 156.617 269.742 152.513V152.133C269.913 147.801 270.711 143.431 269.001 139.251C268.412 137.807 267.899 136.857 269.248 135.85C270.122 135.185 269.248 133.646 268.108 134.691C264.46 137.864 267.101 135.584 254.808 149.891C251.882 153.273 251.844 153.178 248.139 150.841C247.132 150.195 246.961 149.701 247.645 148.789C248.823 147.231 249.982 145.635 251.103 144.039C254.422 139.84 257.098 135.173 259.045 130.188C259.482 128.896 259.824 127.889 261.306 127.718C261.819 127.718 262.408 127.471 262.275 126.825C262.142 126.179 261.591 126.179 261.059 126.179C256.86 126.179 253.877 128.611 244.567 132.43C241.071 133.874 241.945 133.969 240.311 130.701C239.513 129.086 239.76 128.364 241.356 127.566C245.73 125.479 249.958 123.098 254.01 120.441C258.304 117.534 262.864 114.95 266.398 111.055C269.419 116.926 271.262 118.959 273.561 118.655C266.854 110.827 268.412 108.794 265.201 107.939C262.54 106.983 260.125 105.444 258.133 103.436C256.936 102.41 256.233 101.973 257.145 100.719C258.382 99.2136 259.756 97.8269 261.249 96.5768C262.465 95.3798 262.009 97.1468 267.766 99.9398C270.236 101.137 274.834 102.752 275.176 102.847C277.011 103.542 278.983 103.801 280.935 103.603C282.887 103.405 284.766 102.756 286.424 101.707C291.185 98.9786 295.671 95.7972 299.819 92.2068C317.052 76.6458 330.599 57.4938 337.059 43.6998C337.797 42.5632 338.223 41.2527 338.294 39.8998C338.294 39.5768 338.294 39.2348 337.857 39.1968C337.42 39.1588 337.306 39.3868 337.23 39.7288C336.726 41.4118 335.991 43.0168 335.045 44.4978C323.835 64.7898 304.436 88.8248 284.087 100.7C283.127 101.287 282.058 101.674 280.945 101.837C279.832 102 278.697 101.937 277.608 101.65C272.342 100.148 267.314 97.9092 262.674 94.9998C262.199 94.7148 261.743 94.0118 261.021 94.6198C258.98 95.9939 257.149 97.658 255.587 99.5598C255.188 100.206 254.922 100.985 253.687 100.814C253.003 100.814 252.946 101.46 253.193 101.935C253.471 102.423 253.831 102.861 254.257 103.227C257.515 106.077 261.107 108.521 264.954 110.504C260.497 113.906 255.868 117.077 251.084 120.004C247.037 122.55 242.667 124.526 238.468 126.787C237.594 127.3 236.91 127.908 237.499 129.2Z" fill="#3C270B"/>
<path d="M82.2497 203.3C85.761 200.466 88.9758 197.283 91.8447 193.8C93.6307 191.729 93.3077 192.888 99.8057 193.572C102.147 194.049 104.524 194.329 106.912 194.408C108.109 194.408 109.401 194.237 109.971 192.945C111.662 189.259 110.541 186.656 106.703 185.345C104.803 184.68 101.003 183.578 98.7227 182.894C99.9913 182.58 101.292 182.415 102.599 182.4C106.305 182.214 109.99 181.731 113.619 180.956C114.569 180.709 115.519 180.367 115.747 179.322C115.838 178.68 115.8 178.027 115.637 177.4C115.474 176.773 115.188 176.184 114.795 175.668C114.403 175.152 113.912 174.719 113.352 174.394C112.791 174.069 112.171 173.858 111.529 173.774H105.24C101.307 174.002 101.44 173.774 98.5517 173.774C99.0077 173.489 99.7107 172.976 100.281 172.653C104.328 170.354 108.375 168.055 112.441 165.794C115.766 163.894 113.771 161.215 111.757 157.947C111.474 157.378 110.98 156.942 110.38 156.732C109.78 156.523 109.121 156.556 108.546 156.826C101.402 159.22 96.2337 163.856 88.4057 167.086C91.0087 163.495 95.6447 160.626 98.7417 155.819C99.4827 154.641 99.6917 153.463 98.3427 152.513C97.0601 151.773 95.5892 151.424 94.1108 151.508C92.6323 151.592 91.2107 152.107 90.0207 152.988C84.7957 157.377 79.7417 161.918 74.8207 166.573C74.2507 167.105 73.6427 168.359 72.8257 167.827C72.0087 167.295 72.8257 166.421 72.9967 165.414C73.7757 161.747 75.4667 158.289 75.7707 154.508C76.0367 151.05 75.5047 150.518 72.1037 150.404C67.9997 150.29 68.1327 150.404 66.8027 154.204C63.8809 162.322 61.5256 170.632 59.7537 179.075C59.1469 182.639 57.2456 185.853 54.4147 188.1C45.2567 195.187 35.9847 202.16 26.6937 209C22.0957 212.458 17.3837 215.688 11.4937 216.828C9.15669 217.303 9.40369 218.975 11.0187 218.728C16.7904 217.638 22.2172 215.182 26.8457 211.565C35.3007 205.542 43.5277 199.177 51.7927 192.85C54.7834 190.635 57.2165 187.753 58.8987 184.433C61.8247 178.448 60.7987 173.584 68.1137 154.85C68.2789 154.068 68.7422 153.38 69.4053 152.934C70.0685 152.487 70.8795 152.316 71.6667 152.456C74.2887 152.627 74.4027 152.684 73.9467 155.325C73.3767 158.536 71.7237 163.248 70.9257 166.573C70.703 167.059 70.6206 167.598 70.6877 168.128C70.7549 168.659 70.9689 169.16 71.3057 169.575C73.8137 172.178 73.2057 175.408 73.3957 179.265C73.3879 179.359 73.3991 179.454 73.4286 179.543C73.4581 179.633 73.5052 179.715 73.5672 179.786C73.6293 179.857 73.7049 179.915 73.7897 179.956C73.8745 179.997 73.9666 180.02 74.0607 180.025C74.5167 180.025 74.4407 179.626 74.5357 179.36C75.6275 176.582 75.6275 173.493 74.5357 170.715C74.2127 169.974 73.9847 169.518 74.8017 168.815C78.2787 165.87 87.7787 157.719 90.9137 154.793C91.6825 154.058 92.6415 153.553 93.6824 153.335C94.7233 153.117 95.8045 153.194 96.8037 153.558C97.9627 153.843 97.9437 154.356 97.3547 155.116C94.1057 159.429 90.0397 161.88 85.4987 167.048C84.9857 167.618 84.3207 168.264 84.8527 168.948C85.0982 169.358 85.4804 169.669 85.9321 169.825C86.3838 169.982 86.8762 169.974 87.3227 169.803C95.3787 166.668 100.205 162.773 106.76 159.809C110.142 158.308 110.294 158.384 112.118 161.709C112.916 163.172 112.802 164.027 111.13 164.749C104.975 167.622 99.0265 170.917 93.3267 174.61C93.1557 174.756 93.0384 174.955 92.9936 175.176C92.9489 175.396 92.9792 175.625 93.0797 175.826C93.2697 176.32 93.7257 176.377 94.1817 176.301C98.4886 175.766 102.82 175.449 107.159 175.351C108.787 175.152 110.433 175.152 112.061 175.351C113.828 175.636 113.809 177.251 113.961 178.41C114.113 179.569 112.84 179.284 112.061 179.436C107.33 180.348 98.0577 180.462 94.7897 181.146C94.2007 181.26 93.6497 181.393 93.5167 182.077C93.3837 182.761 94.0677 183.16 94.6187 183.388C98.1337 185.003 102.409 185.972 107.083 187.682C109.363 188.499 107.805 190.285 107.938 191.596C108.071 192.907 106.855 192.584 106.038 192.546C101.909 192.297 97.8058 191.731 93.7637 190.855C93.1931 190.698 92.5901 190.704 92.0227 190.872C91.4553 191.04 90.9461 191.363 90.5527 191.805C85.7492 197.163 80.45 202.055 74.7257 206.416C74.3595 206.74 73.9322 206.988 73.4688 207.145C73.0055 207.301 72.5155 207.364 72.0277 207.328C69.6422 207.049 67.2257 207.421 65.0345 208.404C62.8433 209.388 60.9594 210.946 59.5827 212.914C53.4837 220.704 47.1377 228.304 40.9247 235.999C37.1247 240.711 32.8687 245.024 29.7337 250.268C28.8027 251.807 28.3467 253.213 29.9997 251.408C41.3047 239.59 51.3177 226.708 61.5587 213.978C62.6005 212.563 63.9328 211.386 65.4664 210.528C67 209.669 68.6994 209.148 70.4507 209C75.2767 208.639 78.7727 205.979 82.2497 203.3Z" fill="#3C270B"/>
<path d="M165.831 111.34C166.325 113.24 167.37 113.867 169.384 113.24C173.88 112.283 178.082 110.263 181.639 107.35C181.867 107.141 182.057 106.609 182.513 107.008C182.969 107.407 183.216 107.578 182.931 108.129C182.646 108.68 182.665 108.832 182.532 109.174C177.06 121.41 171.246 131.1 170.03 133.285C169.422 134.425 169.517 135.185 171.132 135.185C181.905 135.413 176.395 140.581 188.232 122.74C188.517 122.303 188.65 121.524 189.543 121.619C189.58 127.166 189.167 132.707 188.308 138.187C187.816 140.518 187.745 142.918 188.099 145.274C188.327 146.129 188.707 146.87 189.695 146.851C191.616 146.892 193.527 147.141 195.395 147.592C196.972 147.858 197.713 147.117 197.922 145.578C199.48 133.228 199.67 133.133 201.874 120.878C206.776 129.96 205.921 130.872 208.999 138.833C209.854 141.056 210.899 141.531 213.35 140.98C214.072 140.809 214.794 140.6 215.516 140.372C216.141 140.231 216.688 139.853 217.041 139.319C217.395 138.784 217.529 138.134 217.416 137.503C217.169 134.292 216.409 131.024 213.882 118.199C214.069 118.053 214.266 117.92 214.471 117.8C216.257 119.7 218.005 121.733 219.867 123.5C222.736 126.331 224.731 123.082 227.467 120.517C227.749 120.312 227.981 120.047 228.148 119.741C228.314 119.435 228.41 119.096 228.428 118.748C228.446 118.4 228.386 118.053 228.253 117.731C228.119 117.409 227.916 117.121 227.657 116.888C225.995 114.628 224.207 112.465 222.299 110.409C220.968 109.235 220.099 107.625 219.848 105.868C219.563 102.923 219.221 99.9781 218.803 97.0521C218.1 92.1121 217.207 87.2101 213.635 83.3341C213.05 82.6541 212.415 82.019 211.735 81.4341C211.597 81.3163 211.422 81.2516 211.241 81.2516C211.06 81.2516 210.884 81.3163 210.747 81.4341C210.627 81.5668 210.56 81.7395 210.56 81.9186C210.56 82.0977 210.627 82.2703 210.747 82.4031L210.956 82.7071C213.153 85.392 214.752 88.5139 215.649 91.8651C216.494 95.5409 217.06 99.2757 217.34 103.037C217.356 104.677 217.701 106.297 218.353 107.801C219.006 109.306 219.953 110.664 221.14 111.796C222.958 113.655 224.617 115.663 226.099 117.8C226.422 118.199 227.049 118.598 226.384 119.225C225.244 120.308 224.123 121.41 222.964 122.493C222.86 122.614 222.732 122.71 222.588 122.776C222.443 122.843 222.287 122.877 222.128 122.877C221.969 122.877 221.812 122.843 221.668 122.776C221.524 122.71 221.395 122.614 221.292 122.493C218.499 119.453 214.699 117.42 212.799 113.753C212.571 113.335 212.248 112.955 211.792 113.107C211.336 113.259 211.241 113.772 211.317 114.247C212.533 122.398 214.566 129.998 215.611 137.047C215.782 138.092 215.497 138.567 214.604 138.947C211.944 139.916 211.222 139.631 210.253 136.876C208.353 131.613 206.966 126.198 203.907 121.41C203.052 120.099 202.14 118.788 202.9 117.059C203.033 116.755 203.147 116.128 202.52 115.976C201.893 115.824 201.703 116.28 201.551 116.679C201.052 117.958 200.627 119.265 200.278 120.593C198.587 127.946 197.58 135.413 196.592 142.88C196.44 143.963 197.067 145.464 196.06 146.034C195.053 146.604 193.78 145.711 192.621 145.502C189.676 144.932 189.619 144.856 189.942 141.702C191.538 125.704 191.69 127.68 190.93 119.168C190.93 118.902 191.31 118.598 190.93 118.332C190.55 118.066 190.227 118.332 189.885 118.484C187.51 119.871 186.465 122.037 179.511 132.772C179.074 133.437 178.713 134.406 177.82 134.406C175.86 134.658 173.869 134.51 171.968 133.969C176.752 125.877 180.906 117.429 184.394 108.699C186.344 109.554 188.458 109.968 190.586 109.912C192.714 109.856 194.804 109.332 196.706 108.376C195.177 108.025 193.592 107.992 192.051 108.281C189.106 108.281 186.028 108.129 183.805 106.172C182.38 104.918 181.734 105.336 180.613 106.172C177.714 108.266 174.51 109.9 171.113 111.017C167.313 112.271 168.054 112.024 165.413 106.837C165.109 106.229 164.938 105.887 165.888 105.545C175.882 102.049 183.558 95.2851 190.588 87.7421C191.329 86.9631 193.305 85.8421 191.234 84.3031C191.12 84.3031 191.234 83.7331 191.367 83.4481C192.925 73.6441 194.616 63.8781 196.041 54.0741C197.977 40.7534 201.897 27.7975 207.669 15.6371C209.037 12.6351 208.106 11.9511 206.358 15.0671C194.312 36.7271 193.343 59.6981 190.322 80.7121C189.98 83.0111 190.607 85.4811 188.422 87.4951C181.164 94.0691 173.773 100.415 164.672 104.367C162.297 105.184 164.539 106.4 165.831 111.34Z" fill="#3C270B"/>
<path d="M92.8518 84.7208C93.9987 86.455 95.409 87.9999 97.0318 89.2998C97.9628 89.9648 98.0008 90.5348 97.4878 91.5988C95.1318 96.5958 92.8708 101.65 90.6098 106.685C88.7098 110.732 91.8448 109.934 96.1388 114.095C97.3928 115.349 97.1268 114.532 97.5448 117.724C97.8488 119.852 98.1718 121.999 98.3618 124.127C98.6088 126.901 99.2738 127.927 102.162 127.927C105.05 127.927 107.501 129.143 109.933 127.205C110.257 127.003 110.634 126.904 111.016 126.92C114.249 126.504 117.503 126.263 120.763 126.198C124.126 126.445 127.641 126.008 131.118 126.027C131.897 126.027 132.543 125.799 132.486 124.887C132.576 122.058 132.301 119.229 131.669 116.47C130.852 114.076 128.895 114.247 126.482 115.045C123.138 116.147 122.283 117.344 121.656 115.938C120.389 112.723 118.804 109.642 116.925 106.742C116.355 105.906 116.393 105.317 117.438 104.842C120.478 103.512 123.48 102.144 126.501 100.776C126.768 101.241 126.862 101.786 126.767 102.315C126.821 105.65 127.055 108.98 127.47 112.29C127.679 113.715 128.401 114.19 129.845 113.734C131.745 113.202 133.873 112.822 135.887 112.423C139.06 111.796 137.426 110.048 136.609 106.381C135.697 102.22 136.609 98.1158 137.065 93.9928C137.521 89.8698 136.229 88.0268 132.049 87.0578C128.441 86.5686 124.885 85.7481 121.428 84.6068C120.598 84.3206 119.847 83.8429 119.237 83.2124C118.626 82.5819 118.172 81.8163 117.913 80.9778C112.872 66.9884 109.729 52.3869 108.565 37.5628C108.147 31.7108 108.337 25.8588 108.242 19.9878C108.242 18.3538 107.349 18.2018 107.102 19.8168C106.611 23.1825 106.376 26.5806 106.399 29.9818C106.26 40.8218 107.453 51.6378 109.952 62.1868C111.31 69.1065 113.412 75.8592 116.222 82.3268C116.551 83.4934 117.303 84.4958 118.331 85.1388C121.199 86.73 124.314 87.8282 127.546 88.3878C129.617 88.5588 132.144 88.9008 133.246 89.0908C137.046 89.7558 135.887 91.4658 135.032 95.8548C134.145 99.531 133.977 103.344 134.538 107.084C134.785 108.49 136.438 110.105 135.564 111.112C134.69 112.119 132.676 111.967 131.156 112.328L130.776 112.423C129.636 112.613 129.104 112.423 129.066 111.055C128.952 107.597 128.667 104.139 128.724 100.662C128.724 100.035 128.724 99.2938 128.249 99.0088C127.774 98.7238 127.337 99.0088 126.748 99.1418C122.832 100.196 119.07 101.754 115.557 103.778C115.293 103.863 115.059 104.021 114.882 104.234C114.705 104.447 114.592 104.706 114.556 104.981C114.52 105.255 114.563 105.534 114.68 105.786C114.796 106.037 114.982 106.25 115.215 106.4C116.298 107.464 116.07 107.92 118.559 113.753C120.459 118.294 120.459 118.807 123.898 117.705C125.721 116.956 127.639 116.464 129.598 116.242C132.125 116.071 129.769 118.142 130.814 122.968C131.08 124.127 130.605 124.222 129.693 124.222H116.906C116.548 124.257 116.189 124.181 115.876 124.004C115.563 123.827 115.312 123.558 115.158 123.234C113.373 120.533 111.253 118.068 108.85 115.9C108.318 115.425 107.634 114.589 106.95 115.311C106.266 116.033 107.254 116.508 107.691 116.945C109.971 119.244 111.7 121.961 113.961 124.545C111.738 125.229 109.154 125.21 107.311 126.749C107.311 126.635 107.311 126.559 107.178 126.445C104.534 119.846 99.9235 114.221 93.9728 110.333C93.0038 109.687 90.1728 109.136 91.7118 107.578C92.3699 107.067 92.9082 106.419 93.2888 105.678C95.5837 101.201 97.4907 96.5348 98.9888 91.7318C99.1474 91.3519 99.2011 90.9364 99.1443 90.5286C99.0875 90.1209 98.9222 89.7358 98.6658 89.4138C97.8298 88.4068 97.0888 87.3048 96.2718 86.2598C84.7686 71.6784 76.5564 54.7809 72.1988 36.7268C71.3628 33.1358 70.1658 33.4208 70.8878 37.0308C74.2599 54.4649 81.7951 70.8259 92.8518 84.7208ZM105.24 126.369C103.964 126.427 102.687 126.319 101.44 126.046C101.226 125.982 101.028 125.875 100.858 125.731C100.688 125.587 100.55 125.41 100.452 125.21C100.175 124.394 100.015 123.543 99.9768 122.683C99.8058 120.973 99.4638 119.282 99.3688 117.496C101.888 120.04 103.883 123.055 105.24 126.369Z" fill="#3C270B"/>
<path d="M319.37 218.12C319.38 219.12 319.782 220.075 320.491 220.78C332.184 233.428 346.873 242.929 363.203 248.406C365.103 249.033 366.414 249.489 367.478 249.793C368.542 250.097 369.378 249.394 368.2 248.824C363.184 246.392 353.627 243.124 346.255 238.64C337.553 233.263 328.718 227.962 322.505 219.431C321.945 218.69 321.627 217.794 321.593 216.866C321.149 208.005 321.149 199.127 321.593 190.266C321.739 189.596 321.693 188.898 321.46 188.252C319.157 184.304 316.619 180.497 313.86 176.852C310.934 172.843 310.725 172.786 307.78 176.643C307.058 177.555 306.697 177.308 306.089 176.776C304.341 175.313 302.593 173.888 300.845 172.444C300.261 171.956 299.562 171.625 298.814 171.482C298.066 171.339 297.294 171.389 296.57 171.627C294.692 172.112 292.856 172.747 291.079 173.527C289.977 174.078 289.597 173.717 289.008 172.957C288.02 171.703 286.975 170.525 285.911 169.366C285.512 168.929 285.056 168.302 284.334 168.663C283.297 169.109 282.321 169.683 281.427 170.373C277.038 174.287 271.794 176.871 266.778 179.873C265.942 180.367 266.284 180.785 266.626 181.184C268.308 183.307 269.454 185.803 269.97 188.461C270.312 189.886 271.224 191.235 273.048 190.836C274.651 190.514 276.17 189.868 277.513 188.936C277.912 188.67 279.413 187.131 280.705 185.858L281.275 185.288C281.352 185.212 281.445 185.155 281.547 185.118C281.648 185.082 281.757 185.069 281.864 185.079C281.972 185.089 282.077 185.121 282.172 185.173C282.267 185.225 282.35 185.297 282.415 185.383C282.643 185.725 282.795 186.124 283.004 186.447C285.759 190.703 287.45 195.643 291.098 199.329C291.402 199.633 291.307 199.842 291.098 200.108L285.132 206.777C284.235 203.837 282.861 201.064 281.066 198.569C280.642 197.932 280.056 197.421 279.368 197.087C278.68 196.753 277.915 196.608 277.152 196.669C275.27 196.873 273.478 197.582 271.965 198.721C269.609 200.412 268.963 201.476 271.224 204.421C275.545 209.912 279.111 215.957 281.826 222.395C282.012 223.029 282.425 223.573 282.985 223.923C283.545 224.273 284.215 224.406 284.866 224.295C288.193 223.979 291.549 224.282 294.765 225.188C298.774 226.043 302.935 226.879 305.671 230.451C308.084 233.605 310.554 236.721 312.777 239.951C322.447 254.373 334.181 267.298 347.604 278.312C350.349 280.828 353.416 282.968 356.724 284.677C359.175 285.874 360.391 285.95 355.755 282.397C336.377 267.471 319.953 249.062 307.324 228.114C306.393 226.575 306.336 226.613 304.702 226.841C304.531 226.841 304.36 226.708 304.189 226.613C300.973 224.803 297.46 223.581 293.815 223.003C290.965 222.68 288.248 221.939 285.398 222.756C283.327 223.402 283.403 222.319 282.624 220.153C280.514 214.516 277.42 209.299 273.485 204.744C270.407 200.944 270.255 200.659 275.005 198.778C275.309 198.645 275.613 198.588 275.898 198.474C276.563 198.178 277.313 198.13 278.01 198.339C278.707 198.548 279.306 199 279.698 199.614C281.078 201.588 282.22 203.718 283.099 205.96C283.498 206.891 283.745 207.86 284.258 208.848C284.326 208.974 284.428 209.078 284.552 209.149C284.677 209.219 284.819 209.253 284.961 209.247C285.102 209.244 285.24 209.204 285.36 209.13C285.48 209.057 285.578 208.953 285.645 208.829C286.536 207.489 287.597 206.269 288.799 205.2C290.412 203.508 291.904 201.705 293.264 199.804C293.492 199.424 294.233 198.664 293.264 198.474C291.668 198.132 291.364 196.821 290.661 195.738C288.951 192.793 287.355 189.791 285.702 186.827C285.162 185.754 284.464 184.767 283.631 183.901C282.871 183.179 282.301 182.78 281.332 183.616C278.747 186.382 275.466 188.403 271.832 189.468C271.695 186.247 270.462 183.17 268.336 180.747C279.489 174.325 281.332 173.47 282.947 170.753C283.631 169.556 284.714 169.442 285.417 170.848C286.044 171.873 286.769 172.834 287.583 173.717C290.623 177.517 293.283 181.526 297.349 184.433C297.824 184.775 298.375 185.497 298.945 184.813C299.515 184.129 298.812 183.692 298.394 183.274C296.256 181.195 294.232 179 292.333 176.7C291.516 175.712 291.839 174.8 292.998 174.325C296.798 172.71 299.914 173.128 302.498 176.358C302.8 176.679 303.131 176.971 303.486 177.232C306.393 179.626 306.83 179.987 308.483 177.878C311.675 173.774 309.661 174.515 318.477 186.466C319.471 187.644 319.956 189.168 319.826 190.703C319.018 199.819 318.866 208.982 319.37 218.12Z" fill="#3C270B"/>
<path d="M209.208 79.8001C217.207 60.5911 216.808 49.0581 235.58 21.5271C236.568 20.0831 237.48 18.5821 238.354 17.0431C238.354 16.8531 239.19 14.0981 236.72 17.0431C221.71 35.4541 213.92 56.9431 208.334 79.2491C208.182 79.9901 208.999 80.3701 209.208 79.8001Z" fill="#3C270B"/>
<path d="M151.734 193.344C152.247 192.793 152.646 193.173 153.083 193.344C175.237 197.144 170.696 196.859 192.983 197.505C210.463 196.65 206.131 196.916 225.549 195.339C227.937 195.252 230.317 195.011 232.674 194.617C233.057 194.574 233.409 194.387 233.659 194.094C233.91 193.802 234.04 193.425 234.023 193.04C234.073 192.597 233.98 192.15 233.758 191.764C233.535 191.378 233.196 191.072 232.788 190.893C232.351 190.722 231.458 190.418 231.819 191.539C232.18 192.66 231.363 193.002 230.451 193.116C215.515 195.369 200.394 196.145 185.307 195.434C168.701 194.408 164.407 193.04 151.259 191.216C150.765 191.216 150.214 191.216 149.967 191.71C149.877 191.947 149.874 192.208 149.957 192.448C150.04 192.688 150.205 192.89 150.423 193.021C150.803 193.268 151.164 193.971 151.734 193.344Z" fill="#3C270B"/>
<path d="M221.578 356.478C218.557 356.592 215.517 356.782 212.572 356.972L208.354 357.238C206.454 357.371 204.421 357.637 202.521 357.903C199.812 358.338 197.075 358.573 194.332 358.606C188.632 358.606 182.799 358.245 177.232 357.922C173.09 357.694 168.815 357.466 164.597 357.333C162.241 357.333 159.733 357.181 157.263 356.991C155.534 356.839 153.767 356.763 152.057 356.687C149.777 356.687 147.421 356.478 145.122 356.231C144.533 356.231 143.716 356.06 142.918 355.946C140.619 355.623 140.619 355.623 140.581 355.946C140.543 356.269 140.581 356.212 144.723 357.124C147.219 357.66 149.771 357.89 152.323 357.808C153.591 357.785 154.859 357.829 156.123 357.941C160.702 358.473 165.357 358.663 169.86 358.853C172.691 358.967 175.56 359.081 178.505 359.29C182.875 359.594 187.378 359.86 191.957 359.86C196.163 359.887 200.366 359.621 204.535 359.062C207.765 358.625 211.071 358.416 214.282 358.226C216.315 358.112 218.424 357.979 220.495 357.789C220.495 357.789 223.383 357.485 223.345 356.858C223.269 356.535 223.003 356.421 221.578 356.478Z" fill="#3C270B"/>
<path d="M213.008 205.409C195.509 205.58 176.072 205.58 157.091 202.654C154.83 202.312 156.217 203.509 157.091 203.661H157.243C165.22 205.061 173.281 205.925 181.373 206.245C189.22 206.587 195.832 206.758 201.893 206.758C204.8 206.758 207.593 206.758 210.31 206.644C213.027 206.53 222.071 205.314 213.008 205.409Z" fill="#3C270B"/>
<path d="M229.785 210.577C229.781 210.535 229.761 210.496 229.729 210.468C229.698 210.44 229.657 210.425 229.614 210.425C224.503 210.425 219.316 210.653 214.3 210.919C205.823 211.65 197.299 211.65 188.821 210.919C188.779 210.915 188.736 210.923 188.699 210.943C188.662 210.964 188.632 210.995 188.612 211.033C188.59 211.067 188.579 211.107 188.579 211.147C188.579 211.188 188.59 211.227 188.612 211.261C189.999 212.382 197.523 212.914 205.845 212.914C215.345 212.914 226.08 212.211 229.614 210.862C229.648 210.863 229.682 210.855 229.712 210.839C229.742 210.823 229.766 210.799 229.784 210.77C229.801 210.741 229.811 210.708 229.811 210.674C229.811 210.64 229.802 210.606 229.785 210.577Z" fill="#3C270B"/>
<path d="M258.4 349.79C257.863 349.55 257.263 349.49 256.69 349.619L235.22 353.685C233.814 353.932 233.529 354.16 233.149 355.186C233.035 355.547 233.548 355.395 233.738 355.338C237.177 354.464 240.768 353.856 244.226 353.267C248.57 352.612 252.872 351.698 257.108 350.531L258.4 350.151C258.438 350.139 258.471 350.115 258.494 350.082C258.518 350.05 258.53 350.011 258.53 349.971C258.53 349.931 258.518 349.892 258.494 349.859C258.471 349.827 258.438 349.803 258.4 349.79Z" fill="#3C270B"/>
<path d="M161.025 215.175L152.437 214.035C151.943 214.035 151.582 214.035 151.525 214.377C151.468 214.719 151.525 214.852 152.209 215.08C153.878 215.552 155.59 215.858 157.32 215.992C158.517 216.144 159.752 216.277 160.93 216.543C161.02 216.549 161.11 216.538 161.195 216.509C161.281 216.48 161.36 216.435 161.428 216.376C161.496 216.317 161.551 216.245 161.591 216.165C161.631 216.084 161.655 215.996 161.662 215.906C161.668 215.817 161.656 215.726 161.628 215.641C161.599 215.556 161.554 215.477 161.495 215.409C161.436 215.341 161.364 215.285 161.283 215.245C161.203 215.205 161.115 215.181 161.025 215.175Z" fill="#3C270B"/>
<path d="M118.636 348.878C117.363 348.403 115.976 347.605 114.684 347.244C111.815 346.484 114.228 349.144 114.684 349.41C116.07 350.134 117.576 350.597 119.13 350.778C122.094 351.025 118.883 348.992 118.636 348.878Z" fill="#3C270B"/>
</svg>
